<svg xmlns="http://www.w3.org/2000/svg" xmlns:xlink="http://www.w3.org/1999/xlink" viewBox="0 0 1366 768"><defs><style>.cls-1{fill:none;}.cls-2{isolation:isolate;}.cls-3{clip-path:url(#clip-path);}.cls-4{clip-path:url(#clip-path-2);}.cls-5{fill:url(#linear-gradient);}.cls-16,.cls-17,.cls-19,.cls-6{opacity:0.45;}.cls-13,.cls-16,.cls-17,.cls-19,.cls-6{mix-blend-mode:overlay;}.cls-6{fill:url(#linear-gradient-2);}.cls-7{fill:url(#linear-gradient-3);}.cls-8{fill:url(#linear-gradient-4);}.cls-9{fill:url(#linear-gradient-5);}.cls-10{fill:url(#linear-gradient-6);}.cls-11{fill:url(#linear-gradient-7);}.cls-12{fill:url(#linear-gradient-8);}.cls-13{fill:#fff;opacity:0.79;}.cls-14{fill:url(#linear-gradient-9);}.cls-15{fill:url(#linear-gradient-10);}.cls-16{fill:url(#linear-gradient-11);}.cls-17{fill:url(#linear-gradient-12);}.cls-18{fill:url(#linear-gradient-13);}.cls-19{fill:url(#linear-gradient-14);}</style><clipPath id="clip-path"><rect class="cls-1" x="-1386" y="788" width="1366" height="768"/></clipPath><clipPath id="clip-path-2"><rect class="cls-1" width="1366" height="768"/></clipPath><linearGradient id="linear-gradient" x1="2314.01" y1="937.05" x2="897.12" y2="246.14" gradientUnits="userSpaceOnUse"><stop offset="0" stop-color="#81b1ff"/><stop offset="1" stop-color="#fff"/></linearGradient><linearGradient id="linear-gradient-2" x1="1074.31" y1="205.93" x2="1287.08" y2="767.08" gradientUnits="userSpaceOnUse"><stop offset="0" stop-color="#fff"/><stop offset="1" stop-color="#fff" stop-opacity="0"/></linearGradient><linearGradient id="linear-gradient-3" x1="1241.73" y1="227.12" x2="1389.03" y2="487.53" xlink:href="#linear-gradient-2"/><linearGradient id="linear-gradient-4" x1="1105.94" y1="235.01" x2="1253.24" y2="495.42" xlink:href="#linear-gradient-2"/><linearGradient id="linear-gradient-5" x1="1310.96" y1="175.77" x2="1406.12" y2="343.99" xlink:href="#linear-gradient-2"/><linearGradient id="linear-gradient-6" x1="960.96" y1="341.65" x2="1056.12" y2="509.87" xlink:href="#linear-gradient-2"/><linearGradient id="linear-gradient-7" x1="1679.9" y1="-21.26" x2="1124.01" y2="182.16" xlink:href="#linear-gradient-2"/><linearGradient id="linear-gradient-8" x1="1000.2" y1="-160.26" x2="1193.09" y2="884.88" xlink:href="#linear-gradient"/><linearGradient id="linear-gradient-9" x1="1291.19" y1="290.9" x2="1209.1" y2="183.32" gradientUnits="userSpaceOnUse"><stop offset="0" stop-color="#ffbd6d"/><stop offset="1" stop-color="#ffee8b"/></linearGradient><linearGradient id="linear-gradient-10" x1="1164.79" y1="571.18" x2="1312.09" y2="920.14" gradientUnits="userSpaceOnUse"><stop offset="0" stop-color="#84f1c7"/><stop offset="1" stop-color="#4084b6"/></linearGradient><linearGradient id="linear-gradient-11" x1="1498.23" y1="928.41" x2="1208.3" y2="548.47" gradientUnits="userSpaceOnUse"><stop offset="0"/><stop offset="1" stop-opacity="0"/></linearGradient><linearGradient id="linear-gradient-12" x1="1253.69" y1="316.55" x2="1408.88" y2="731.27" xlink:href="#linear-gradient-2"/><linearGradient id="linear-gradient-13" x1="1217.88" y1="676.9" x2="1361.67" y2="952.21" xlink:href="#linear-gradient-10"/><linearGradient id="linear-gradient-14" x1="1525.42" y1="985.25" x2="1338.37" y2="626.35" xlink:href="#linear-gradient-11"/></defs><title>background_01</title><g class="cls-2"><g id="Layer_1" data-name="Layer 1"><g class="cls-4"><path class="cls-5" d="M1498-10V575.66l-16.23,6.54-273,110.07L955.37,781.8l-86.8-.41L835.9,744.08a93.28,93.28,0,0,1-9.22-110.42l55.59-90.15,81.23-131.71L1196.34,34.28A93.27,93.27,0,0,1,1275.73-10Z"/><path class="cls-6" d="M1498,139.83V575.66L1208.77,692.27,955.37,781.8l-86.8-.41L835.9,744.08a93.28,93.28,0,0,1-9.22-110.42L963.51,411.81c64.29-7.94,76.89,72.83,77.25,75.24-.11-1.7-2.24-40.67,30.36-58.68,33.31-18.42,48.55,32.81,48.55,32.81s-2.08-87.18,83.84-111.73,123.63,19.29,123.63,19.29-11.4-95.57,41.21-125.38,85-12.27,85.92-9.65C1455,235.86,1445.78,167.52,1498,139.83Z"/><circle class="cls-7" cx="1291.18" cy="314.55" r="7.89"/><circle class="cls-8" cx="1155.4" cy="322.44" r="7.89"/><circle class="cls-9" cx="1342.91" cy="232.25" r="5.1"/><circle class="cls-10" cx="992.91" cy="398.13" r="5.1"/><path class="cls-11" d="M1498,45.85v21c-157.11,14-198,45.37-301.51,106.77C1294.81,75.58,1428,51.51,1498,45.85Z"/><path class="cls-12" d="M1481.77,582.2l-273,110.07L955.37,781.8l-86.8-.41L835.9,744.08a93.28,93.28,0,0,1-9.22-110.42l55.59-90.15H905.2v45l12.67-12.67V532.41s1.56-22.81,29.61-29.23c21-9.93,20.46-85.33,25.72-84.17s0,152,0,152l44.13-3.94,26-78.48h54.95l50.85-30.4v96.64h26.3V511.95h34.88V475.71l9.94-9.94V452.33h40.52V567h45V477.46l30.11-30.1V403.23l47.2,47.2V561h71.75Z"/><rect class="cls-13" x="927.46" y="526.71" width="7.31" height="7.31" rx="1.66" ry="1.66"/><rect class="cls-13" x="942.27" y="526.71" width="7.31" height="7.31" rx="1.66" ry="1.66"/><rect class="cls-13" x="1188.45" y="526.71" width="7.31" height="7.31" rx="1.66" ry="1.66"/><rect class="cls-13" x="1203.94" y="526.71" width="7.31" height="7.31" rx="1.66" ry="1.66"/><rect class="cls-13" x="1219.43" y="526.71" width="7.31" height="7.31" rx="1.66" ry="1.66"/><rect class="cls-13" x="1234.92" y="526.71" width="7.31" height="7.31" rx="1.66" ry="1.66"/><rect class="cls-13" x="1219.43" y="483.55" width="7.31" height="7.31" rx="1.66" ry="1.66"/><rect class="cls-13" x="1320.95" y="485.89" width="7.31" height="7.31" rx="1.66" ry="1.66"/><rect class="cls-13" x="1363.62" y="485.89" width="7.31" height="7.31" rx="1.66" ry="1.66"/><rect class="cls-13" x="1333.95" y="508.54" width="7.31" height="7.31" rx="1.66" ry="1.66"/><rect class="cls-13" x="873.25" y="588.86" width="7.31" height="7.31" rx="1.66" ry="1.66"/><rect class="cls-13" x="957.08" y="526.71" width="7.31" height="7.31" rx="1.66" ry="1.66"/><circle class="cls-14" cx="1246.68" cy="232.57" r="40.23"/><path class="cls-15" d="M1498,499.38v282H890s-10.52-23.93,3.51-41.08,35.85-9,40.92,0c-1.94-38.58,18.71-55.34,46.38-56.5S1021.32,715,1021.32,715s-2.34-34.68,32.35-38.57,37.8,26.11,37.8,26.11.39-38.58,40.92-44.43c40-5.76,53,16.51,53.38,17.13-.27-.84-9.24-29,3.42-61,6.34-16,18.09-33,39.06-48.1,63.52-45.59,115,5.07,115,5.07s-14-30.3,15.78-51.05,58.45,21.34,58.45,21.34S1422.19,478,1498,499.38Z"/><path class="cls-16" d="M1498,541.48v239.9H1091l-8.9-19.65s8-43.64,65.17-60.78,92.66-1.5,92.66-1.5-5.46-82.87,59.62-106.94,133.66,17.25,133.66,17.25S1444.4,554.66,1498,541.48Z"/><path class="cls-17" d="M1498,499.38v14.47c-16.46-7.86-39.05-4.62-53.48,6.28-17.53,13.25-17.92,52.61-30,42.47s-15.59-31.17-36.24-32-28.06,13.64-22.6,34.68-2.35,28.44-14.4,19.66-36.27-28.24-79.91-20.06-44.82,38.58-60.41,46c-5.14,2.44-9,3.27-11.78,3.29,6.34-16,18.09-33,39.06-48.1,63.52-45.59,115,5.07,115,5.07s-14-30.3,15.78-51.05,58.45,21.34,58.45,21.34S1422.19,478,1498,499.38Z"/><path class="cls-18" d="M1498,622.49v158.9H963.92a32.5,32.5,0,0,1,9.73-16.19c16.55-14.73,36.82-3.22,40.41,6.42,4.14-38.41,27.17-51.72,54.68-48.52s35.13,37.14,35.13,37.14,3.13-34.61,38-33,33.24,31.72,33.24,31.72,6.43-38,47.38-37.46c40.37.58,49.78,24.63,50,25.3-.21-1.3-10.11-66.38,59.08-101.08s111.7,21.67,112.72,23c-.25-1-8.58-32.34,23.61-47.91C1479.49,615.23,1489.67,617.37,1498,622.49Z"/><path class="cls-19" d="M1498,682.26v99.13H1288.68c-.58-11.5,3.05-28.47,25.3-40.3,36.64-19.49,92,7,92,7s-9.74-29.1,19.88-48.65,60.79,6.56,60.79,6.56S1485.86,690.66,1498,682.26Z"/></g></g></g></svg>