<svg xmlns="http://www.w3.org/2000/svg" xmlns:xlink="http://www.w3.org/1999/xlink" viewBox="0 0 1366 1098"><defs><style>.cls-1{fill:none;}.cls-2{isolation:isolate;}.cls-3{clip-path:url(#clip-path);}.cls-4{fill:url(#linear-gradient);}.cls-13,.cls-14,.cls-5{opacity:0.45;}.cls-10,.cls-13,.cls-14,.cls-5{mix-blend-mode:overlay;}.cls-5{fill:url(#linear-gradient-2);}.cls-6{fill:url(#linear-gradient-3);}.cls-7{fill:url(#linear-gradient-4);}.cls-8{fill:url(#linear-gradient-5);}.cls-9{fill:url(#linear-gradient-6);}.cls-10{fill:#fff;opacity:0.79;}.cls-11{fill:url(#linear-gradient-7);}.cls-12{fill:url(#linear-gradient-8);}.cls-13{fill:url(#linear-gradient-9);}.cls-14{fill:url(#linear-gradient-10);}.cls-15{fill:url(#linear-gradient-11);}</style><clipPath id="clip-path"><rect class="cls-1" width="1366" height="1098"/></clipPath><linearGradient id="linear-gradient" x1="3017.91" y1="1338.63" x2="849.16" y2="281.1" gradientUnits="userSpaceOnUse"><stop offset="0" stop-color="#81b1ff"/><stop offset="1" stop-color="#fff"/></linearGradient><linearGradient id="linear-gradient-2" x1="1120.38" y1="219.56" x2="1446.05" y2="1078.47" gradientUnits="userSpaceOnUse"><stop offset="0" stop-color="#fff"/><stop offset="1" stop-color="#fff" stop-opacity="0"/></linearGradient><linearGradient id="linear-gradient-3" x1="1168.79" y1="264.07" x2="1394.25" y2="662.66" xlink:href="#linear-gradient-2"/><linearGradient id="linear-gradient-4" x1="946.88" y1="427.3" x2="1092.53" y2="684.78" xlink:href="#linear-gradient-2"/><linearGradient id="linear-gradient-5" x1="2047.31" y1="-128.19" x2="1196.45" y2="183.17" xlink:href="#linear-gradient-2"/><linearGradient id="linear-gradient-6" x1="1006.94" y1="-340.94" x2="1302.19" y2="1258.78" xlink:href="#linear-gradient"/><linearGradient id="linear-gradient-7" x1="1322.76" y1="353.1" x2="1197.11" y2="188.44" gradientUnits="userSpaceOnUse"><stop offset="0" stop-color="#ffbd6d"/><stop offset="1" stop-color="#ffee8b"/></linearGradient><linearGradient id="linear-gradient-8" x1="1258.86" y1="778.61" x2="1484.32" y2="1312.75" gradientUnits="userSpaceOnUse"><stop offset="0" stop-color="#84f1c7"/><stop offset="1" stop-color="#4084b6"/></linearGradient><linearGradient id="linear-gradient-9" x1="1769.24" y1="1325.41" x2="1325.47" y2="743.86" gradientUnits="userSpaceOnUse"><stop offset="0"/><stop offset="1" stop-opacity="0"/></linearGradient><linearGradient id="linear-gradient-10" x1="1394.94" y1="388.87" x2="1632.48" y2="1023.66" xlink:href="#linear-gradient-2"/><linearGradient id="linear-gradient-11" x1="1340.13" y1="940.44" x2="1560.22" y2="1361.84" xlink:href="#linear-gradient-8"/></defs><title>background_02</title><g class="cls-2"><g id="Layer_1" data-name="Layer 1"><rect class="cls-1" x="-453" y="155" width="1366" height="520" transform="translate(-185 645) rotate(-90)"/><rect class="cls-1" x="-453" y="155" width="1366" height="520" transform="translate(-185 645) rotate(-90)"/><rect class="cls-1" x="-453" y="155" width="1366" height="520" transform="translate(-185 645) rotate(-90)"/><rect class="cls-1" x="-453" y="155" width="1366" height="520" transform="translate(-185 645) rotate(-90)"/><rect class="cls-1" x="-453" y="155" width="1366" height="520" transform="translate(-185 645) rotate(-90)"/><rect class="cls-1" x="-453" y="155" width="1366" height="520" transform="translate(-185 645) rotate(-90)"/><rect class="cls-1" x="-453" y="155" width="1366" height="520" transform="translate(-185 645) rotate(-90)"/><rect class="cls-1" x="-453" y="155" width="1366" height="520" transform="translate(-185 645) rotate(-90)"/><rect class="cls-1" x="-453" y="155" width="1366" height="520" transform="translate(-185 645) rotate(-90)"/><rect class="cls-1" x="-453" y="155" width="1366" height="520" transform="translate(-185 645) rotate(-90)"/><rect class="cls-1" x="-453" y="155" width="1366" height="520" transform="translate(-185 645) rotate(-90)"/><g class="cls-3"><path class="cls-4" d="M1768.89-111V785.48l-24.84,10L1326.18,964,938.33,1101l-132.86-.63-50-57.11a142.78,142.78,0,0,1-14.11-169l85.09-138,124.34-201.6L1307.16-43.18A142.76,142.76,0,0,1,1428.68-111Z"/><path class="cls-5" d="M1768.89,118.39V785.48L1326.18,964,938.33,1101l-132.86-.63-50-57.11a142.78,142.78,0,0,1-14.11-169L950.78,534.68c98.41-12.15,117.69,111.47,118.24,115.16-.16-2.6-3.43-62.25,46.46-89.82,51-28.19,74.31,50.23,74.31,50.23s-3.19-133.44,128.33-171,189.23,29.53,189.23,29.53-17.45-146.29,63.08-191.91,130.17-18.79,131.52-14.77C1703,265.37,1689,160.77,1768.89,118.39Z"/><circle class="cls-6" cx="1244.49" cy="397.9" r="12.08"/><circle class="cls-7" cx="995.78" cy="513.75" r="7.8"/><path class="cls-8" d="M1768.89-25.47V6.67c-240.48,21.4-303.08,69.44-461.5,163.42C1457.88,20,1661.77-16.8,1768.89-25.47Z"/><path class="cls-9" d="M1744.05,795.49,1326.18,964,938.33,1101l-132.86-.63-50-57.11a142.78,142.78,0,0,1-14.11-169l85.09-138h35.09v68.89l19.39-19.39V719.27s2.38-34.92,45.32-44.74c32.22-15.2,31.31-130.61,39.37-128.83s0,232.63,0,232.63l67.55-6L1073,652.18h84.1l77.84-46.53V753.57h40.26V688h53.39V632.49l15.21-15.21V596.7h62V772.3h68.89V635.17l46.09-46.07V521.55L1593,593.79V763.11h109.83Z"/><rect class="cls-10" x="895.6" y="710.55" width="11.18" height="11.18" rx="2.53" ry="2.53"/><rect class="cls-10" x="918.27" y="710.55" width="11.18" height="11.18" rx="2.53" ry="2.53"/><path class="cls-10" d="M1297.62,710.55h6.11a2.54,2.54,0,0,1,2.54,2.54v6.11a2.53,2.53,0,0,1-2.53,2.53h-6.11a2.53,2.53,0,0,1-2.53-2.53v-6.11A2.53,2.53,0,0,1,1297.62,710.55Z"/><rect class="cls-10" x="1318.79" y="710.55" width="11.18" height="11.18" rx="2.53" ry="2.53"/><path class="cls-10" d="M1345,710.55h6.11a2.54,2.54,0,0,1,2.54,2.54v6.11a2.53,2.53,0,0,1-2.53,2.53H1345a2.54,2.54,0,0,1-2.54-2.54v-6.11A2.53,2.53,0,0,1,1345,710.55Z"/><path class="cls-10" d="M1345,644.49h6.11a2.54,2.54,0,0,1,2.54,2.54v6.11a2.53,2.53,0,0,1-2.53,2.53H1345a2.54,2.54,0,0,1-2.54-2.54V647A2.53,2.53,0,0,1,1345,644.49Z"/><path class="cls-10" d="M815.15,805.68h6.11a2.53,2.53,0,0,1,2.53,2.53v6.11a2.54,2.54,0,0,1-2.54,2.54h-6.11a2.54,2.54,0,0,1-2.54-2.54v-6.11A2.54,2.54,0,0,1,815.15,805.68Z"/><rect class="cls-10" x="940.93" y="710.55" width="11.18" height="11.18" rx="2.53" ry="2.53"/><circle class="cls-11" cx="1254.63" cy="263.82" r="61.58"/><path class="cls-12" d="M1768.89,668.72v431.65H838.26s-16.1-36.64,5.37-62.88,54.87-13.72,62.63,0c-3-59.05,28.64-84.7,71-86.49s62,47.7,62,47.7-3.58-53.08,49.51-59,57.86,40,57.86,40,.59-59.05,62.63-68c61.16-8.82,81.16,25.28,81.7,26.22-.41-1.28-14.14-44.34,5.23-93.36,9.7-24.54,27.69-50.58,59.79-73.62,97.23-69.78,176,7.76,176,7.76s-21.47-46.37,24.16-78.14,89.46,32.66,89.46,32.66S1652.86,636.06,1768.89,668.72Z"/><path class="cls-13" d="M1768.89,733.17v367.21H1145.94l-13.62-30.08s12.21-66.79,99.75-93S1373.9,975,1373.9,975s-8.36-126.85,91.26-163.69,204.59,26.41,204.59,26.41S1686.85,753.34,1768.89,733.17Z"/><path class="cls-14" d="M1768.89,668.72v22.15c-25.19-12-59.78-7.07-81.86,9.61-26.83,20.28-27.44,80.52-45.92,65s-23.86-47.72-55.47-48.91-42.95,20.88-34.59,53.09-3.59,43.54-22,30.1-55.51-43.22-122.31-30.7-68.6,59.05-92.46,70.38c-7.87,3.74-13.73,5-18,5,9.7-24.54,27.69-50.58,59.79-73.62,97.23-69.78,176,7.76,176,7.76s-21.47-46.37,24.16-78.14,89.46,32.66,89.46,32.66S1652.86,636.06,1768.89,668.72Z"/><path class="cls-15" d="M1768.89,857.15v243.22H951.4a49.74,49.74,0,0,1,14.9-24.78c25.33-22.54,56.35-4.93,61.85,9.83,6.34-58.79,41.58-79.16,83.69-74.26s53.77,56.84,53.77,56.84,4.79-53,58.16-50.53,50.88,48.55,50.88,48.55,9.84-58.22,72.52-57.33c61.79.89,76.19,37.7,76.58,38.72-.33-2-15.47-101.6,90.43-154.71,105.69-53,171,33.17,172.53,35.24-.39-1.49-13.13-49.5,36.15-73.33C1740.55,846,1756.14,849.32,1768.89,857.15Z"/></g></g></g></svg>