<svg id="Layer_1" data-name="Layer 1" xmlns="http://www.w3.org/2000/svg" viewBox="0 0 500 500"><defs><style>.cls-1{fill:#75e4ea;}.cls-1,.cls-16,.cls-31{opacity:0.5;}.cls-2,.cls-22,.cls-23,.cls-30,.cls-7{fill:#fff;}.cls-3,.cls-32{fill:#a5a5a5;}.cls-4,.cls-5,.cls-6{fill:#f7f7f7;}.cls-4,.cls-7{opacity:0.4;}.cls-17,.cls-26,.cls-30,.cls-32,.cls-5{opacity:0.3;}.cls-25,.cls-8{fill:none;stroke-miterlimit:10;}.cls-8{stroke:#601f1f;stroke-width:0.85px;}.cls-9{fill:#3b9b62;}.cls-10,.cls-17{fill:#283844;}.cls-11{fill:#1a2733;}.cls-12{fill:#477077;}.cls-13{fill:#284349;}.cls-14{fill:#b6bbbf;}.cls-15{fill:#d8d8d8;}.cls-16,.cls-21,.cls-26{fill:#1a2c42;}.cls-18{fill:#0c1216;}.cls-19{fill:#3163aa;}.cls-20{fill:#235da3;}.cls-22{opacity:0.2;}.cls-23{opacity:0.1;}.cls-24{fill:#16212b;}.cls-25{stroke:#000;stroke-width:0.28px;}.cls-27{fill:#5f989e;}.cls-28{fill:#929293;}.cls-29{fill:#702020;}.cls-31{fill:#48b574;}.cls-33{fill:#231e1c;}.cls-34{fill:#34492c;}.cls-35{fill:#602c08;}.cls-36{fill:#51843c;}</style></defs><title>Artboard 5</title><path class="cls-1" d="M63.95,292.22c0-101.82,82.54-184.36,184.36-184.36A184.36,184.36,0,0,1,432.68,292.22"/><path class="cls-2" d="M125.14,160.29a5.43,5.43,0,0,1-5.43,5.43H72.84a5.43,5.43,0,0,1-5.43-5.43h0a5.43,5.43,0,0,1,5.43-5.43h46.87a5.43,5.43,0,0,1,5.43,5.43Z"/><path class="cls-2" d="M168.9,144.43a5.43,5.43,0,0,1-5.43,5.43H116.6a5.43,5.43,0,0,1-5.43-5.43h0A5.43,5.43,0,0,1,116.6,139h46.87a5.43,5.43,0,0,1,5.43,5.43Z"/><path class="cls-2" d="M193.84,159.2a5.43,5.43,0,0,1-5.43,5.43H141.54a5.43,5.43,0,0,1-5.43-5.43h0a5.43,5.43,0,0,1,5.43-5.43h46.87a5.43,5.43,0,0,1,5.43,5.43Z"/><path class="cls-3" d="M455,296.2s38.08,4.71,25,6.89-22.12,6.53-12,9.07.36,12.69-23.21,12.69-6.53,10.88-38.8,17.41-18.49,12-51.13,10.52-64.19-14.14-46.05-21.4S455,296.2,455,296.2Z"/><path class="cls-4" d="M339.22,172.08s0,7.13-5.7,10-14.25,4.63-16.75-.36-10.33,3.56-15,.36-9.26,3.92-18.88,5-8.55,7.84-16.39,2.85-11.4-2.49-11-6.41-2.5-5,1.78-6.77,7.84-3.92,12.47-2.14,4.63,1.43,7.13,2.49,5,2.14,7.13.71,3.92-3.92,7.84-5.35,7.13-2.14,9.62-1.43,7.48-1.43,8.55.71,5.7,5,7.48,3.92a24.9,24.9,0,0,0,5.7-4.63c1.07-1.43,5-1.78,6.77-.71s3.21,1.78,5,1.07S338.51,167.45,339.22,172.08Z"/><path class="cls-5" d="M159.68,184.54s0-11.6,9.28-16.24,23.21-7.54,27.27.58,16.82-5.8,24.37-.58,15.08-6.38,30.75-8.12,13.92-12.76,26.69-4.64,18.57,4.06,18,10.44,4.06,8.12-2.9,11-12.76,6.38-20.3,3.48-7.54-2.32-11.6-4.06-8.12-3.48-11.6-1.16-6.38,6.38-12.76,8.7-11.6,3.48-15.66,2.32-12.18,2.32-13.92-1.16S198,177,195.07,178.74s-7.54,5.22-9.28,7.54-8.12,2.9-11,1.16-5.22-2.9-8.12-1.74S160.84,192.08,159.68,184.54Z"/><path class="cls-6" d="M265.19,179.94s0,7.13-5.7,10-14.25,4.63-16.75-.36-10.33,3.56-15,.36-9.26,3.92-18.88,5-8.55,7.84-16.39,2.85-11.4-2.5-11-6.41-2.5-5,1.78-6.77,7.84-3.92,12.47-2.14,4.63,1.43,7.13,2.49,5,2.14,7.13.71,3.92-3.92,7.84-5.34,7.13-2.14,9.62-1.43,7.48-1.43,8.55.71,5.7,5,7.48,3.92a24.85,24.85,0,0,0,5.7-4.63c1.07-1.43,5-1.78,6.77-.71s3.21,1.78,5,1.07S264.48,175.3,265.19,179.94Z"/><path class="cls-7" d="M184.73,187.44s0-8.23,6.59-11.53,16.47-5.35,19.35.41,11.94-4.12,17.29-.41,10.7-4.53,21.82-5.76,9.88-9.06,18.94-3.29,13.17,2.88,12.76,7.41,2.88,5.76-2.06,7.82-9.06,4.53-14.41,2.47-5.35-1.65-8.23-2.88-5.76-2.47-8.23-.82-4.53,4.53-9.06,6.18-8.23,2.47-11.12,1.65-8.64,1.65-9.88-.82-6.59-5.76-8.64-4.53a28.77,28.77,0,0,0-6.59,5.35c-1.24,1.65-5.76,2.06-7.82.82s-3.71-2.06-5.76-1.23S185.55,192.8,184.73,187.44Z"/><path class="cls-3" d="M186.29,292.66s5.44,17-15.23,24.21-76.15,19.58-57.3,20.31-1.81,8.7-37.71,16.32S2.8,368.72,25.28,368.72s87.76-2.54,68.9,5.8,68.9,17.77,68.9,17.77-14.14-4,9.43-21,73.61-30.1,54.76-45.33-6.89-18.13.73-18.49-8-11.24-17.77-12S186.29,292.66,186.29,292.66Z"/><line class="cls-8" x1="348.93" y1="245.07" x2="280.32" y2="202.64"/><line class="cls-8" x1="338.65" y1="247.6" x2="280.32" y2="209.89"/><line class="cls-8" x1="280.32" y1="216.78" x2="334.87" y2="250.14"/><line class="cls-8" x1="279.49" y1="221.86" x2="332.91" y2="257.44"/><path class="cls-9" d="M234.52,303.09s23.21,7.25,17,17.77,4,9.79,39.16,15.23,71.08,13.78,71.08,13.78-45-1.81-80.14,4.35-104.8,28.29-118.58,38.08c0,0-39.89,4-14.5-16.32s70-42.06,70-50.77S203,303.81,212,301.64,234.52,303.09,234.52,303.09Z"/><path class="cls-10" d="M163.08,392.29s83.41-47.14,198.72-42.43L294,343.34s-50.41-6.17-102.26,16C191.73,359.3,146.76,382.14,163.08,392.29Z"/><path class="cls-11" d="M162.63,391.39s3.81-6.53,4.35-7.34,117.76-51.4,192.83-35.9v2.18S277.95,340.26,162.63,391.39Z"/><path class="cls-12" d="M452.63,305.64s-5.79,4.43-.89,4.43,11.15,7.34-6.8,6-48.68,9-28,13.6-27.2,17.14-59.56,12.78-40.8-.27-51.4-2.18-8.43-1.9-18.49-2.45-25.84-3-16-8.16,17.68-.82,2.18-7.07-11.7-8.16-16-9.52-7.34-4.35,3.54-6.26,29.64-4.35,31.82-6,4.9-1.63-3.26-4.08-6.53-4.35,3-5.71,72.07-.54,85.13,1.36,16.59,3,15.77,4.89,4.35.82,15.23.27S462.22,298.23,452.63,305.64Z"/><path class="cls-13" d="M293.36,255.95s-18.13-4-58-28.65-38.07-26.84-48.23-21.4-8,5.08-16.32,0-13.06-2.9-19.58,2.9-43.15,37.35-56.93,46.05A228.32,228.32,0,0,1,64.9,270.09s99.36,37.71,134.17,23.57S258.18,278.79,293.36,255.95Z"/><path class="cls-11" d="M140.78,221.5s10.15-7.8,11.06-8.7a21.75,21.75,0,0,1,3.81-3.08c1.27-.73,2.54-.73,2.72,2a10.06,10.06,0,0,1-.72,5.26,8.27,8.27,0,0,0-.73,2.36c-.18.91-.91,3.44-.91,3.44s-1.27,2-.36,2.18,3.63-4.53,3.63-4.53l1.09-3.44s.54-2.18,1.09-2.36.91-.54,1.27,0a13.59,13.59,0,0,1,1.09,4c.18,1.45-1.81,2.18.36,4.17s2.9,1.63,3.26,1.09a6.23,6.23,0,0,0,.91-3.08,7.43,7.43,0,0,1,.54-2.54s1.45-1.27,1.63-.18a25,25,0,0,0,2.18,5.62c.91,1.63,2.9,4.71,3.81,6.53s2.18,3.44,2.18,4.35a13.57,13.57,0,0,0,1.63,4.53c.54.73.54,1.45,1.09,2s2.72,1.81,1.81.18-1.09-3.45-2.18-5.26-2.9-6.16-2.9-6.16l-2.36-7.8a10.41,10.41,0,0,0,.18-2.72c-.18-.72-.36-1.45.55-1.09s3.44,2.72,5.62,4.53,8.52,8.34,9.79,8.88,3.44,3.63,6.16,4.53.73.54,2.72.91,2.72.54,2.72.54a26.5,26.5,0,0,1-2.72-4c-2-3.26-7.8-8.34-7.8-8.34a21.43,21.43,0,0,1-2.36-5.26,7.74,7.74,0,0,1-.18-3.44c.18-.54-3.81-6.16,2.54-.91s4.9,5.62,9.25,7.43,6.35,4.17,7.43,4.9,1.45,2.72,3.08,2.9a27.49,27.49,0,0,1,5.44,2s2.36,1.27,3.81.91,1.45-1.09,1.45-1.09-.72-1.27-2-3.26-6.35-5.62-6.35-5.62-5.62-3.08-6-3.81-6.35-2.54-6.53-3.63-1.27-2.18,0-2.36,6.16,1.45,7.8,2.9,6,6,6,6a42.36,42.36,0,0,0,4.89,3.63c1.45.73,17,11.42,18.49,11.79s2.72,2.54,5.26,2.72,5.26,2.36,7.25,2.36,4.53,2.54,5.08,1.81-2.9-3.08-2.9-3.08l-1.81-1.81,3.81,1.45,9.25,5.44s5.44,4,6.71,4.17,3.81,1.45,6.53,2.18,7.43,2.9,8.7,2.72,4,.91,4,.91l-2.54,1.27s-32.27,15-52.94,21.76-41.52,14.51-43.7,15.23-3.81,2.72-3.26,1.09-8.52-20.85-14.51-30.64-19-34.63-20.12-36.44a18.39,18.39,0,0,0-6-5.8C145.86,222,140.78,221.5,140.78,221.5Z"/><path class="cls-8" d="M265.16,193.94c-1.85.73-101.44,50.32-101.44,50.32"/><line class="cls-8" x1="265.52" y1="201.01" x2="168.71" y2="253.77"/><line class="cls-8" x1="264.43" y1="207.94" x2="171.88" y2="260.98"/><line class="cls-8" x1="265.52" y1="213.88" x2="178.54" y2="271.45"/><line class="cls-8" x1="265.89" y1="225.67" x2="184.11" y2="293.3"/><line class="cls-8" x1="265.52" y1="219.68" x2="183.3" y2="280.42"/><path class="cls-13" d="M321.81,234s-19.19,17.71-41.67,28.06-31.57,15.13-41.42,17.71-35.61,12.34-41.92,14.33,2.53,2.59,11.36,2.39,8.08,3.38-.76,3.78S203.88,308,222.06,307s37.38,9,25,12.74-1.52,20.47,29.8,22.66,77.53,7,77.53,7,12.12,3.38,14.14-.6-10.1-7.56-42.43-9-13.13-4-33.08-3.58-29.29-3.38-19.7-6.77,25.25-4.58,9.34-9-39.14-10-20.71-13.14,47-8.56,31.06-9.75-7.58-8.16,21.72-8,81.82,4,78.79,7.56,5.3,2.19,21.72.8,44.19,3.38,37.38,7.56,15.66.4,7.83-2.59-2.53-2.19,1.77-4.38-11.36-2-32.83-10-67.68-39.4-77-46.57-12.88-11.74-18.18-7.56S326.86,236,321.81,234Z"/><polygon class="cls-14" points="256.19 272.76 256.19 250.28 244.22 250.28 244.22 278.56 256.19 272.76"/><polygon class="cls-15" points="236.2 280.24 236.2 260.66 244.18 264.65 244.18 278.79 236.2 280.24"/><polygon class="cls-15" points="229.08 282.42 229.08 253.77 221.83 253.77 221.83 271.54 210.59 271.54 210.59 282.42 204.06 285.68 204.06 291.85 229.08 282.42"/><polygon class="cls-14" points="229.08 265.38 233.43 262.65 236.15 265.38 236.15 280.24 229.08 282.42 229.08 265.38"/><path class="cls-11" d="M255.92,312s-4.77-2.55,6-4.54,25.5-3.89,31.21-5.53,6.8-1.36,1.09-4.35-12.51-4.08-5.44-5.71,59.83-.55,79.14.82,26.38,4.35,24.75,5.17-1.9,2.18,6.53,1.63,17.13-1.36,28.83-.54,16.59-.27,21.21,1.9-2.45-3-17.14-6-9.52-1.63-20.4-6.8-13.87-7.89-16-9.52a57.31,57.31,0,0,1-4.89-4.35s5.71,2.18,7.34,3a14.79,14.79,0,0,0,2.72,1.09l-2.72-2.18-3.53-3.54s-15.77-6.53-22-12.78-10.88-6.8-13.33-8.7-6.8-5.44-7.89-6-9-3.26-4.89-.27,4.08,4.08,4.89,4.62,6.53,4.89,9.52,10.06,4.35,3.81,3,5.17-3.81,1.09-3.81,1.09-4.89-7.07-6-8.43-2.18-1.09-3-3-2.72-1.63-3.81-4.08A6.42,6.42,0,0,0,344,247s.27-1.63-1.9,0A15.12,15.12,0,0,1,340,248.6c-2.45,1.63-3.26,2.72-3.81,4.35s-1.63,5.17-1.63,5.17l-2.72,2.72s-2.72,1.36-2.45.54-.27-.82.27-3a17.8,17.8,0,0,1,1.9-4.35s2.45-1.63,2.72-3.54,1.36-3,.54-3.81-4.89-.54-4.89-.54-3.26,3.26-4.08,4.35-4.62,4.62-6,6.53-4.9,5.71-5.44,6.8-4.08,3.53-4.08,3.53-3.54-1.09-2.45-2.45,3.81-5.17,3.81-5.17l4.08-4.9s3-2.18,3.53-4.08,1.63-2.18,1.09-3-4.62.27-4.62.27l-3.26,3.81a8.71,8.71,0,0,1-3,3.26c-1.9,1.09-5.44,3.54-7.07,4.35a25,25,0,0,0-5.71,3.53c-1.36,1.36-3.26,3.81-4.62,4.35a35.08,35.08,0,0,0-3.26,1.9c-1.09.55-5.44,3.81-5.44,3.81a12.21,12.21,0,0,1-3.81,2.18c-1.9.55-4.9,3-7.07,3.54s-1.9,1.09-4.35,1.36,2.72-.55-2.45.27-1.63-1.63-1.63-1.63l4.35-2.72s3.81-1.9,3.26-2.72-.55-.82-2.18-.54-4.35,1.9-5.71,2.72-3,3.26-4.9,4.08-7.07,3-9,4.08a82,82,0,0,1-8.16,3.26l-4.62,1.63s-3.54.82-6,1.63-7.89,1.9-7.89,1.9l-1.9-.55v-1.36c-1.63,1.36-4.62,1.9-1.36,3s3.26,2.18,5.44,2.45,6.53-1.09,7.34-1.36,3-2.18,2.45-.55a11,11,0,0,1-2.72,3.54s-1.63,2.18-1.63,3,.54,1.09,1.36,2.45-2.45,1.63,2.45,2.45,4.35.54,8.43,2.45,4.62,2.18,5.44,3.26.27.82,1.36,2.18l1.09,1.36s-2.45-6-1.9-7.62-.27-.82,1.9-2.72,4.62-4.35,4.62-4.35,4.35-3.26,5.17-4.62a7.49,7.49,0,0,1,4.9-3.26c2.45-.55,3.26.82,2.72,2.45a27,27,0,0,1-3,4.89l-3.81,2.45-4.35,2.45s-2.72,1.63-3.54,3S250.75,310.07,255.92,312Z"/><polygon class="cls-15" points="256.19 260.84 263.8 260.84 263.8 270.45 256.19 272.76 256.19 260.84"/><path class="cls-16" d="M42.06,250s11.6-7.07,38.44-8.7,43.08-.36,51.73,1.81,17.72,8.52,22.43,12.33S167,268.82,167,268.82s6.71-7.07-2-21-3.81-18.86-19.76-22.85-10.88-9.25-29.19-9.25-38.26-1.09-43.33,1.09S41,222.58,39.52,227.3,42.06,250,42.06,250Z"/><path class="cls-17" d="M180.27,326.39s17.68-1.9,10.61,4.08-16,15.77-19.85,21.76-7.62,15.77-24.48,16.32-33.73-4.35-53.85-3-43,2.18-23.66-8.7,79.14-31,79.14-31S182.17,317.14,180.27,326.39Z"/><path class="cls-18" d="M166.67,336.72,149,340.39s-.68-15.37.55-17.54,3-5.17,4.62-6.26S165,315.51,165,315.51Z"/><path class="cls-19" d="M189.52,288.72S162,238.13,158,231.33s-7.62-9-7.62-9c-60.11-20.94-113.41,3.81-113.41,3.81-4.35,4.62.27,17.13.27,17.13s12,43.52,16.86,59.83.82,39.16-.27,49,2.45,8.16,2.45,8.16c25-14.69,74.79-5.71,80.5-4.08s11.7-9,11.7-9c-1.63-14.69,2.45-28.83,9.79-25.57s8.43,14.69,8.43,14.69c10.06-10.61,24.21-14.14,24.21-14.14s0-16.32.54-23.39S189.52,288.72,189.52,288.72ZM47.73,246.52s-3.81-9.07-3.81-14.69,9.61-8.16,12.87-4.53,6.71,14.14,6.71,14.14Zm27.79-6.8c-3.08-8-3.44-16.14,2-18.86s15.23-2,16.86,1.27,3.81,16.32,3.81,16.32C93.83,236.45,75.52,239.72,75.52,239.72Zm60.15-6.8-3.44,10.15c-7.43-2.36-21.58-4.71-21.58-4.71s-.36-3.26.55-12,15-6.53,15-6.53C140.74,223.67,135.67,232.92,135.67,232.92Zm14.69,18S152.58,240,156,238s5.5,3.72,4.58,7.72-4.71,10.11-4.71,10.11Zm16.42,4.86c-.81,2.95-4.16,7.47-4.16,7.47l-4.85-3.64s2-8.06,5-9.53S167.58,252.8,166.77,255.75Z"/><path class="cls-20" d="M44.65,269.91s17-10.7,43.15-12.33,54.58,10.7,54.58,10.7l48.77,27.92v-3.63s-35.72-34.27-44.24-40.43-32.82-11.24-54.39-11.06-45.15,8-52.76,13.24Z"/><path class="cls-21" d="M84.72,258.12s6-1.81,6.71,4.71.91,34.63.91,34.63l5.08-.36L96,262.65s-.36-5.08,5.62-5.08C101.58,257.58,90.16,256.31,84.72,258.12Z"/><path class="cls-20" d="M55.16,307.44c-.13-.56-.18-4.17,7.62-6.89s51.31-8,73.25,1.81l24.3,3.81a4.55,4.55,0,0,1,1.81,3.44c0,3.12,0,2.72-.36,13.6,0,0-3.08-5.62-7.43-3.26a9.77,9.77,0,0,0-4.89,6.89l-13.78,5.08s.36.36-2.72-.36-45.51-11.06-76.88,2.54C56.07,334.09,58.24,320.31,55.16,307.44Z"/><path class="cls-21" d="M56.07,310s1.81-3.81,8.16-6.35,26.65-5.26,45.51-3.44,25.93,6.53,25.93,6.53l25.56,1.45a2.71,2.71,0,0,0-2.18-2.36c-2-.36-23-3.44-23-3.44a88.32,88.32,0,0,0-36.44-6c-21,.91-41.16,2.72-45,10.33Z"/><circle class="cls-2" cx="67.22" cy="319.13" r="6.44"/><circle class="cls-2" cx="120.71" cy="319.13" r="6.44"/><path class="cls-20" d="M54.44,348.05a2.41,2.41,0,0,1,.44-.37c1.12-.81,4.77-2.76,15.16-4.16,13.42-1.81,48.23-3.26,66,.54l11.78-3.44.63,7s-3.35,8.43-9.52,9.34c0,0-3.08-.72-9.43-2s-28.29-3.26-40.25-2.54-24.66,3.81-33,8.25c0,0-3.08.82-2.9-3.9"/><path class="cls-20" d="M175.92,287.63l-3.54,35.09-5.17.54-.82,7.21-.82.41,1.09,5.85a45.45,45.45,0,0,1,10.88-8.57,93.6,93.6,0,0,1,13.33-5.57l.82-26.25Z"/><polygon class="cls-21" points="172.38 322.71 175.24 322.85 178.77 289.26 175.92 287.63 172.38 322.71"/><path class="cls-21" d="M180.29,292.57l3.79,1.9-1.32,14s-.16,2.25-1.48,2.59-3-.17-2.47-5.36S180.29,292.57,180.29,292.57Z"/><path class="cls-21" d="M185.92,295.47l3.59,1.66-1.25,12.23s-.16,2-1.41,2.27-2.81-.15-2.34-4.68S185.92,295.47,185.92,295.47Z"/><path class="cls-21" d="M150.49,272.81s1.22,2,.82,6.26-4.08,25-4.08,25l2.45.14,3.94-24.48s1-3.81-.14-5.17Z"/><path class="cls-21" d="M161.64,279.47a5.63,5.63,0,0,1,1,4.08c-.41,2.31-2.27,22.62-2.27,22.62l-2.49-.59,2.45-21.48s.54-4.35-1.36-6.53Z"/><path class="cls-22" d="M150.35,222.76s2.9,2.36,2,8.52-5.44,20.85-5.44,20.85l-2.18-1.81S152.89,233.28,150.35,222.76Z"/><path class="cls-21" d="M170.84,255.22s1.27,6,.72,9.43-.72,6-.72,6l19.76,20.85Z"/><path class="cls-23" d="M131.32,306.94s3.67,3.4,6.66,2.31.68,4.9,1.09,10.88-.41,10.34-1.9,10.74-4.76-.82-5-4.62S131.32,306.94,131.32,306.94Z"/><path class="cls-23" d="M140.56,250.05s5.89,1.45,7.16,4.26-3.35,14.05-3.35,14.05-3.08-1.72-4.44-2.72S141.2,255.22,140.56,250.05Z"/><path class="cls-21" d="M46.82,277.52s-2.9-4,5.26-8.88,28.65-8.52,33.18-8.7l4.53-.18s.18-2.72-5.8-2-29.55,5.62-39.35,12.15Z"/><circle class="cls-21" cx="85.76" cy="347.6" r="2.65"/><circle class="cls-21" cx="103.57" cy="347.19" r="2.52"/><path class="cls-24" d="M61.55,357.93s1.77,6.39,3.13,7.48,18.77-1.63,20.94-3-1.09-9.52-1.09-9.52S71.75,352.63,61.55,357.93Z"/><path class="cls-18" d="M78.28,353.58s1.36,9.66,4.9,9.66,3.54-1.5,2.86-4.22-1.5-6.12-1.5-6.12Z"/><path class="cls-24" d="M150.9,326s6.12-2.58,9.38.55,5.71,21.62,6.12,26.38-1.09,9-7.34,9.52a110.2,110.2,0,0,1-13.46.14s-2.86-6.8-2-8.43,4.89-4.76,4.89-6.53S146.41,332.64,150.9,326Z"/><path class="cls-25" d="M160.28,326.52s-1.9-1.9-3.54,1.9,1,32.36,6.66,32.5"/><path class="cls-18" d="M161.78,335.91a7.94,7.94,0,0,0-1.22-3.81c-1.09-1.36-1.9,2.86-1.22,6.53s2,15.77,3.81,16.86S163.82,350.86,161.78,335.91Z"/><path class="cls-24" d="M79.82,353.49s.18,4.9,1.72,6.07,2.81.09,2.45-1.81S82.81,353,82.81,353Z"/><path class="cls-24" d="M178.5,327.61s-.06,5.73,1.72,8.21,3.69-3.79,1.91-10Z"/><path class="cls-18" d="M181.31,336.31c.09,0-6.33.49-7.12-1a20.83,20.83,0,0,1-1.35-4.49l5.67-3.22S178.37,335.09,181.31,336.31Z"/><path class="cls-24" d="M183.35,325.39s.36,5.53,1.54,6.71,3.72-1.54,2.81-8.61A45.58,45.58,0,0,0,183.35,325.39Z"/><path class="cls-18" d="M179.73,328.83s-.36,2.72.54,3.81,1.68-.32,1.54-2.18S180.36,325.93,179.73,328.83Z"/><path class="cls-18" d="M185.35,325.71s-.82,3.4.32,3.63,1.36-2.67,1.13-3.31S185.62,323.8,185.35,325.71Z"/><path class="cls-21" d="M173.65,308.25l-8.61-.09s-1.63.54-1.45,3.26-.73,11.88-.73,11.88l4.35,0,5-1Z"/><path class="cls-21" d="M96.91,259.34s11.29.14,19.17,2.18,17,4.62,20.4,6.26a6.45,6.45,0,0,1,3.67,6.8c-.27,1.9-4.49,23.25-4.49,23.25l6.39-25.29s.41-2,2.86-.82,6.26,3.4,6.12,6l-.14,2.58s.82-4.49-.41-7.48c0,0-3.4-1.9-9.93-5.3s-33.18-9.38-40.25-10.33A9.25,9.25,0,0,0,96.91,259.34Z"/><path class="cls-21" d="M42.52,263.42s-1.22-6.39.41-8.57S63.59,245.48,79.5,243s33.45-.54,33.45-.54-15.77-3.13-29.51-1.63S46.64,250,39.75,254.31Z"/><path class="cls-21" d="M69,329.51s-10.47,4.08-11.83,6.26-2.18,9.25,0,8.84S70,343.52,70,343.52s-12,3.13-13.1,5.58-1.22,8.43.68,8.43,10.74-2.45,10.74-2.45-7.89,3.81-10.47,5S53,361.2,53,357.26s3.13-23.66,3.13-23.66S64.14,330.87,69,329.51Z"/><path class="cls-26" d="M63.87,313.42s-3,3.08-1.54,6.62,5.26,5.8,8.7,4.44a6.62,6.62,0,0,1-7.71.36C58.79,322.31,59.79,316,63.87,313.42Z"/><path class="cls-26" d="M120.35,312.61a6,6,0,0,0-4.08,5.44c-.18,4.26,2.54,7.89,6.89,7.16,0,0-2.63,1.72-7-1.27S113.91,312.43,120.35,312.61Z"/><path class="cls-21" d="M56.7,329.11a138.44,138.44,0,0,1,32-6.16c17.14-1.09,39.89,3.26,43.88,5.35,0,0-23-4.53-37.26-4.44S56.7,329.11,56.7,329.11Z"/><path class="cls-18" d="M156.88,325.3a5.34,5.34,0,0,0-4.62,3.13c-1.77,3.26-1.9,12.37-1.09,17.41s-.41,5.71-1.9,6.8-.41,9.65,4.49,10.06l-8.16-.14-2.72-8s5.3-4.89,5.58-7.61-1.36-15.5,2.72-21.49A13.2,13.2,0,0,1,156.88,325.3Z"/><path class="cls-18" d="M66.59,356.67a3.47,3.47,0,0,0-1.27,3.9c.91,2.72,2.27,4.71,5.44,4.44,0,0-4.71,1-6.07.41s-3.26-6.75-3.26-6.75A26.46,26.46,0,0,1,66.59,356.67Z"/><path class="cls-16" d="M45.55,274.62s2.9-6.71,17.95-10.88,33.91-7.8,54-2.36,34.9,12.42,44.11,18.09,15.91,9.29,15.91,9.29l1.22.5-2.49,19.26-12,.73-2.54,14-.55-15-25.56-1.45s-9.07-8-30.46-8-34.09,1.63-38.8,2.9-11.78,5.08-11.78,5.08Z"/><polyline class="cls-23" points="97.23 271.58 117.63 292.66 122.25 290.89 101.17 270.23 97.23 271.58"/><polyline class="cls-23" points="113.38 277.91 126.71 291.79 129.73 290.64 115.98 277.16 113.41 278.05"/><polyline class="cls-23" points="53.8 272.13 74.2 293.21 78.82 291.44 57.75 270.77 53.8 272.13"/><polyline class="cls-23" points="69.95 278.45 83.29 292.34 86.3 291.18 72.56 277.7 69.98 278.59"/><path class="cls-27" d="M385.1,298.37s1.63-3-28.56-3.81-65.27-.27-59,2.18,9,6-.27,6.8S254,310.07,263,312s43.79,9.79,29.92,13.87-18,7.89-1.09,7.89,33.45,2.18,55.48,3.54,50-.54,57.11-2.72,10.33-4.9.55-8.16,1.9-9.79,19.58-12.51,24.75-6,23.12-9.25-24.48-4.08-40.25-1.36S389.45,301.36,385.1,298.37Z"/><polygon class="cls-28" points="263.53 182.69 263.35 270.72 282.02 260.66 282.02 196.11 263.53 182.69"/><polygon class="cls-29" points="263.6 182.49 272.85 189.25 272.91 229.16 263.49 234.05 263.6 182.49"/><path class="cls-30" d="M297.12,299.05s-8.57-3.94-6-5.58,9.38-2,18.77-1.9,43.65,1.09,53.44,1.63,21.89,1,24.07,2.58,3,2.72,3.94,3l1,.27s1.9-1-.14-2.31-19-4.76-26.65-5-54.39-1.22-61.33-1.63-5.17-.41-11,.54-8.57,2.31-6.8,3.67S297.12,299.05,297.12,299.05Z"/><path class="cls-30" d="M294.26,297.56s6.26,1.36,4.22,3.54-19.45,3.67-28.42,5.44-14.41,5.71-8.43,8c0,0-5.58-1.09-6.53-3.81s6-4.62,14.14-4.9,22.85-3.13,24.88-4.35S297.53,298.51,294.26,297.56Z"/><path class="cls-30" d="M392.72,297.15s.54,2.31,8,1.77,27.74-.27,36,.14,14.28.68,15.37,3.67c0,0-2-2.31-11.15-2.58s-22.17-.55-32-.14-16.46.54-19-2Z"/><path class="cls-31" d="M212.94,307.44a3.16,3.16,0,0,0,2.54,3.81c3.26.91,4.89,4,4,5.26s-1.09.73,1.09,3.44,9.07,7.43-1.27,11.79-14,8.52-11.42,8.7,9.79-1.45-1.45,3.26-12.33,4.53-25.2,12.33S166,366,163.44,368.36s-9.79,10.52-9.79,10.52-3.63,3.44,1.27,6.53-1.63,1.45,11.6-10,36.44-25.2,57.84-29,29.19-4.53,25.39-6-1.63-2.9-1.27-3.63-9.25-6-7.8-11.6,8-6.16,7.07-9.07,2.36-4.71-7.8-6-11.6-.36-9.79.36S218,308.35,212.94,307.44Z"/><path class="cls-32" d="M169.61,375.43s-4.53,4.53-1.63,5.8,11.06-3.08,18.13-6.71,4.17-8.52,4.17-8.52,3.26,5.08,6.35,3.81,19.4-4.53,21-7.61a6.63,6.63,0,0,0,0-6s2.54,6.16,6.53,4.89,17-4.17,21.76-5.62,1.45-6.35,1.45-6.35,1.81,5.62,8.88,3.81,16.32-2.54,18.13-3.81.18-2.9.18-2.9a11.62,11.62,0,0,0,6.71,1.81c3.44-.36,16.86-3.26,16.86-3.26s-22.85-2.18-23.93-1.45a2.34,2.34,0,0,0-1.09,1.81s.36-1.27-4.71-1.27-23.21.54-22.12,2.9-.55,0-3.63-.18S224,348.6,220,350s-3.26,4.53-3.26,4.53-.18-3.26-5.08-2.18-21.76,8.52-21.76,10-.18-1.45-4.35.73S171.42,372.53,169.61,375.43Z"/><path class="cls-3" d="M102,254.13c-7.49,0-15.14-.69-22.41,1.49a1.09,1.09,0,0,0,.58,2.1c7.08-2.12,14.55-1.45,21.83-1.41A1.09,1.09,0,0,0,102,254.13Z"/><path class="cls-3" d="M104.88,256.13v.36a1.09,1.09,0,0,0,2.18,0v-.36A1.09,1.09,0,0,0,104.88,256.13Z"/><path class="cls-3" d="M55.38,239.27c-1.45-.11-3-1.69-4.07-2.53A17.38,17.38,0,0,0,47.15,234c-1.3-.52-1.86,1.58-.58,2.1,3.12,1.25,5.28,5,8.81,5.3C56.78,241.54,56.77,239.37,55.38,239.27Z"/><path class="cls-3" d="M88.57,232.34a94.47,94.47,0,0,1-8.7-5.44c-1.16-.8-2.25,1.09-1.1,1.88a94.23,94.23,0,0,0,8.7,5.44C88.71,234.88,89.8,233,88.57,232.34Z"/><path class="cls-3" d="M124.51,236.86c-2.51-3-5.1-6-7.62-9.07-.89-1.08-2.42.47-1.54,1.54,2.51,3,5.1,6,7.61,9.07C123.86,239.49,125.39,237.94,124.51,236.86Z"/><path class="cls-3" d="M161.27,341.35a1.09,1.09,0,0,0,0,2.18A1.09,1.09,0,0,0,161.27,341.35Z"/><path class="cls-33" d="M387,131.28c-9.31-8.25-18.16-3.9-24.06,1.34-8.18-8-24.41-4.21-24.41-4.21,10,1.79,16.58,4.77,21,7.62a42,42,0,0,0-3.79,5c2-1.43,4-2.55,5.82-3.62,4.51,3.36,5.94,6.23,5.94,6.23a17.7,17.7,0,0,0-2.35-8.11C379,128.69,387,131.28,387,131.28Z"/><path class="cls-33" d="M430.78,150.25c-6.73-6-13.13-2.82-17.39,1-5.91-5.79-17.64-3-17.64-3,7.23,1.29,12,3.45,15.19,5.51a30.15,30.15,0,0,0-2.74,3.59c1.48-1,2.86-1.84,4.21-2.62a14.72,14.72,0,0,1,4.29,4.5,12.79,12.79,0,0,0-1.7-5.86C425,148.38,430.78,150.25,430.78,150.25Z"/><path class="cls-33" d="M396.77,178.13c-5.71-5.06-11.14-2.4-14.76.82-5-4.91-15-2.58-15-2.58A34.63,34.63,0,0,1,379.93,181a25.77,25.77,0,0,0-2.33,3c1.26-.87,2.43-1.57,3.57-2.22a12.48,12.48,0,0,1,3.64,3.82,10.84,10.84,0,0,0-1.44-5C391.89,176.54,396.77,178.13,396.77,178.13Z"/><path class="cls-33" d="M335.36,156.07c-6.73-6-13.13-2.82-17.39,1-5.92-5.79-17.65-3-17.65-3,7.23,1.3,12,3.45,15.19,5.51a30.23,30.23,0,0,0-2.74,3.59c1.48-1,2.86-1.85,4.21-2.62a14.7,14.7,0,0,1,4.29,4.5,12.79,12.79,0,0,0-1.7-5.86C329.61,154.21,335.36,156.07,335.36,156.07Z"/><path class="cls-34" d="M379.36,258.2a15.59,15.59,0,0,0,15.59,15.59h59.52a15.59,15.59,0,0,0,15.59-15.59h0a15.59,15.59,0,0,0-15.59-15.59H394.95a15.59,15.59,0,0,0-15.59,15.59Z"/><path class="cls-35" d="M384.85,326.16H407.7c7.78,0,13.9-2.45,18.21-7.26,8.05-9,6.58-23,6.51-23.59l0-21.52h-4.83v21.79c0,.39,1.31,12.74-5.31,20.12-3.35,3.74-8.26,5.63-14.6,5.63H384.85Z"/><path class="cls-35" d="M383,381h4.82V310.17H370c-4.29,0-7.42-1.07-9.3-3.18a9.77,9.77,0,0,1-2.12-6.87l-4.78-.58A14.54,14.54,0,0,0,357,310.15c2.84,3.22,7.19,4.85,12.95,4.85h13Z"/><path class="cls-35" d="M390.16,288.25h40v-4.82h-40c-4.44,0-7.79-1.29-10-3.82-4.31-5-3.07-13.5-3.06-13.59l0-24.82h-4.83v24.45c0,.06-1.58,10.34,4.17,17.07C379.64,286.38,384.24,288.25,390.16,288.25Z"/><path class="cls-34" d="M341.11,228.29c.12,7.68,5.42,13.83,11.84,13.73l44.38-.7c6.42-.1,11.52-6.41,11.4-14.09h0c-.12-7.68-5.42-13.83-11.84-13.73l-44.38.7c-6.42.1-11.52,6.41-11.4,14.09Z"/><path class="cls-34" d="M333.12,288.85a11.69,11.69,0,0,0,11.69,11.69h44.64a11.69,11.69,0,0,0,11.69-11.69h0a11.69,11.69,0,0,0-11.69-11.69H344.81a11.69,11.69,0,0,0-11.69,11.69Z"/><path class="cls-36" d="M341.31,284.71a4.57,4.57,0,0,0,4.57,4.57h17.44a4.57,4.57,0,0,0,4.57-4.57h0a4.57,4.57,0,0,0-4.57-4.57H345.88a4.57,4.57,0,0,0-4.57,4.57Z"/><path class="cls-36" d="M363.63,221.29a4.57,4.57,0,0,0,4.57,4.57h17.44a4.57,4.57,0,0,0,4.57-4.57h0a4.57,4.57,0,0,0-4.57-4.57H368.2a4.57,4.57,0,0,0-4.57,4.57Z"/><path class="cls-36" d="M435.56,252.12a4.57,4.57,0,0,0,4.57,4.57h17.44a4.57,4.57,0,0,0,4.57-4.57h0a4.57,4.57,0,0,0-4.57-4.57H440.12a4.57,4.57,0,0,0-4.57,4.57Z"/><path class="cls-34" d="M319.61,321.2a7.86,7.86,0,0,0,7.86,7.86h30a7.86,7.86,0,0,0,7.86-7.86h0a7.86,7.86,0,0,0-7.86-7.86h-30a7.86,7.86,0,0,0-7.86,7.86Z"/><path class="cls-35" d="M322.38,355.47H333.9c3.92,0,7-1.23,9.18-3.66,4.06-4.54,3.32-11.59,3.28-11.89V329.06h-2.43v11c0,.2.66,6.42-2.68,10.15-1.69,1.88-4.16,2.84-7.36,2.84H322.38Z"/><path class="cls-35" d="M321.43,383.14h2.43V347.41h-9c-2.16,0-3.74-.54-4.69-1.6a4.91,4.91,0,0,1-1.07-3.47L306.7,342a7.33,7.33,0,0,0,1.64,5.35c1.43,1.62,3.63,2.45,6.53,2.45h6.56Z"/><path class="cls-35" d="M325.06,336.35h20.19v-2.43H325.06a6.29,6.29,0,0,1-5-1.93c-2.18-2.54-1.55-6.81-1.54-6.85V312.63h-2.43V325s-.8,5.21,2.1,8.61A8.59,8.59,0,0,0,325.06,336.35Z"/><path class="cls-34" d="M300.33,306.12c.06,3.87,2.73,7,6,6.92l22.38-.35c3.24-.05,5.81-3.23,5.75-7.11h0c-.06-3.87-2.74-7-6-6.92l-22.38.35c-3.24.05-5.81,3.23-5.75,7.11Z"/><path class="cls-34" d="M296.3,336.65a5.9,5.9,0,0,0,5.89,5.9H324.7a5.9,5.9,0,0,0,5.89-5.9h0a5.89,5.89,0,0,0-5.89-5.89H302.19a5.89,5.89,0,0,0-5.89,5.89Z"/><path class="cls-36" d="M300.43,334.57a2.3,2.3,0,0,0,2.3,2.3h8.79a2.3,2.3,0,0,0,2.3-2.3h0a2.3,2.3,0,0,0-2.3-2.3h-8.79a2.3,2.3,0,0,0-2.3,2.3Z"/><path class="cls-36" d="M311.68,302.59a2.3,2.3,0,0,0,2.3,2.3h8.79a2.3,2.3,0,0,0,2.3-2.3h0a2.3,2.3,0,0,0-2.3-2.3H314a2.3,2.3,0,0,0-2.3,2.3Z"/><path class="cls-36" d="M347.94,318.14a2.3,2.3,0,0,0,2.3,2.3H359a2.3,2.3,0,0,0,2.3-2.3h0a2.3,2.3,0,0,0-2.3-2.3h-8.79a2.3,2.3,0,0,0-2.3,2.3Z"/></svg>