<svg id="Layer_1" data-name="Layer 1" xmlns="http://www.w3.org/2000/svg" viewBox="0 0 500 500"><defs><style>.cls-1{fill:#75e4ea;opacity:0.5;}.cls-2{fill:#fff;}.cls-3{fill:#545050;}.cls-4{fill:#284a67;}.cls-5{fill:#d4c5c1;}.cls-6{fill:#e8dcd6;}.cls-7{fill:#b7a6a3;}.cls-8{fill:#e2d1c7;}.cls-9{fill:#476168;}.cls-10{fill:#5b7075;}.cls-11{fill:#2e3435;}.cls-12{fill:#384c51;}.cls-13{fill:#32474c;}.cls-14{fill:#424647;}.cls-15{fill:#a09290;}.cls-16{fill:#283a3d;}.cls-17{fill:#b1a3a0;}.cls-18{fill:#d9e1e2;}.cls-19{fill:#2b2d2d;}.cls-20{fill:#545656;}.cls-21{fill:#2a773e;}.cls-22{fill:#34492c;}.cls-23{fill:#602c08;}.cls-24{fill:#51843c;}.cls-25{fill:#231e1c;}</style></defs><title>Artboard 1</title><path class="cls-1" d="M33.7,354.59c0-119.36,96.76-216.12,216.12-216.12s216.12,96.76,216.12,216.12"/><path class="cls-2" d="M193.05,195.82a6.39,6.39,0,0,1-6.39,6.39H131.5a6.39,6.39,0,0,1-6.39-6.39h0a6.39,6.39,0,0,1,6.39-6.39h55.16a6.39,6.39,0,0,1,6.39,6.39Z"/><path class="cls-2" d="M259.43,179.67a6.39,6.39,0,0,1-6.39,6.39H197.88a6.39,6.39,0,0,1-6.39-6.39h0a6.39,6.39,0,0,1,6.39-6.39H253a6.39,6.39,0,0,1,6.39,6.39Z"/><path class="cls-2" d="M185.57,180a6.07,6.07,0,0,1-6.07,6.07H159A6.07,6.07,0,0,1,153,180h0A6.07,6.07,0,0,1,159,174H179.5a6.07,6.07,0,0,1,6.07,6.07Z"/><g id="Great_Mosque_Meda" data-name="Great Mosque Meda"><rect class="cls-3" x="125.74" y="215.11" width="1.4" height="19.24"/><path class="cls-4" d="M152.54,261H100.6v-5.46a26,26,0,0,1,26-26h0a26,26,0,0,1,26,26Z"/><rect class="cls-5" x="100.6" y="261.04" width="51.69" height="69"/><rect class="cls-6" x="100.6" y="261.04" width="14.18" height="69"/><rect class="cls-6" x="138.37" y="261.04" width="14.18" height="69"/><rect class="cls-7" x="100.6" y="261.04" width="51.94" height="5.1"/><rect class="cls-8" x="100.6" y="287.51" width="51.69" height="42.53"/><rect class="cls-6" x="100.6" y="287.51" width="14.18" height="42.53"/><rect class="cls-6" x="138.11" y="287.51" width="14.18" height="42.53"/><rect class="cls-7" x="100.6" y="287.51" width="51.69" height="3.14"/><rect class="cls-9" x="103.49" y="296.5" width="8.4" height="26.5"/><rect class="cls-9" x="141" y="296.5" width="8.4" height="26.5"/><rect class="cls-10" x="103.49" y="296.5" width="8.4" height="3.53"/><rect class="cls-10" x="141" y="296.5" width="8.4" height="3.53"/><rect class="cls-9" x="117.25" y="296.5" width="18.38" height="26.5"/><path class="cls-8" d="M126,302.72h1.14a6.72,6.72,0,0,1,6.72,6.72V330a0,0,0,0,1,0,0H119.28a0,0,0,0,1,0,0v-20.6A6.72,6.72,0,0,1,126,302.72Z"/><path class="cls-11" d="M126,329.42h-5V311.28a2.5,2.5,0,0,1,2.5-2.5h0a2.5,2.5,0,0,1,2.5,2.5Z"/><path class="cls-11" d="M129.65,308.78h0a2.5,2.5,0,0,1,2.5,2.5v18.14a0,0,0,0,1,0,0h-5a0,0,0,0,1,0,0V311.28a2.5,2.5,0,0,1,2.5-2.5Z"/><circle class="cls-11" cx="126.44" cy="306.74" r="1.29"/><rect class="cls-9" x="102.69" y="270.69" width="9.21" height="9.44"/><rect class="cls-9" x="140.6" y="270.69" width="9.21" height="9.44"/><rect class="cls-9" x="117.37" y="270.69" width="18.27" height="9.44"/><rect class="cls-12" x="102.69" y="275.41" width="9.21" height="4.72"/><rect class="cls-12" x="140.6" y="275.41" width="9.21" height="4.72"/><rect class="cls-12" x="117.37" y="275.41" width="18.27" height="4.72"/><rect class="cls-6" x="100.6" y="252.08" width="51.94" height="8.96"/><path class="cls-3" d="M104.09,259.27h-2.15v-3.59A1.08,1.08,0,0,1,103,254.6h0a1.08,1.08,0,0,1,1.08,1.08Z"/><path class="cls-3" d="M108,259.27h-2.15v-3.59a1.08,1.08,0,0,1,1.08-1.08h0a1.08,1.08,0,0,1,1.08,1.08Z"/><path class="cls-3" d="M111.94,259.27h-2.15v-3.59a1.08,1.08,0,0,1,1.08-1.08h0a1.08,1.08,0,0,1,1.08,1.08Z"/><path class="cls-3" d="M115.87,259.27h-2.15v-3.59a1.08,1.08,0,0,1,1.08-1.08h0a1.08,1.08,0,0,1,1.08,1.08Z"/><path class="cls-3" d="M119.79,259.27h-2.15v-3.59a1.08,1.08,0,0,1,1.08-1.08h0a1.08,1.08,0,0,1,1.08,1.08Z"/><path class="cls-3" d="M123.72,259.27h-2.15v-3.59a1.08,1.08,0,0,1,1.08-1.08h0a1.08,1.08,0,0,1,1.08,1.08Z"/><path class="cls-3" d="M127.65,259.27h-2.15v-3.59a1.08,1.08,0,0,1,1.08-1.08h0a1.08,1.08,0,0,1,1.08,1.08Z"/><path class="cls-3" d="M131.58,259.27h-2.15v-3.59a1.08,1.08,0,0,1,1.08-1.08h0a1.08,1.08,0,0,1,1.08,1.08Z"/><path class="cls-3" d="M135.5,259.27h-2.15v-3.59a1.08,1.08,0,0,1,1.08-1.08h0a1.08,1.08,0,0,1,1.08,1.08Z"/><path class="cls-3" d="M139.43,259.27h-2.15v-3.59a1.08,1.08,0,0,1,1.08-1.08h0a1.08,1.08,0,0,1,1.08,1.08Z"/><path class="cls-3" d="M143.36,259.27H141.2v-3.59a1.08,1.08,0,0,1,1.08-1.08h0a1.08,1.08,0,0,1,1.08,1.08Z"/><path class="cls-3" d="M147.28,259.27h-2.15v-3.59a1.08,1.08,0,0,1,1.08-1.08h0a1.08,1.08,0,0,1,1.08,1.08Z"/><path class="cls-3" d="M151.21,259.27h-2.15v-3.59a1.08,1.08,0,0,1,1.08-1.08h0a1.08,1.08,0,0,1,1.08,1.08Z"/><rect class="cls-7" x="100.6" y="330.05" width="51.94" height="1.88"/><rect class="cls-7" x="100.6" y="341.08" width="51.94" height="1.88"/><rect class="cls-6" x="100.6" y="331.93" width="51.94" height="9.16"/><rect class="cls-9" x="104.05" y="333.3" width="7.84" height="5.82"/><rect class="cls-9" x="141.28" y="333.3" width="7.84" height="5.82"/><rect class="cls-9" x="117.07" y="333.3" width="18.57" height="5.82"/><rect class="cls-13" x="104.05" y="335.09" width="7.84" height="4.03"/><rect class="cls-13" x="141.28" y="335.09" width="7.84" height="4.03"/><rect class="cls-13" x="117.07" y="335.09" width="18.57" height="4.03"/><rect class="cls-8" x="152.29" y="330.05" width="66.34" height="12.75"/><rect class="cls-7" x="152.29" y="341.08" width="66.34" height="1.88"/><rect class="cls-7" x="152.29" y="330.05" width="66.34" height="1.88"/><rect class="cls-6" x="152.54" y="286.57" width="66.12" height="43.47"/><rect class="cls-8" x="152.54" y="286.57" width="30.95" height="43.47"/><rect class="cls-9" x="156.68" y="295.56" width="58.8" height="14.85"/><rect class="cls-10" x="156.68" y="295.56" width="58.8" height="3.53"/><rect class="cls-11" x="156.68" y="315.45" width="6.58" height="14.6"/><rect class="cls-11" x="165.39" y="315.45" width="6.58" height="14.6"/><rect class="cls-11" x="174.09" y="315.45" width="6.58" height="14.6"/><rect class="cls-11" x="182.79" y="315.45" width="6.58" height="14.6"/><rect class="cls-11" x="191.5" y="315.45" width="6.58" height="14.6"/><rect class="cls-11" x="200.2" y="315.45" width="6.58" height="14.6"/><rect class="cls-11" x="208.9" y="315.45" width="6.58" height="14.6"/><rect class="cls-14" x="156.68" y="315.45" width="6.58" height="5.16"/><rect class="cls-14" x="165.39" y="315.45" width="6.58" height="5.16"/><rect class="cls-14" x="174.09" y="315.45" width="6.58" height="5.16"/><rect class="cls-14" x="182.79" y="315.45" width="6.58" height="5.16"/><rect class="cls-14" x="191.5" y="315.45" width="6.58" height="5.16"/><rect class="cls-14" x="200.2" y="315.45" width="6.58" height="5.16"/><rect class="cls-14" x="208.9" y="315.45" width="6.58" height="5.16"/><path class="cls-11" d="M163.26,314h-6.58v-3.82a3.29,3.29,0,0,1,3.29-3.29h0a3.29,3.29,0,0,1,3.29,3.29Z"/><path class="cls-11" d="M172,314h-6.58v-3.82a3.29,3.29,0,0,1,3.29-3.29h0a3.29,3.29,0,0,1,3.29,3.29Z"/><path class="cls-11" d="M180.67,314h-6.58v-3.82a3.29,3.29,0,0,1,3.29-3.29h0a3.29,3.29,0,0,1,3.29,3.29Z"/><path class="cls-11" d="M186.08,306.85h0a3.29,3.29,0,0,1,3.29,3.29V314a0,0,0,0,1,0,0h-6.58a0,0,0,0,1,0,0v-3.82A3.29,3.29,0,0,1,186.08,306.85Z"/><path class="cls-11" d="M198.08,314H191.5v-3.82a3.29,3.29,0,0,1,3.29-3.29h0a3.29,3.29,0,0,1,3.29,3.29Z"/><path class="cls-11" d="M206.78,314H200.2v-3.82a3.29,3.29,0,0,1,3.29-3.29h0a3.29,3.29,0,0,1,3.29,3.29Z"/><path class="cls-11" d="M215.49,314H208.9v-3.82a3.29,3.29,0,0,1,3.29-3.29h0a3.29,3.29,0,0,1,3.29,3.29Z"/><rect class="cls-9" x="156.68" y="289.95" width="5.94" height="3.89"/><rect class="cls-9" x="165.49" y="289.95" width="5.94" height="3.89"/><rect class="cls-9" x="174.3" y="289.95" width="5.94" height="3.89"/><rect class="cls-9" x="183.11" y="289.95" width="5.94" height="3.89"/><rect class="cls-9" x="191.93" y="289.95" width="5.94" height="3.89"/><rect class="cls-9" x="200.74" y="289.95" width="5.94" height="3.89"/><rect class="cls-9" x="209.55" y="289.95" width="5.94" height="3.89"/><rect class="cls-6" x="152.54" y="266.14" width="66.12" height="20.44"/><rect class="cls-5" x="152.54" y="266.14" width="66.12" height="4.55"/><rect class="cls-7" x="152.54" y="266.14" width="66.12" height="2.28"/><rect class="cls-15" x="152.54" y="280.13" width="66.12" height="6.44"/><rect class="cls-9" x="154.94" y="273.93" width="7.92" height="2.97"/><rect class="cls-9" x="165.07" y="273.93" width="7.92" height="2.97"/><rect class="cls-9" x="175.19" y="273.93" width="7.92" height="2.97"/><rect class="cls-9" x="185.31" y="273.93" width="7.92" height="2.97"/><rect class="cls-9" x="195.43" y="273.93" width="7.92" height="2.97"/><rect class="cls-9" x="205.55" y="273.93" width="7.92" height="2.97"/><rect class="cls-4" x="152.54" y="258.8" width="66.12" height="7.33"/><rect class="cls-13" x="156.68" y="333.3" width="10.08" height="5.82"/><rect class="cls-16" x="156.68" y="336.21" width="10.08" height="2.91"/><rect class="cls-13" x="168.86" y="333.3" width="10.08" height="5.82"/><rect class="cls-16" x="168.86" y="336.21" width="10.08" height="2.91"/><rect class="cls-13" x="181.04" y="333.3" width="10.08" height="5.82"/><rect class="cls-16" x="181.04" y="336.21" width="10.08" height="2.91"/><rect class="cls-13" x="193.22" y="333.3" width="10.08" height="5.82"/><rect class="cls-16" x="193.22" y="336.21" width="10.08" height="2.91"/><rect class="cls-13" x="205.4" y="333.3" width="10.08" height="5.82"/><rect class="cls-16" x="205.4" y="336.21" width="10.08" height="2.91"/><rect class="cls-3" x="374.33" y="215.11" width="1.4" height="19.24" transform="translate(750.07 449.46) rotate(180)"/><path class="cls-4" d="M348.94,261h51.94v-5.46a26,26,0,0,0-26-26h0a26,26,0,0,0-26,26Z"/><rect class="cls-5" x="349.19" y="261.04" width="51.69" height="69" transform="translate(750.07 591.09) rotate(180)"/><rect class="cls-6" x="386.7" y="261.04" width="14.18" height="69" transform="translate(787.58 591.09) rotate(180)"/><rect class="cls-6" x="348.94" y="261.04" width="14.18" height="69" transform="translate(712.06 591.09) rotate(180)"/><rect class="cls-7" x="348.94" y="261.04" width="51.94" height="5.1" transform="translate(749.82 527.18) rotate(180)"/><rect class="cls-8" x="349.19" y="287.51" width="51.69" height="42.53" transform="translate(750.07 617.56) rotate(180)"/><rect class="cls-6" x="386.7" y="287.51" width="14.18" height="42.53" transform="translate(787.58 617.56) rotate(180)"/><rect class="cls-6" x="349.19" y="287.51" width="14.18" height="42.53" transform="translate(712.57 617.56) rotate(180)"/><rect class="cls-7" x="349.19" y="287.51" width="51.69" height="3.14" transform="translate(750.07 578.17) rotate(180)"/><rect class="cls-9" x="389.59" y="296.5" width="8.4" height="26.5" transform="translate(787.58 619.5) rotate(180)"/><rect class="cls-9" x="352.08" y="296.5" width="8.4" height="26.5" transform="translate(712.57 619.5) rotate(180)"/><rect class="cls-10" x="389.59" y="296.5" width="8.4" height="3.53" transform="translate(787.58 596.53) rotate(180)"/><rect class="cls-10" x="352.08" y="296.5" width="8.4" height="3.53" transform="translate(712.57 596.53) rotate(180)"/><rect class="cls-9" x="365.85" y="296.5" width="18.38" height="26.5" transform="translate(750.07 619.5) rotate(180)"/><path class="cls-8" d="M367.62,302.72H382.2a0,0,0,0,1,0,0v20.6a6.72,6.72,0,0,1-6.72,6.72h-1.14a6.72,6.72,0,0,1-6.72-6.72v-20.6A0,0,0,0,1,367.62,302.72Z" transform="translate(749.82 632.77) rotate(180)"/><path class="cls-11" d="M375.48,329.42h5V311.28a2.5,2.5,0,0,0-2.5-2.5h0a2.5,2.5,0,0,0-2.5,2.5Z"/><path class="cls-11" d="M369.33,329.42h5V311.28a2.5,2.5,0,0,0-2.5-2.5h0a2.5,2.5,0,0,0-2.5,2.5Z"/><circle class="cls-11" cx="375.04" cy="306.74" r="1.29"/><rect class="cls-9" x="389.59" y="270.69" width="9.21" height="9.44" transform="translate(788.39 550.83) rotate(180)"/><rect class="cls-9" x="351.68" y="270.69" width="9.21" height="9.44" transform="translate(712.57 550.83) rotate(180)"/><rect class="cls-9" x="365.85" y="270.69" width="18.27" height="9.44" transform="translate(749.96 550.83) rotate(180)"/><rect class="cls-12" x="389.59" y="275.41" width="9.21" height="4.72" transform="translate(788.39 555.55) rotate(180)"/><rect class="cls-12" x="351.68" y="275.41" width="9.21" height="4.72" transform="translate(712.57 555.55) rotate(180)"/><rect class="cls-12" x="365.85" y="275.41" width="18.27" height="4.72" transform="translate(749.96 555.55) rotate(180)"/><rect class="cls-6" x="348.94" y="252.08" width="51.94" height="8.96" transform="translate(749.82 513.13) rotate(180)"/><path class="cls-3" d="M397.4,259.27h2.15v-3.59a1.08,1.08,0,0,0-1.08-1.08h0a1.08,1.08,0,0,0-1.08,1.08Z"/><path class="cls-3" d="M393.47,259.27h2.15v-3.59a1.08,1.08,0,0,0-1.08-1.08h0a1.08,1.08,0,0,0-1.08,1.08Z"/><path class="cls-3" d="M389.54,259.27h2.15v-3.59a1.08,1.08,0,0,0-1.08-1.08h0a1.08,1.08,0,0,0-1.08,1.08Z"/><path class="cls-3" d="M385.61,259.27h2.15v-3.59a1.08,1.08,0,0,0-1.08-1.08h0a1.08,1.08,0,0,0-1.08,1.08Z"/><path class="cls-3" d="M381.69,259.27h2.15v-3.59a1.08,1.08,0,0,0-1.08-1.08h0a1.08,1.08,0,0,0-1.08,1.08Z"/><path class="cls-3" d="M377.76,259.27h2.15v-3.59a1.08,1.08,0,0,0-1.08-1.08h0a1.08,1.08,0,0,0-1.08,1.08Z"/><path class="cls-3" d="M373.83,259.27H376v-3.59a1.08,1.08,0,0,0-1.08-1.08h0a1.08,1.08,0,0,0-1.08,1.08Z"/><path class="cls-3" d="M369.9,259.27h2.15v-3.59A1.08,1.08,0,0,0,371,254.6h0a1.08,1.08,0,0,0-1.08,1.08Z"/><path class="cls-3" d="M366,259.27h2.15v-3.59a1.08,1.08,0,0,0-1.08-1.08h0a1.08,1.08,0,0,0-1.08,1.08Z"/><path class="cls-3" d="M362.05,259.27h2.15v-3.59a1.08,1.08,0,0,0-1.08-1.08h0a1.08,1.08,0,0,0-1.08,1.08Z"/><path class="cls-3" d="M358.12,259.27h2.15v-3.59a1.08,1.08,0,0,0-1.08-1.08h0a1.08,1.08,0,0,0-1.08,1.08Z"/><path class="cls-3" d="M354.2,259.27h2.15v-3.59a1.08,1.08,0,0,0-1.08-1.08h0a1.08,1.08,0,0,0-1.08,1.08Z"/><path class="cls-3" d="M350.27,259.27h2.15v-3.59a1.08,1.08,0,0,0-1.08-1.08h0a1.08,1.08,0,0,0-1.08,1.08Z"/><rect class="cls-7" x="348.94" y="330.05" width="51.94" height="1.88" transform="translate(749.82 661.97) rotate(180)"/><rect class="cls-7" x="348.94" y="341.08" width="51.94" height="1.88" transform="translate(749.82 684.04) rotate(180)"/><rect class="cls-6" x="348.94" y="331.93" width="51.94" height="9.16" transform="translate(749.82 673.01) rotate(180)"/><rect class="cls-9" x="389.59" y="333.3" width="7.84" height="5.82" transform="translate(787.02 672.42) rotate(180)"/><rect class="cls-9" x="352.36" y="333.3" width="7.84" height="5.82" transform="translate(712.57 672.42) rotate(180)"/><rect class="cls-9" x="365.85" y="333.3" width="18.57" height="5.82" transform="translate(750.26 672.42) rotate(180)"/><rect class="cls-13" x="389.59" y="335.09" width="7.84" height="4.03" transform="translate(787.02 674.21) rotate(180)"/><rect class="cls-13" x="352.36" y="335.09" width="7.84" height="4.03" transform="translate(712.57 674.21) rotate(180)"/><rect class="cls-13" x="365.85" y="335.09" width="18.57" height="4.03" transform="translate(750.26 674.21) rotate(180)"/><rect class="cls-8" x="282.85" y="330.05" width="66.34" height="12.75" transform="translate(632.05 672.84) rotate(180)"/><rect class="cls-7" x="282.85" y="341.08" width="66.34" height="1.88" transform="translate(632.05 684.04) rotate(180)"/><rect class="cls-7" x="282.85" y="330.05" width="66.34" height="1.88" transform="translate(632.05 661.97) rotate(180)"/><rect class="cls-6" x="282.82" y="286.57" width="66.12" height="43.47" transform="translate(631.76 616.62) rotate(180)"/><rect class="cls-8" x="317.99" y="286.57" width="30.95" height="43.47" transform="translate(666.93 616.62) rotate(180)"/><rect class="cls-9" x="286" y="295.56" width="58.8" height="14.85" transform="translate(630.79 605.97) rotate(180)"/><rect class="cls-10" x="286" y="295.56" width="58.8" height="3.53" transform="translate(630.79 594.65) rotate(180)"/><rect class="cls-11" x="338.22" y="315.45" width="6.58" height="14.6" transform="translate(683.02 645.49) rotate(180)"/><rect class="cls-11" x="329.51" y="315.45" width="6.58" height="14.6" transform="translate(665.61 645.49) rotate(180)"/><rect class="cls-11" x="320.81" y="315.45" width="6.58" height="14.6" transform="translate(648.2 645.49) rotate(180)"/><rect class="cls-11" x="312.11" y="315.45" width="6.58" height="14.6" transform="translate(630.79 645.49) rotate(180)"/><rect class="cls-11" x="303.4" y="315.45" width="6.58" height="14.6" transform="translate(613.39 645.49) rotate(180)"/><rect class="cls-11" x="294.7" y="315.45" width="6.58" height="14.6" transform="translate(595.98 645.49) rotate(180)"/><rect class="cls-11" x="286" y="315.45" width="6.58" height="14.6" transform="translate(578.57 645.49) rotate(180)"/><rect class="cls-14" x="338.22" y="315.45" width="6.58" height="5.16" transform="translate(683.02 636.05) rotate(180)"/><rect class="cls-14" x="329.51" y="315.45" width="6.58" height="5.16" transform="translate(665.61 636.05) rotate(180)"/><rect class="cls-14" x="320.81" y="315.45" width="6.58" height="5.16" transform="translate(648.2 636.05) rotate(180)"/><rect class="cls-14" x="312.11" y="315.45" width="6.58" height="5.16" transform="translate(630.79 636.05) rotate(180)"/><rect class="cls-14" x="303.4" y="315.45" width="6.58" height="5.16" transform="translate(613.39 636.05) rotate(180)"/><rect class="cls-14" x="294.7" y="315.45" width="6.58" height="5.16" transform="translate(595.98 636.05) rotate(180)"/><rect class="cls-14" x="286" y="315.45" width="6.58" height="5.16" transform="translate(578.57 636.05) rotate(180)"/><path class="cls-11" d="M338.22,314h6.58v-3.82a3.29,3.29,0,0,0-3.29-3.29h0a3.29,3.29,0,0,0-3.29,3.29Z"/><path class="cls-11" d="M329.51,314h6.58v-3.82a3.29,3.29,0,0,0-3.29-3.29h0a3.29,3.29,0,0,0-3.29,3.29Z"/><path class="cls-11" d="M320.81,314h6.58v-3.82a3.29,3.29,0,0,0-3.29-3.29h0a3.29,3.29,0,0,0-3.29,3.29Z"/><path class="cls-11" d="M312.11,314h6.58v-3.82a3.29,3.29,0,0,0-3.29-3.29h0a3.29,3.29,0,0,0-3.29,3.29Z"/><path class="cls-11" d="M303.4,314H310v-3.82a3.29,3.29,0,0,0-3.29-3.29h0a3.29,3.29,0,0,0-3.29,3.29Z"/><path class="cls-11" d="M294.7,314h6.58v-3.82a3.29,3.29,0,0,0-3.29-3.29h0a3.29,3.29,0,0,0-3.29,3.29Z"/><path class="cls-11" d="M286,314h6.58v-3.82a3.29,3.29,0,0,0-3.29-3.29h0a3.29,3.29,0,0,0-3.29,3.29Z"/><rect class="cls-9" x="338.86" y="289.95" width="5.94" height="3.89" transform="translate(683.66 583.78) rotate(180)"/><rect class="cls-9" x="330.05" y="289.95" width="5.94" height="3.89" transform="translate(666.04 583.78) rotate(180)"/><rect class="cls-9" x="321.24" y="289.95" width="5.94" height="3.89" transform="translate(648.42 583.78) rotate(180)"/><rect class="cls-9" x="312.43" y="289.95" width="5.94" height="3.89" transform="translate(630.79 583.78) rotate(180)"/><rect class="cls-9" x="303.62" y="289.95" width="5.94" height="3.89" transform="translate(613.17 583.78) rotate(180)"/><rect class="cls-9" x="294.81" y="289.95" width="5.94" height="3.89" transform="translate(595.55 583.78) rotate(180)"/><rect class="cls-9" x="286" y="289.95" width="5.94" height="3.89" transform="translate(577.93 583.78) rotate(180)"/><rect class="cls-6" x="282.82" y="266.14" width="66.12" height="20.44" transform="translate(631.76 552.71) rotate(180)"/><rect class="cls-5" x="282.82" y="266.14" width="66.12" height="4.55" transform="translate(631.76 536.83) rotate(180)"/><rect class="cls-7" x="282.82" y="266.14" width="66.12" height="2.28" transform="translate(631.76 534.55) rotate(180)"/><rect class="cls-15" x="282.82" y="280.13" width="66.12" height="6.44" transform="translate(631.76 566.71) rotate(180)"/><rect class="cls-9" x="338.62" y="273.93" width="7.92" height="2.97" transform="translate(685.16 550.83) rotate(180)"/><rect class="cls-9" x="328.5" y="273.93" width="7.92" height="2.97" transform="translate(664.91 550.83) rotate(180)"/><rect class="cls-9" x="318.38" y="273.93" width="7.92" height="2.97" transform="translate(644.67 550.83) rotate(180)"/><rect class="cls-9" x="308.25" y="273.93" width="7.92" height="2.97" transform="translate(624.43 550.83) rotate(180)"/><rect class="cls-9" x="298.13" y="273.93" width="7.92" height="2.97" transform="translate(604.18 550.83) rotate(180)"/><rect class="cls-9" x="288.01" y="273.93" width="7.92" height="2.97" transform="translate(583.94 550.83) rotate(180)"/><rect class="cls-4" x="282.82" y="258.8" width="66.12" height="7.33" transform="translate(631.76 524.94) rotate(180)"/><rect class="cls-13" x="334.72" y="333.3" width="10.08" height="5.82" transform="translate(679.51 672.42) rotate(180)"/><rect class="cls-16" x="334.72" y="336.21" width="10.08" height="2.91" transform="translate(679.51 675.33) rotate(180)"/><rect class="cls-13" x="322.54" y="333.3" width="10.08" height="5.82" transform="translate(655.15 672.42) rotate(180)"/><rect class="cls-16" x="322.54" y="336.21" width="10.08" height="2.91" transform="translate(655.15 675.33) rotate(180)"/><rect class="cls-13" x="310.36" y="333.3" width="10.08" height="5.82" transform="translate(630.79 672.42) rotate(180)"/><rect class="cls-16" x="310.36" y="336.21" width="10.08" height="2.91" transform="translate(630.79 675.33) rotate(180)"/><rect class="cls-13" x="298.18" y="333.3" width="10.08" height="5.82" transform="translate(606.43 672.42) rotate(180)"/><rect class="cls-16" x="298.18" y="336.21" width="10.08" height="2.91" transform="translate(606.43 675.33) rotate(180)"/><rect class="cls-13" x="286" y="333.3" width="10.08" height="5.82" transform="translate(582.07 672.42) rotate(180)"/><rect class="cls-16" x="286" y="336.21" width="10.08" height="2.91" transform="translate(582.07 675.33) rotate(180)"/><rect class="cls-3" x="250.23" y="179.02" width="1.93" height="26.43"/><path class="cls-4" d="M287,242.1H215.7v-7.5a35.66,35.66,0,0,1,35.66-35.66h0A35.66,35.66,0,0,1,287,234.61Z"/><rect class="cls-5" x="215.7" y="242.1" width="70.98" height="94.76"/><rect class="cls-6" x="215.7" y="242.1" width="19.47" height="94.76"/><rect class="cls-6" x="267.56" y="242.1" width="19.47" height="94.76"/><rect class="cls-7" x="215.7" y="242.1" width="71.33" height="7"/><rect class="cls-8" x="215.7" y="278.45" width="70.98" height="58.41"/><rect class="cls-6" x="215.7" y="278.45" width="19.47" height="58.41"/><rect class="cls-6" x="267.21" y="278.45" width="19.47" height="58.41"/><rect class="cls-7" x="215.7" y="278.45" width="70.98" height="4.31"/><rect class="cls-9" x="219.67" y="290.79" width="11.54" height="36.39"/><rect class="cls-9" x="271.17" y="290.79" width="11.54" height="36.39"/><rect class="cls-10" x="219.67" y="290.79" width="11.54" height="4.85"/><rect class="cls-10" x="271.17" y="290.79" width="11.54" height="4.85"/><rect class="cls-17" x="238.57" y="290.79" width="25.24" height="36.39"/><rect class="cls-18" x="240.4" y="292.84" width="21.57" height="16.15"/><path class="cls-19" d="M250.58,299.34h1.56a9.23,9.23,0,0,1,9.23,9.23v28.29a0,0,0,0,1,0,0h-20a0,0,0,0,1,0,0V308.57A9.23,9.23,0,0,1,250.58,299.34Z"/><rect class="cls-9" x="218.56" y="255.35" width="12.64" height="12.97"/><rect class="cls-9" x="270.62" y="255.35" width="12.64" height="12.97"/><rect class="cls-9" x="238.72" y="255.35" width="25.09" height="12.97"/><rect class="cls-12" x="218.56" y="261.84" width="12.64" height="6.48"/><rect class="cls-12" x="270.62" y="261.84" width="12.64" height="6.48"/><rect class="cls-12" x="238.72" y="261.84" width="25.09" height="6.48"/><rect class="cls-6" x="215.7" y="229.8" width="71.33" height="12.31"/><path class="cls-3" d="M220.49,239.67h-3v-4.94a1.48,1.48,0,0,1,1.48-1.48h0a1.48,1.48,0,0,1,1.48,1.48Z"/><path class="cls-3" d="M225.88,239.67h-3v-4.94a1.48,1.48,0,0,1,1.48-1.48h0a1.48,1.48,0,0,1,1.48,1.48Z"/><path class="cls-3" d="M231.27,239.67h-3v-4.94a1.48,1.48,0,0,1,1.48-1.48h0a1.48,1.48,0,0,1,1.48,1.48Z"/><path class="cls-3" d="M236.67,239.67h-3v-4.94a1.48,1.48,0,0,1,1.48-1.48h0a1.48,1.48,0,0,1,1.48,1.48Z"/><path class="cls-3" d="M242.06,239.67h-3v-4.94a1.48,1.48,0,0,1,1.48-1.48h0a1.48,1.48,0,0,1,1.48,1.48Z"/><path class="cls-3" d="M247.45,239.67h-3v-4.94a1.48,1.48,0,0,1,1.48-1.48h0a1.48,1.48,0,0,1,1.48,1.48Z"/><path class="cls-3" d="M252.84,239.67h-3v-4.94a1.48,1.48,0,0,1,1.48-1.48h0a1.48,1.48,0,0,1,1.48,1.48Z"/><path class="cls-3" d="M258.24,239.67h-3v-4.94a1.48,1.48,0,0,1,1.48-1.48h0a1.48,1.48,0,0,1,1.48,1.48Z"/><path class="cls-3" d="M263.63,239.67h-3v-4.94a1.48,1.48,0,0,1,1.48-1.48h0a1.48,1.48,0,0,1,1.48,1.48Z"/><path class="cls-3" d="M269,239.67h-3v-4.94a1.48,1.48,0,0,1,1.48-1.48h0a1.48,1.48,0,0,1,1.48,1.48Z"/><path class="cls-3" d="M274.42,239.67h-3v-4.94a1.48,1.48,0,0,1,1.48-1.48h0a1.48,1.48,0,0,1,1.48,1.48Z"/><path class="cls-3" d="M279.81,239.67h-3v-4.94a1.48,1.48,0,0,1,1.48-1.48h0a1.48,1.48,0,0,1,1.48,1.48Z"/><path class="cls-3" d="M285.2,239.67h-3v-4.94a1.48,1.48,0,0,1,1.48-1.48h0a1.48,1.48,0,0,1,1.48,1.48Z"/><rect class="cls-7" x="215.7" y="336.86" width="71.33" height="2.58"/><rect class="cls-7" x="215.7" y="352.02" width="71.33" height="2.58"/><rect class="cls-6" x="215.7" y="339.44" width="71.33" height="12.57"/><rect class="cls-9" x="220.43" y="341.33" width="10.77" height="7.99"/><rect class="cls-9" x="271.56" y="341.33" width="10.77" height="7.99"/><rect class="cls-13" x="220.43" y="343.79" width="10.77" height="5.53"/><rect class="cls-13" x="271.56" y="343.79" width="10.77" height="5.53"/><polygon class="cls-20" points="265.11 354.59 237.62 354.59 241.35 336.86 261.38 336.86 265.11 354.59"/></g><path class="cls-21" d="M473.82,357.08a4.54,4.54,0,0,0-4.54-4.54H282.85a4.54,4.54,0,0,0-4.54,4.54h0a4.54,4.54,0,0,0,4.54,4.54H469.28a4.54,4.54,0,0,0,4.54-4.54Z"/><path class="cls-21" d="M221.32,357.08a4.54,4.54,0,0,0-4.54-4.54H30.36a4.54,4.54,0,0,0-4.54,4.54h0a4.54,4.54,0,0,0,4.54,4.54H216.79a4.54,4.54,0,0,0,4.54-4.54Z"/><path class="cls-22" d="M96.1,316.33a5,5,0,0,0,4.95,4.95h18.88a5,5,0,0,0,4.95-4.95h0a5,5,0,0,0-4.95-4.95H101a5,5,0,0,0-4.95,4.95Z"/><path class="cls-23" d="M97.84,337.89h7.25a7.37,7.37,0,0,0,5.78-2.3c2.56-2.86,2.09-7.3,2.07-7.48v-6.83h-1.53v6.91c0,.12.41,4-1.69,6.39a5.92,5.92,0,0,1-4.63,1.79H97.84Z"/><path class="cls-23" d="M97.25,355.3h1.53V332.82H93.12a3.8,3.8,0,0,1-3-1,3.1,3.1,0,0,1-.67-2.18L88,329.44a4.61,4.61,0,0,0,1,3.37,5.21,5.21,0,0,0,4.11,1.54h4.12Z"/><path class="cls-23" d="M99.53,325.86h12.7v-1.53H99.53a4,4,0,0,1-3.16-1.21c-1.37-1.6-1-4.28-1-4.31v-7.87H93.87v7.76s-.5,3.28,1.32,5.42A5.41,5.41,0,0,0,99.53,325.86Z"/><path class="cls-22" d="M84,306.84c0,2.44,1.72,4.39,3.76,4.36l14.08-.22c2,0,3.66-2,3.62-4.47h0c0-2.44-1.72-4.39-3.76-4.35l-14.08.22c-2,0-3.66,2-3.62,4.47Z"/><path class="cls-22" d="M81.43,326.05a3.71,3.71,0,0,0,3.71,3.71H99.3a3.71,3.71,0,0,0,3.71-3.71h0a3.71,3.71,0,0,0-3.71-3.71H85.14a3.71,3.71,0,0,0-3.71,3.71Z"/><path class="cls-24" d="M84,324.74a1.45,1.45,0,0,0,1.45,1.45H91a1.45,1.45,0,0,0,1.45-1.45h0A1.45,1.45,0,0,0,91,323.29H85.48A1.45,1.45,0,0,0,84,324.74Z"/><path class="cls-24" d="M91.11,304.62a1.45,1.45,0,0,0,1.45,1.45h5.53a1.45,1.45,0,0,0,1.45-1.45h0a1.45,1.45,0,0,0-1.45-1.45H92.56a1.45,1.45,0,0,0-1.45,1.45Z"/><path class="cls-24" d="M113.93,314.4a1.45,1.45,0,0,0,1.45,1.45h5.53a1.45,1.45,0,0,0,1.45-1.45h0a1.45,1.45,0,0,0-1.45-1.45h-5.53a1.45,1.45,0,0,0-1.45,1.45Z"/><path class="cls-22" d="M54,329.13a3.32,3.32,0,0,0,3.32,3.32H70a3.32,3.32,0,0,0,3.32-3.32h0A3.32,3.32,0,0,0,70,325.81H57.28A3.32,3.32,0,0,0,54,329.13Z"/><path class="cls-23" d="M55.12,343.61H60a5,5,0,0,0,3.88-1.55,7.13,7.13,0,0,0,1.39-5v-4.59h-1v4.64c0,.08.28,2.71-1.13,4.29a4,4,0,0,1-3.11,1.2H55.12Z"/><path class="cls-23" d="M54.72,355.3h1V340.2H52a2.55,2.55,0,0,1-2-.68,2.08,2.08,0,0,1-.45-1.46l-1-.12a3.1,3.1,0,0,0,.69,2.26,3.5,3.5,0,0,0,2.76,1h2.77Z"/><path class="cls-23" d="M56.26,335.53h8.53v-1H56.26a2.66,2.66,0,0,1-2.13-.81,4.12,4.12,0,0,1-.65-2.89v-5.29h-1v5.21a5,5,0,0,0,.89,3.64A3.63,3.63,0,0,0,56.26,335.53Z"/><path class="cls-22" d="M45.81,322.76a2.75,2.75,0,0,0,2.52,2.92l9.45-.15a2.75,2.75,0,0,0,2.43-3h0a2.75,2.75,0,0,0-2.52-2.92l-9.45.15a2.75,2.75,0,0,0-2.43,3Z"/><path class="cls-22" d="M44.1,335.66a2.49,2.49,0,0,0,2.49,2.49h9.51a2.49,2.49,0,0,0,2.49-2.49h0a2.49,2.49,0,0,0-2.49-2.49H46.6a2.49,2.49,0,0,0-2.49,2.49Z"/><path class="cls-24" d="M45.85,334.78a1,1,0,0,0,1,1h3.71a1,1,0,0,0,1-1h0a1,1,0,0,0-1-1H46.82a1,1,0,0,0-1,1Z"/><path class="cls-24" d="M50.6,321.27a1,1,0,0,0,1,1h3.72a1,1,0,0,0,1-1h0a1,1,0,0,0-1-1H51.58a1,1,0,0,0-1,1Z"/><path class="cls-24" d="M65.93,327.84a1,1,0,0,0,1,1h3.71a1,1,0,0,0,1-1h0a1,1,0,0,0-1-1H66.9a1,1,0,0,0-1,1Z"/><path class="cls-22" d="M430.39,316.33a5,5,0,0,0,4.95,4.95h18.88a5,5,0,0,0,4.95-4.95h0a5,5,0,0,0-4.95-4.95H435.33a5,5,0,0,0-4.95,4.95Z"/><path class="cls-23" d="M432.13,337.89h7.25a7.37,7.37,0,0,0,5.78-2.3c2.56-2.86,2.09-7.3,2.07-7.48v-6.83H445.7v6.91c0,.12.42,4-1.68,6.39a5.92,5.92,0,0,1-4.63,1.79h-7.25Z"/><path class="cls-23" d="M431.53,355.3h1.53V332.82h-5.65a3.8,3.8,0,0,1-3-1,3.09,3.09,0,0,1-.67-2.18l-1.52-.19a4.61,4.61,0,0,0,1,3.37,5.21,5.21,0,0,0,4.11,1.54h4.12Z"/><path class="cls-23" d="M433.82,325.86h12.7v-1.53h-12.7a4,4,0,0,1-3.16-1.21c-1.37-1.6-1-4.28-1-4.31v-7.87h-1.53v7.76s-.5,3.28,1.32,5.42A5.41,5.41,0,0,0,433.82,325.86Z"/><path class="cls-22" d="M418.26,306.84c0,2.44,1.72,4.39,3.76,4.36l14.08-.22c2,0,3.66-2,3.62-4.47h0c0-2.44-1.72-4.39-3.76-4.35l-14.08.22c-2,0-3.66,2-3.62,4.47Z"/><path class="cls-22" d="M415.72,326.05a3.71,3.71,0,0,0,3.71,3.71h14.16a3.71,3.71,0,0,0,3.71-3.71h0a3.71,3.71,0,0,0-3.71-3.71H419.43a3.71,3.71,0,0,0-3.71,3.71Z"/><path class="cls-24" d="M418.32,324.74a1.45,1.45,0,0,0,1.45,1.45h5.53a1.45,1.45,0,0,0,1.45-1.45h0a1.45,1.45,0,0,0-1.45-1.45h-5.53a1.45,1.45,0,0,0-1.45,1.45Z"/><path class="cls-24" d="M425.4,304.62a1.45,1.45,0,0,0,1.45,1.45h5.53a1.45,1.45,0,0,0,1.45-1.45h0a1.45,1.45,0,0,0-1.45-1.45h-5.53a1.45,1.45,0,0,0-1.45,1.45Z"/><path class="cls-24" d="M448.22,314.4a1.45,1.45,0,0,0,1.45,1.45h5.53a1.45,1.45,0,0,0,1.45-1.45h0a1.45,1.45,0,0,0-1.45-1.45h-5.53a1.45,1.45,0,0,0-1.45,1.45Z"/><path class="cls-22" d="M156.22,329.13a3.32,3.32,0,0,0,3.32,3.32h12.68a3.32,3.32,0,0,0,3.32-3.32h0a3.32,3.32,0,0,0-3.32-3.32H159.54a3.32,3.32,0,0,0-3.32,3.32Z"/><path class="cls-23" d="M157.39,343.61h4.87a5,5,0,0,0,3.88-1.55,7.13,7.13,0,0,0,1.39-5v-4.59h-1v4.64c0,.08.28,2.71-1.13,4.29a4,4,0,0,1-3.11,1.2h-4.87Z"/><path class="cls-23" d="M157,355.3h1V340.2h-3.8a2.55,2.55,0,0,1-2-.68,2.08,2.08,0,0,1-.45-1.46l-1-.12a3.1,3.1,0,0,0,.69,2.26,3.5,3.5,0,0,0,2.76,1H157Z"/><path class="cls-23" d="M158.52,335.53H167v-1h-8.53a2.66,2.66,0,0,1-2.12-.81,4.12,4.12,0,0,1-.65-2.89v-5.29h-1v5.21a5,5,0,0,0,.89,3.64A3.63,3.63,0,0,0,158.52,335.53Z"/><path class="cls-22" d="M148.07,322.76a2.75,2.75,0,0,0,2.52,2.92l9.45-.15a2.75,2.75,0,0,0,2.43-3h0a2.75,2.75,0,0,0-2.52-2.92l-9.45.15a2.75,2.75,0,0,0-2.43,3Z"/><path class="cls-22" d="M146.37,335.66a2.49,2.49,0,0,0,2.49,2.49h9.51a2.49,2.49,0,0,0,2.49-2.49h0a2.49,2.49,0,0,0-2.49-2.49h-9.51a2.49,2.49,0,0,0-2.49,2.49Z"/><path class="cls-24" d="M148.11,334.78a1,1,0,0,0,1,1h3.71a1,1,0,0,0,1-1h0a1,1,0,0,0-1-1h-3.71a1,1,0,0,0-1,1Z"/><path class="cls-24" d="M152.87,321.27a1,1,0,0,0,1,1h3.72a1,1,0,0,0,1-1h0a1,1,0,0,0-1-1h-3.72a1,1,0,0,0-1,1Z"/><path class="cls-24" d="M168.19,327.84a1,1,0,0,0,1,1h3.71a1,1,0,0,0,1-1h0a1,1,0,0,0-1-1h-3.71a1,1,0,0,0-1,1Z"/><path class="cls-25" d="M361.57,154.85c-10.07-8.93-19.65-4.22-26,1.45-8.85-8.66-26.41-4.55-26.41-4.55,10.82,1.94,17.94,5.16,22.74,8.25a45.44,45.44,0,0,0-4.11,5.37c2.22-1.54,4.28-2.76,6.3-3.92,4.88,3.64,6.43,6.74,6.43,6.74a19.11,19.11,0,0,0-2.54-8.77C353,152,361.57,154.85,361.57,154.85Z"/><path class="cls-25" d="M409,175.37c-7.28-6.45-14.21-3.05-18.82,1-6.4-6.26-19.09-3.29-19.09-3.29,7.82,1.4,13,3.73,16.44,6a32.77,32.77,0,0,0-3,3.88c1.6-1.12,3.09-2,4.55-2.83a15.93,15.93,0,0,1,4.64,4.87,13.81,13.81,0,0,0-1.84-6.34C402.77,173.35,409,175.37,409,175.37Z"/><path class="cls-25" d="M372.19,205.54c-6.18-5.48-12.06-2.59-16,.89-5.43-5.31-16.2-2.79-16.2-2.79A37.44,37.44,0,0,1,354,208.7a27.81,27.81,0,0,0-2.52,3.3c1.36-.95,2.62-1.69,3.87-2.4a13.51,13.51,0,0,1,3.94,4.13,11.79,11.79,0,0,0-1.56-5.38C366.91,203.83,372.19,205.54,372.19,205.54Z"/><path class="cls-25" d="M305.74,181.68c-7.28-6.45-14.21-3.05-18.82,1-6.4-6.26-19.09-3.29-19.09-3.29,7.82,1.4,13,3.73,16.44,6a33.1,33.1,0,0,0-3,3.88c1.6-1.11,3.09-2,4.55-2.83a16,16,0,0,1,4.65,4.87,13.81,13.81,0,0,0-1.84-6.34C299.52,179.65,305.74,181.68,305.74,181.68Z"/><path class="cls-22" d="M379.91,329.13a3.32,3.32,0,0,1-3.32,3.32H363.91a3.32,3.32,0,0,1-3.32-3.32h0a3.32,3.32,0,0,1,3.32-3.32h12.68a3.32,3.32,0,0,1,3.32,3.32Z"/><path class="cls-23" d="M378.74,343.61h-4.87a5,5,0,0,1-3.88-1.55,7.13,7.13,0,0,1-1.39-5v-4.59h1v4.64c0,.08-.28,2.71,1.13,4.29a4,4,0,0,0,3.11,1.2h4.87Z"/><path class="cls-23" d="M379.14,355.3h-1V340.2h3.8a2.55,2.55,0,0,0,2-.68,2.08,2.08,0,0,0,.45-1.46l1-.12a3.1,3.1,0,0,1-.69,2.26,3.5,3.5,0,0,1-2.76,1h-2.77Z"/><path class="cls-23" d="M377.61,335.53h-8.53v-1h8.53a2.66,2.66,0,0,0,2.13-.81,4.12,4.12,0,0,0,.65-2.89v-5.29h1v5.21a5,5,0,0,1-.89,3.64A3.63,3.63,0,0,1,377.61,335.53Z"/><path class="cls-22" d="M388.06,322.76a2.75,2.75,0,0,1-2.52,2.92l-9.45-.15a2.75,2.75,0,0,1-2.43-3h0a2.75,2.75,0,0,1,2.52-2.92l9.45.15a2.75,2.75,0,0,1,2.43,3Z"/><path class="cls-22" d="M389.76,335.66a2.49,2.49,0,0,1-2.49,2.49h-9.51a2.49,2.49,0,0,1-2.49-2.49h0a2.49,2.49,0,0,1,2.49-2.49h9.51a2.49,2.49,0,0,1,2.49,2.49Z"/><path class="cls-24" d="M388,334.78a1,1,0,0,1-1,1h-3.71a1,1,0,0,1-1-1h0a1,1,0,0,1,1-1H387a1,1,0,0,1,1,1Z"/><path class="cls-24" d="M383.26,321.27a1,1,0,0,1-1,1h-3.72a1,1,0,0,1-1-1h0a1,1,0,0,1,1-1h3.72a1,1,0,0,1,1,1Z"/><path class="cls-24" d="M367.94,327.84a1,1,0,0,1-1,1h-3.71a1,1,0,0,1-1-1h0a1,1,0,0,1,1-1H367a1,1,0,0,1,1,1Z"/><path class="cls-22" d="M309.44,329.13a3.32,3.32,0,0,1-3.32,3.32H293.44a3.32,3.32,0,0,1-3.32-3.32h0a3.32,3.32,0,0,1,3.32-3.32h12.68a3.32,3.32,0,0,1,3.32,3.32Z"/><path class="cls-23" d="M308.27,343.61H303.4a5,5,0,0,1-3.88-1.55,7.13,7.13,0,0,1-1.39-5v-4.59h1v4.64c0,.08-.28,2.71,1.13,4.29a4,4,0,0,0,3.11,1.2h4.87Z"/><path class="cls-23" d="M308.67,355.3h-1V340.2h3.8a2.55,2.55,0,0,0,2-.68,2.08,2.08,0,0,0,.45-1.46l1-.12a3.1,3.1,0,0,1-.69,2.26,3.5,3.5,0,0,1-2.76,1h-2.77Z"/><path class="cls-23" d="M307.14,335.53h-8.53v-1h8.53a2.66,2.66,0,0,0,2.12-.81,4.12,4.12,0,0,0,.65-2.89v-5.29h1v5.21a5,5,0,0,1-.89,3.64A3.63,3.63,0,0,1,307.14,335.53Z"/><path class="cls-22" d="M317.58,322.76a2.75,2.75,0,0,1-2.52,2.92l-9.45-.15a2.75,2.75,0,0,1-2.43-3h0a2.75,2.75,0,0,1,2.52-2.92l9.45.15a2.75,2.75,0,0,1,2.43,3Z"/><path class="cls-22" d="M319.29,335.66a2.49,2.49,0,0,1-2.49,2.49h-9.51a2.49,2.49,0,0,1-2.49-2.49h0a2.49,2.49,0,0,1,2.49-2.49h9.51a2.49,2.49,0,0,1,2.49,2.49Z"/><path class="cls-24" d="M317.54,334.78a1,1,0,0,1-1,1h-3.71a1,1,0,0,1-1-1h0a1,1,0,0,1,1-1h3.71a1,1,0,0,1,1,1Z"/><path class="cls-24" d="M312.79,321.27a1,1,0,0,1-1,1H308.1a1,1,0,0,1-1-1h0a1,1,0,0,1,1-1h3.72a1,1,0,0,1,1,1Z"/><path class="cls-24" d="M297.47,327.84a1,1,0,0,1-1,1h-3.71a1,1,0,0,1-1-1h0a1,1,0,0,1,1-1h3.71a1,1,0,0,1,1,1Z"/></svg>