<svg xmlns="http://www.w3.org/2000/svg" xmlns:xlink="http://www.w3.org/1999/xlink" viewBox="0 0 500 500"><defs><style>.cls-1{isolation:isolate;}.cls-2{fill:#231e1c;}.cls-3{fill:#2d683b;}.cls-4{fill:#75e4ea;opacity:0.5;}.cls-5{fill:#383534;}.cls-6{fill:#2b2827;}.cls-7{fill:#1e1b1a;}.cls-8{fill:#50935e;}.cls-9{fill:#34492c;}.cls-10{fill:#351c0b;}.cls-11{fill:#51843c;}.cls-12{fill:#fff;}.cls-13{fill:#f85f1b;}.cls-14{fill:#e5e5dd;}.cls-14,.cls-15,.cls-16{stroke:#000;stroke-miterlimit:10;stroke-width:0.28px;}.cls-15{fill:#d3d3d1;}.cls-16{fill:#bfbfbe;}.cls-17{fill:#4a2f28;}.cls-18{fill:#8b4511;}.cls-19{fill:#af6524;}.cls-20,.cls-21,.cls-22,.cls-24,.cls-25{opacity:0.4;mix-blend-mode:multiply;}.cls-20{fill:url(#linear-gradient);}.cls-21{fill:url(#linear-gradient-2);}.cls-22{fill:url(#linear-gradient-3);}.cls-23{fill:url(#linear-gradient-4);}.cls-24{fill:url(#linear-gradient-5);}.cls-25{fill:url(#linear-gradient-6);}</style><linearGradient id="linear-gradient" x1="400.27" y1="375.28" x2="400.27" y2="353.09" gradientUnits="userSpaceOnUse"><stop offset="0" stop-color="#fff"/><stop offset="1"/></linearGradient><linearGradient id="linear-gradient-2" x1="402.32" y1="273.91" x2="402.32" y2="263.99" xlink:href="#linear-gradient"/><linearGradient id="linear-gradient-3" x1="401.56" y1="397.25" x2="401.56" y2="382.61" xlink:href="#linear-gradient"/><linearGradient id="linear-gradient-4" x1="400.84" y1="359.28" x2="400.84" y2="349.86" xlink:href="#linear-gradient"/><linearGradient id="linear-gradient-5" x1="391.02" y1="188.49" x2="355.21" y2="191.35" xlink:href="#linear-gradient"/><linearGradient id="linear-gradient-6" x1="207.85" y1="188.49" x2="172.05" y2="191.35" gradientTransform="matrix(-1, 0, 0, 1, 618.71, 0)" xlink:href="#linear-gradient"/></defs><title>Artboard 2</title><g class="cls-1"><g id="Layer_1" data-name="Layer 1"><path class="cls-2" d="M312,185.29c-9.8-8.69-19.13-4.11-25.33,1.41-8.62-8.43-25.71-4.43-25.71-4.43,10.53,1.89,17.46,5,22.13,8a44.12,44.12,0,0,0-4,5.23c2.16-1.5,4.16-2.69,6.13-3.81,4.75,3.54,6.26,6.56,6.26,6.56a18.64,18.64,0,0,0-2.48-8.54C303.61,182.56,312,185.29,312,185.29Z"/><path class="cls-2" d="M358.14,205.26c-7.08-6.28-13.83-3-18.31,1-6.23-6.09-18.58-3.2-18.58-3.2,7.61,1.36,12.63,3.63,16,5.8a31.88,31.88,0,0,0-2.89,3.78c1.56-1.08,3-1.94,4.43-2.75a15.49,15.49,0,0,1,4.52,4.74,13.47,13.47,0,0,0-1.79-6.17C352.09,203.29,358.14,205.26,358.14,205.26Z"/><path class="cls-2" d="M322.33,234.63c-6-5.33-11.73-2.52-15.54.87-5.29-5.17-15.77-2.72-15.77-2.72a36.48,36.48,0,0,1,13.58,4.93,26.81,26.81,0,0,0-2.45,3.21c1.32-.92,2.55-1.65,3.76-2.34a13.14,13.14,0,0,1,3.84,4,11.4,11.4,0,0,0-1.52-5.24C317.19,233,322.33,234.63,322.33,234.63Z"/><path class="cls-2" d="M257.65,211.4c-7.08-6.28-13.83-3-18.31,1-6.23-6.09-18.58-3.2-18.58-3.2,7.61,1.36,12.63,3.63,16,5.81a31.72,31.72,0,0,0-2.89,3.78c1.56-1.08,3-1.94,4.43-2.75a15.47,15.47,0,0,1,4.52,4.74,13.48,13.48,0,0,0-1.79-6.17C251.6,209.43,257.65,211.4,257.65,211.4Z"/><path class="cls-3" d="M392.92,434.79a2.63,2.63,0,0,1-2.63,2.63H25.08a2.63,2.63,0,0,1-2.63-2.63h0a2.63,2.63,0,0,1,2.63-2.63H390.29a2.63,2.63,0,0,1,2.63,2.63Z"/><path class="cls-4" d="M24.55,432.72a184,184,0,0,1,184-184c101.64,0,184,82.39,184,184"/><path class="cls-2" d="M265.14,414.5H263v2h-1.32l-3.29-8.12-3.51-1.53V397l1.53-2.63v-2.19l-4.82-12.5-2.63,11.84-2-1.32h-1.1l-1.54,5.7h-1.75v1.32h-1.32V382.7h1.32V370.64l-2.85-2.19v-4.17l-1.53-2.63v-2.41l2.85-2.85v-3.07l-2.63-1.54v-3.95l.88-1.1V344.1l-2.19-.22v-9.43l-1.53-4.83h-1.32l-1.75,5.92,1.1-7.89h-1.32v-9.43l-1.32-4.82-1.53,4.17v6.36h-1.1V312.3l-1.1-1.1v-3.95h-1.32V300h-2v-6.58l-1.1-1.1v-3.29c-1.76,0,0,8.77,0,8.77h-4.61v-11h-1.53v4.6l-1.1-1.1V280.06l-2.41-3.95-.66-8.55s0-2.24-2-2.6v0l-.11,0-.11,0v0c-2,.36-2,2.59-2,2.59l-.66,8.55-2.41,3.95v10.31l-1.1,1.1v-4.6h-1.53v11H198s1.76-8.77,0-8.77v3.29l-1.1,1.1V300h-2v7.24h-1.32v3.95l-1.1,1.1v11.62h-1.1v-6.36l-1.53-4.17-1.32,4.82v9.43h-1.32l1.1,7.89-1.75-5.92h-1.32l-1.54,4.83v9.43l-2.19.22v2.63l.88,1.1v3.95l-2.63,1.54v3.07l2.85,2.85v2.41l-1.54,2.63v4.17l-2.85,2.19V382.7h1.32v14.47h-1.32v-1.32h-1.75l-1.54-5.7h-1.1l-2,1.32-2.63-11.84-4.83,12.5v2.19L166,397v9.87l-3.51,1.53-3.29,8.12H157.9v-2h-2.19v5.26l47.83-.38,61.61.38Z"/><path class="cls-2" d="M103.73,404.29V393.58h-1v-8.92l2.11-1.62V380L106,378v-1.78l-2.11-2.11v-2.27l1.95-1.13v-2.92l-.65-.81V365l1.62-.16v-7l1.14-3.57h1l1.3,4.38-.81-5.84h1v-7l1-3.57,1.13,3.08v4.7h.81v-8.6l.81-.81v-2.92h1v-5.35h1.46v-4.87l.81-.81v-2.43c1.3,0,0,6.49,0,6.49h3.41V322.7h1.14v3.41l.81-.81v-7.62l1.79-2.92.49-6.33s0-1.66,1.46-1.92v0h.16v0c1.45.27,1.46,1.92,1.46,1.92l.49,6.33,1.79,2.92v7.62l.81.81V322.7h1.14v8.11h3.41s-1.3-6.49,0-6.49v2.43l.81.81v4.87H138v5.35h1v2.92l.81.81v8.6h.81v-4.7l1.13-3.08,1,3.57v7h1l-.81,5.84,1.3-4.38h1l1.13,3.57v7l1.62.16V367l-.65.81v2.92l1.95,1.13v2.27L147,376.23V378l1.14,1.95V383l2.11,1.62v8.92h-1v10.71h.39v16.57l-18.09-.14-28.4.18v-16.6Z"/><path class="cls-2" d="M269.35,404.29V393.58h-1v-8.92l2.11-1.62V380l1.14-1.95v-1.78l-2.11-2.11v-2.27l1.95-1.13v-2.92l-.65-.81V365l1.62-.16v-7l1.14-3.57h1l1.3,4.38-.81-5.84h1v-7l1-3.57,1.13,3.08v4.7h.81v-8.6l.81-.81v-2.92h1v-5.35h1.46v-4.87l.81-.81v-2.43c1.3,0,0,6.49,0,6.49h3.41V322.7h1.14v3.41l.81-.81v-7.62l1.79-2.92.49-6.33s0-1.66,1.46-1.92v0h.16v0c1.45.27,1.46,1.92,1.46,1.92l.49,6.33,1.79,2.92v7.62l.81.81V322.7h1.14v8.11h3.41s-1.3-6.49,0-6.49v2.43l.81.81v4.87h1.46v5.35h1v2.92l.81.81v8.6h.81v-4.7l1.13-3.08,1,3.57v7h1l-.81,5.84,1.3-4.38h1l1.14,3.57v7l1.62.16V367l-.65.81v2.92l1.95,1.13v2.27l-2.11,2.11V378l1.14,1.95V383l2.11,1.62v8.92h-1v10.71h.39v16.57l-18.09-.14-28.4.18v-16.6Z"/><path class="cls-2" d="M50.15,406.62v-9.2h-.84v-7.67l1.81-1.39v-2.65l1-1.67V382.5l-1.81-1.81v-2l1.67-1v-2.51l-.56-.7v-1.67l1.39-.14v-6l1-3.07h.84l1.12,3.76-.7-5h.84v-6l.84-3.07,1,2.65v4h.7v-7.39l.7-.7v-2.51h.84v-4.6h1.26v-4.18l.7-.7v-2.09c1.11,0,0,5.58,0,5.58h2.93v-7h1v2.93l.7-.7v-6.55L68,329.67l.42-5.44s0-1.42,1.25-1.65v0h.14v0c1.25.23,1.25,1.65,1.25,1.65l.42,5.44L73,332.18v6.55l.7.7V336.5h1v7h2.93s-1.11-5.58,0-5.58V340l.7.7v4.18h1.26v4.6h.84V352l.7.7v7.39h.7v-4l1-2.65.84,3.07v6h.84l-.7,5,1.12-3.76h.84l1,3.07v6l1.39.14v1.67l-.56.7v2.51l1.67,1v2l-1.81,1.81V384l1,1.67v2.65l1.81,1.39v7.67h-.84v9.2h.33v14.24l-15.54-.12-24.41.15V406.62Z"/><path class="cls-2" d="M332.34,406.62v-9.2h-.84v-7.67l1.81-1.39v-2.65l1-1.67V382.5l-1.81-1.81v-2l1.67-1v-2.51l-.56-.7v-1.67l1.39-.14v-6l1-3.07h.84l1.12,3.76-.7-5h.84v-6l.84-3.07,1,2.65v4h.7v-7.39l.7-.7v-2.51h.84v-4.6h1.26v-4.18l.7-.7v-2.09c1.11,0,0,5.58,0,5.58H347v-7h1v2.93l.7-.7v-6.55l1.53-2.51.42-5.44s0-1.42,1.26-1.65v0H352v0c1.25.23,1.25,1.65,1.25,1.65l.42,5.44,1.53,2.51v6.55l.7.7V336.5h1v7h2.93s-1.11-5.58,0-5.58V340l.7.7v4.18h1.26v4.6h.84V352l.7.7v7.39h.7v-4l1-2.65.84,3.07v6h.84l-.7,5,1.12-3.76h.84l1,3.07v6l1.39.14v1.67l-.56.7v2.51l1.67,1v2l-1.81,1.81V384l1,1.67v2.65l1.81,1.39v7.67h-.84v9.2h.34v14.24l-15.54-.12-24.41.15V406.62Z"/><polygon class="cls-2" points="25.86 432.78 33.68 419.07 386.81 419.07 391.68 432.42 25.86 432.78"/><rect class="cls-5" x="173.24" y="422.59" width="76.62" height="3.09"/><rect class="cls-6" x="173.24" y="425.68" width="76.62" height="3.09"/><rect class="cls-7" x="173.24" y="429.18" width="76.62" height="3.09"/><polygon class="cls-8" points="254.34 437.26 169.53 437.72 173.24 432.47 249.86 432.47 254.34 437.26"/><path class="cls-8" d="M58.3,434.17a1.08,1.08,0,0,1-1.08,1.08H32.5a1.08,1.08,0,0,1-1.08-1.08h0a1.08,1.08,0,0,1,1.08-1.08H57.22a1.08,1.08,0,0,1,1.08,1.08Z"/><path class="cls-8" d="M113.91,434.17a1.08,1.08,0,0,1-1.08,1.08H88.11A1.08,1.08,0,0,1,87,434.17h0a1.08,1.08,0,0,1,1.08-1.08h24.72a1.08,1.08,0,0,1,1.08,1.08Z"/><path class="cls-8" d="M157.84,434.17a1.08,1.08,0,0,1-1.08,1.08H132a1.08,1.08,0,0,1-1.08-1.08h0a1.08,1.08,0,0,1,1.08-1.08h24.72a1.08,1.08,0,0,1,1.08,1.08Z"/><path class="cls-8" d="M296,434.17a1.08,1.08,0,0,1-1.08,1.08H270.15a1.08,1.08,0,0,1-1.08-1.08h0a1.08,1.08,0,0,1,1.08-1.08h24.72a1.08,1.08,0,0,1,1.08,1.08Z"/><path class="cls-8" d="M333.44,434.17a1.08,1.08,0,0,1-1.08,1.08H307.64a1.08,1.08,0,0,1-1.08-1.08h0a1.08,1.08,0,0,1,1.08-1.08h24.72a1.08,1.08,0,0,1,1.08,1.08Z"/><path class="cls-8" d="M382.57,434.17a1.08,1.08,0,0,1-1.08,1.08H356.77a1.08,1.08,0,0,1-1.08-1.08h0a1.08,1.08,0,0,1,1.08-1.08h24.72a1.08,1.08,0,0,1,1.08,1.08Z"/><path class="cls-9" d="M319.23,400.06a4.07,4.07,0,0,0,4.07,4.07h15.55a4.07,4.07,0,0,0,4.07-4.07h0a4.07,4.07,0,0,0-4.07-4.07H323.3a4.07,4.07,0,0,0-4.07,4.07Z"/><path class="cls-10" d="M320.67,417.82h6a6.07,6.07,0,0,0,4.76-1.9c2.1-2.35,1.72-6,1.7-6.16v-5.62h-1.26v5.69c0,.1.34,3.33-1.39,5.26a4.87,4.87,0,0,1-3.81,1.47h-6Z"/><path class="cls-10" d="M320.17,432.16h1.26V413.64h-4.66a3.12,3.12,0,0,1-2.43-.83,2.55,2.55,0,0,1-.56-1.79l-1.25-.16a3.81,3.81,0,0,0,.85,2.77,4.3,4.3,0,0,0,3.38,1.27h3.4Z"/><path class="cls-10" d="M322.05,407.92h10.46v-1.26H322.05a3.26,3.26,0,0,1-2.61-1,5,5,0,0,1-.8-3.55v-6.48H317.4V402a6.17,6.17,0,0,0,1.09,4.46A4.45,4.45,0,0,0,322.05,407.92Z"/><path class="cls-9" d="M309.24,392.25c0,2,1.42,3.61,3.1,3.59l11.6-.18c1.68,0,3-1.68,3-3.68h0c0-2-1.42-3.61-3.09-3.59l-11.6.18c-1.68,0-3,1.68-3,3.68Z"/><path class="cls-9" d="M307.15,408.07a3.06,3.06,0,0,0,3.06,3.06h11.66a3.06,3.06,0,0,0,3.06-3.06h0a3.05,3.05,0,0,0-3.06-3.05H310.21a3.05,3.05,0,0,0-3.06,3.05Z"/><path class="cls-11" d="M309.29,407a1.19,1.19,0,0,0,1.19,1.19H315a1.19,1.19,0,0,0,1.19-1.19h0A1.19,1.19,0,0,0,315,405.8h-4.56a1.19,1.19,0,0,0-1.19,1.19Z"/><path class="cls-11" d="M315.12,390.42a1.19,1.19,0,0,0,1.19,1.19h4.56a1.19,1.19,0,0,0,1.19-1.19h0a1.19,1.19,0,0,0-1.19-1.19h-4.56a1.19,1.19,0,0,0-1.19,1.19Z"/><path class="cls-11" d="M333.91,398.47a1.19,1.19,0,0,0,1.19,1.19h4.56a1.19,1.19,0,0,0,1.19-1.19h0a1.19,1.19,0,0,0-1.19-1.19h-4.56a1.19,1.19,0,0,0-1.19,1.19Z"/><path class="cls-9" d="M96.36,400.06a4.07,4.07,0,0,0,4.07,4.07H116a4.07,4.07,0,0,0,4.07-4.07h0A4.07,4.07,0,0,0,116,396H100.43a4.07,4.07,0,0,0-4.07,4.07Z"/><path class="cls-10" d="M97.79,417.82h6a6.07,6.07,0,0,0,4.76-1.9c2.1-2.35,1.72-6,1.7-6.16v-5.62H109v5.69c0,.1.34,3.33-1.39,5.26a4.87,4.87,0,0,1-3.81,1.47h-6Z"/><path class="cls-10" d="M97.3,432.16h1.26V413.64H93.9a3.13,3.13,0,0,1-2.43-.83,2.55,2.55,0,0,1-.56-1.79l-1.25-.16a3.81,3.81,0,0,0,.85,2.77,4.3,4.3,0,0,0,3.38,1.27h3.4Z"/><path class="cls-10" d="M99.18,407.92h10.46v-1.26H99.18a3.26,3.26,0,0,1-2.61-1,5,5,0,0,1-.8-3.55v-6.48H94.52V402a6.15,6.15,0,0,0,1.09,4.46A4.45,4.45,0,0,0,99.18,407.92Z"/><path class="cls-9" d="M86.37,392.25c0,2,1.42,3.61,3.09,3.59l11.6-.18a3.38,3.38,0,0,0,3-3.68h0c0-2-1.42-3.61-3.09-3.59l-11.6.18c-1.68,0-3,1.68-3,3.68Z"/><path class="cls-9" d="M84.28,408.07a3.06,3.06,0,0,0,3.06,3.06H99a3.05,3.05,0,0,0,3.05-3.06h0A3.05,3.05,0,0,0,99,405H87.33a3.05,3.05,0,0,0-3.06,3.05Z"/><path class="cls-11" d="M86.42,407a1.19,1.19,0,0,0,1.19,1.19h4.56A1.19,1.19,0,0,0,93.36,407h0a1.19,1.19,0,0,0-1.19-1.19H87.61A1.19,1.19,0,0,0,86.42,407Z"/><path class="cls-11" d="M92.25,390.42a1.19,1.19,0,0,0,1.19,1.19H98a1.19,1.19,0,0,0,1.19-1.19h0A1.19,1.19,0,0,0,98,389.23H93.44a1.19,1.19,0,0,0-1.19,1.19Z"/><path class="cls-11" d="M111,398.47a1.19,1.19,0,0,0,1.19,1.19h4.56a1.19,1.19,0,0,0,1.19-1.19h0a1.19,1.19,0,0,0-1.19-1.19h-4.56a1.19,1.19,0,0,0-1.19,1.19Z"/><path class="cls-12" d="M137.62,279.49a5.44,5.44,0,0,1-5.44,5.44h-47a5.44,5.44,0,0,1-5.44-5.44h0A5.44,5.44,0,0,1,85.2,274h47a5.44,5.44,0,0,1,5.44,5.44Z"/><path class="cls-12" d="M194.14,265.74a5.44,5.44,0,0,1-5.44,5.44h-47a5.44,5.44,0,0,1-5.44-5.44h0a5.44,5.44,0,0,1,5.44-5.44h47a5.44,5.44,0,0,1,5.44,5.44Z"/><path class="cls-12" d="M131.25,266a5.17,5.17,0,0,1-5.17,5.17H108.65a5.17,5.17,0,0,1-5.17-5.17h0a5.17,5.17,0,0,1,5.17-5.17h17.43a5.17,5.17,0,0,1,5.17,5.17Z"/><polygon class="cls-13" points="394.67 99.18 400 61.35 406.16 98.62 394.67 99.18"/><rect class="cls-14" x="325.72" y="423.19" width="153.03" height="15.56"/><rect class="cls-15" x="343.8" y="406.79" width="117.3" height="16.4"/><rect class="cls-14" x="354.73" y="386.61" width="92.91" height="20.18"/><polygon class="cls-16" points="440.92 381.57 360.2 381.57 354.73 386.61 445.96 386.61 440.92 381.57"/><path class="cls-14" d="M363.56,360.55s-6.73-2.1-2.1-7.15,7.15-5.89,7.15-5.89-.84-2.94,1.26-4.2,1.26-2.94,1.26-2.94v-58l-8.83-30.69.84-3.36c1.26,0,.84-13,.84-13l6.73,1.26,16-101.32a9.65,9.65,0,0,1-2.52-6.31c0-3.78-1.26-5.47-1.26-5.47l-5-4.2v-16l5.47-4.62h31.53l8.83,5.47V118.8l-5,3.36-1.26,7.15-1.68,5.47,16.4,101.74h0l5.47-.42v13.45l1.68.42-8,34.05v58s2.94,2.1,2.1,3.36,9.25,6.73,8.41,10.51-2.1,3.78-2.1,3.78Z"/><path class="cls-17" d="M411.91,289.5l1.26,5s-8-3.78-5.89-6.31v-2.52H394.67v2.1l3.36,2.94-7.15,3.36.84-5.47H381.22l.84,4.62v42.88h8V332.8h22.28v3.78h8v-43.3l2.52-3.36Zm-.42,36.58h-21v-22.7l13-4.2,8,5.47Z"/><polygon class="cls-18" points="398.31 242.41 396.07 238.76 400 238.76 401.96 235.4 404.2 239.05 407.85 238.48 405.6 241.57 407.85 244.65 403.92 244.65 401.96 248.01 399.44 245.21 395.79 245.21 398.31 242.41"/><circle class="cls-18" cx="367.77" cy="252.5" r="0.84"/><circle class="cls-18" cx="424.38" cy="252.5" r="0.84"/><circle class="cls-18" cx="417.94" cy="252.5" r="0.84"/><circle class="cls-18" cx="412.05" cy="252.5" r="0.84"/><circle class="cls-18" cx="405.04" cy="252.5" r="0.84"/><circle class="cls-18" cx="385.7" cy="252.5" r="0.84"/><circle class="cls-18" cx="374.21" cy="252.5" r="0.84"/><circle class="cls-18" cx="430.83" cy="252.5" r="0.84"/><circle class="cls-18" cx="399.44" cy="252.5" r="0.84"/><circle class="cls-18" cx="379.26" cy="252.5" r="0.84"/><circle class="cls-18" cx="392.71" cy="252.5" r="0.84"/><path class="cls-18" d="M431.67,267.07s-.29-9.53-6.12-11.21c0,0-4.37.84-5.54,11.49Z"/><path class="cls-18" d="M420,267.07s-.29-9.53-6.12-11.21c0,0-4.37.84-5.54,11.49Z"/><path class="cls-18" d="M407.77,267.07s-.29-9.53-6.12-11.21c0,0-4.37.84-5.54,11.49Z"/><path class="cls-18" d="M396.11,267.07s-.29-9.53-6.12-11.21c0,0-4.37.84-5.54,11.49Z"/><path class="cls-18" d="M384.75,267.07s-.29-9.53-6.12-11.21c0,0-4.37.84-5.54,11.49Z"/><path d="M384.44,247.09c-3.88,0-6.41-1.18-8.65-5.9-2.39-5-11.74-5.5-11.83-5.5l0-.84c.41,0,10,.49,12.55,6,2.34,4.95,4.8,5.65,9.4,5.37a42,42,0,0,1,6.18,0l3.26-10c.07-.23,1.81-5.62,5.16-5.62,0,0,7-1.1,9.09,5.62,1.56,5.14,2.42,7.62,2.7,8.39h10.1c.72-1.37,4.45-8,9.62-8.41l5.47-.42.06.84-5.47.42c-5.17.4-9,8.1-9,8.17l-.12.24h-11.2l-.1-.27s-.87-2.33-2.81-8.71c-1.83-6-8-5.07-8.22-5-2.81,0-4.42,5-4.43,5l-3.47,10.71-.35,0a36.18,36.18,0,0,0-6.36,0C385.46,247.07,384.94,247.09,384.44,247.09Z"/><path class="cls-18" d="M400.84,140.67h-2.52l4.49-9,2.8,8.69h-2.1v37.56s1.54-2,3.22-1.4,2.94,3.92,2.94,3.92-.7,3.65-3.08,3.78a4.22,4.22,0,0,1-3.5-1.26v22.28h-2.24V183s-2.52,3.22-5.32,1.68-3.08-2.8-3.08-2.8,1.26-3.64,3.5-4.2,4.76,1.4,4.76,1.4V140.53"/><polygon class="cls-19" points="384.13 109.14 388.2 107.47 392.51 109.38 391.8 121.12 397.07 120.4 397.79 112.98 395.87 109.38 396.35 106.75 403.54 107.22 403.3 110.1 402.82 112.98 402.82 119.92 407.85 120.64 408.33 112.5 407.37 109.14 411.92 106.51 416.47 108.66 416.24 112.74 417.19 120.88 415.04 122.32 415.75 128.79 411.81 128.47 411.44 125.2 407.61 124.72 406.89 122.08 403.3 122.08 403.54 125.92 397.55 125.67 397.07 122.32 391.8 122.8 391.8 126.39 387 129.27 385.21 123.22 382.69 113.45 385.33 112.98 384.13 109.14"/><rect class="cls-15" x="360.2" y="359.71" width="79.46" height="21.86"/><rect class="cls-20" x="360.45" y="359.67" width="79.63" height="16.18"/><rect class="cls-21" x="373.06" y="266.94" width="58.53" height="7.23"/><rect class="cls-22" x="355.58" y="386.95" width="91.95" height="10.67"/><path class="cls-23" d="M441.23,356.09a3.47,3.47,0,0,0-3.5-3.44H364a3.47,3.47,0,0,0-3.5,3.44h0a3.47,3.47,0,0,0,3.5,3.44h73.78a3.47,3.47,0,0,0,3.5-3.44Z"/><rect class="cls-18" x="373.11" y="266.98" width="58.58" height="2.89"/><path class="cls-24" d="M387.07,135.2,393.2,133,379,244.81a32.14,32.14,0,0,0-3.72-5.73,9.58,9.58,0,0,0-4.73-2.86l16.49-101"/><path class="cls-25" d="M414.81,135.2,408.67,133l14.18,111.85a32.19,32.19,0,0,1,3.72-5.73,9.59,9.59,0,0,1,4.73-2.86l-16.49-101"/></g></g></svg>