<svg xmlns="http://www.w3.org/2000/svg" xmlns:xlink="http://www.w3.org/1999/xlink" viewBox="0 0 500 500"><defs><style>.cls-1{isolation:isolate;}.cls-2{fill:#6bc144;}.cls-10,.cls-11,.cls-12,.cls-13,.cls-14,.cls-15,.cls-16,.cls-17,.cls-18,.cls-3,.cls-4,.cls-5,.cls-6,.cls-7,.cls-8,.cls-9{mix-blend-mode:multiply;}.cls-3{fill:url(#linear-gradient);}.cls-4{fill:url(#linear-gradient-2);}.cls-5{fill:url(#linear-gradient-3);}.cls-6{fill:url(#linear-gradient-4);}.cls-7{fill:url(#linear-gradient-5);}.cls-8{fill:url(#linear-gradient-6);}.cls-9{fill:url(#linear-gradient-7);}.cls-10{fill:url(#linear-gradient-8);}.cls-11{fill:url(#linear-gradient-9);}.cls-12{fill:url(#linear-gradient-10);}.cls-13{fill:url(#linear-gradient-11);}.cls-14{fill:url(#linear-gradient-12);}.cls-15{fill:url(#linear-gradient-13);}.cls-16{fill:url(#linear-gradient-14);}.cls-17{fill:url(#linear-gradient-15);}.cls-18{fill:url(#linear-gradient-16);}.cls-19{fill:#75e4ea;opacity:0.5;}.cls-20{fill:#231e1c;}.cls-21{fill:#ed1c24;}.cls-22{fill:#367f2e;}.cls-23,.cls-50{fill:#fff;}.cls-24{fill:#ba2a13;}.cls-25,.cls-39{fill:#f4df4a;}.cls-26{fill:#4c56d3;}.cls-27{fill:#ce4e76;}.cls-28{fill:#aa4ed1;}.cls-29{fill:#f24c58;}.cls-30{fill:#262626;}.cls-31{fill:#ce1d1d;}.cls-32{opacity:0.4;}.cls-33{fill:#870a0a;}.cls-34{fill:#af270c;}.cls-35{fill:#ba340f;}.cls-36{fill:#9b1b1b;}.cls-37{fill:#c65e3e;}.cls-38{fill:#bc4526;}.cls-39,.cls-40,.cls-41,.cls-42,.cls-43,.cls-44,.cls-45,.cls-46,.cls-47,.cls-48,.cls-49,.cls-51,.cls-52,.cls-53{opacity:0.7;}.cls-40{fill:#f2834c;}.cls-41{fill:#ef634d;}.cls-42{fill:#ea2828;}.cls-43{fill:#e2008c;}.cls-44{fill:#9c02c1;}.cls-45{fill:#6404bf;}.cls-46{fill:#2006bc;}.cls-47{fill:#085dba;}.cls-48{fill:#099fb7;}.cls-49{fill:#0bb580;}.cls-50{opacity:0.6;}.cls-51{fill:#0db234;}.cls-52{fill:#98af0e;}.cls-53{fill:#ad7c10;}.cls-54{fill:#34492c;}.cls-55{fill:#602c08;}.cls-56{fill:#51843c;}.cls-57{fill:#2a773e;}.cls-58{fill:#ba8850;}.cls-59{fill:#474544;}</style><linearGradient id="linear-gradient" x1="244.02" y1="411.42" x2="244.02" y2="363.82" gradientUnits="userSpaceOnUse"><stop offset="0" stop-color="#fff"/><stop offset="1"/></linearGradient><linearGradient id="linear-gradient-2" x1="210.52" y1="360.81" x2="210.52" y2="346.16" xlink:href="#linear-gradient"/><linearGradient id="linear-gradient-3" x1="211.54" y1="327.47" x2="211.54" y2="317.5" xlink:href="#linear-gradient"/><linearGradient id="linear-gradient-4" x1="277.86" y1="326.36" x2="277.86" y2="317.35" xlink:href="#linear-gradient"/><linearGradient id="linear-gradient-5" x1="243.68" y1="267.61" x2="243.68" y2="258.6" xlink:href="#linear-gradient"/><linearGradient id="linear-gradient-6" x1="244.09" y1="296.06" x2="244.09" y2="287.05" xlink:href="#linear-gradient"/><linearGradient id="linear-gradient-7" x1="278.02" y1="362.31" x2="278.02" y2="346.58" xlink:href="#linear-gradient"/><linearGradient id="linear-gradient-8" x1="243.88" y1="329.41" x2="243.88" y2="316.68" xlink:href="#linear-gradient"/><linearGradient id="linear-gradient-9" x1="199.44" y1="268.38" x2="199.44" y2="235.32" xlink:href="#linear-gradient"/><linearGradient id="linear-gradient-10" x1="287.87" y1="268.38" x2="287.87" y2="235.32" xlink:href="#linear-gradient"/><linearGradient id="linear-gradient-11" x1="264.23" y1="268.45" x2="264.23" y2="227.47" xlink:href="#linear-gradient"/><linearGradient id="linear-gradient-12" x1="223.39" y1="268.45" x2="223.39" y2="227.47" xlink:href="#linear-gradient"/><linearGradient id="linear-gradient-13" x1="291.76" y1="306.15" x2="291.76" y2="264.45" xlink:href="#linear-gradient"/><linearGradient id="linear-gradient-14" x1="196.58" y1="306.76" x2="196.58" y2="264.1" xlink:href="#linear-gradient"/><linearGradient id="linear-gradient-15" x1="171.4" y1="348.66" x2="171.4" y2="311.63" xlink:href="#linear-gradient"/><linearGradient id="linear-gradient-16" x1="316.01" y1="348.66" x2="316.01" y2="311.63" xlink:href="#linear-gradient"/></defs><title>Artboard 4</title><g class="cls-1"><g id="Layer_1" data-name="Layer 1"><path class="cls-2" d="M93.43,407.13A1.48,1.48,0,0,1,92,408.6H59.66a1.48,1.48,0,0,1-1.48-1.48h0a1.48,1.48,0,0,1,1.48-1.48H92a1.48,1.48,0,0,1,1.48,1.48Z"/><path class="cls-2" d="M189.84,407.13a1.48,1.48,0,0,1-1.48,1.48h-32.3a1.48,1.48,0,0,1-1.48-1.48h0a1.48,1.48,0,0,1,1.48-1.48h32.3a1.48,1.48,0,0,1,1.48,1.48Z"/><path class="cls-2" d="M333.23,407.13a1.48,1.48,0,0,1-1.48,1.48h-32.3a1.48,1.48,0,0,1-1.48-1.48h0a1.48,1.48,0,0,1,1.48-1.48h32.3a1.48,1.48,0,0,1,1.48,1.48Z"/><path class="cls-2" d="M429.64,407.13a1.48,1.48,0,0,1-1.48,1.48h-32.3a1.48,1.48,0,0,1-1.48-1.48h0a1.48,1.48,0,0,1,1.48-1.48h32.3a1.48,1.48,0,0,1,1.48,1.48Z"/><path class="cls-3" d="M244.19,381.18s-12.73,2.33-12.81,31.41h25.24S257.85,385.79,244.19,381.18Z"/><rect class="cls-4" x="203.25" y="351.6" width="14.53" height="12.49"/><rect class="cls-5" x="204.48" y="321.21" width="14.12" height="8.49"/><rect class="cls-6" x="271.62" y="320.69" width="12.49" height="7.68"/><rect class="cls-7" x="237.44" y="261.95" width="12.49" height="7.68"/><polygon class="cls-8" points="251.35 298.07 236.82 298.07 238.66 290.4 249.92 290.4 251.35 298.07"/><rect class="cls-9" x="270.49" y="352.42" width="15.05" height="13.41"/><circle class="cls-10" cx="243.88" cy="326.83" r="5.42"/><rect class="cls-11" x="195.63" y="247.6" width="7.62" height="28.16"/><rect class="cls-12" x="284.06" y="247.6" width="7.62" height="28.16"/><rect class="cls-13" x="260.42" y="242.69" width="7.62" height="34.92"/><rect class="cls-14" x="219.58" y="242.69" width="7.62" height="34.92"/><rect class="cls-15" x="287.95" y="279.94" width="7.62" height="35.53"/><rect class="cls-16" x="192.76" y="279.94" width="7.62" height="36.35"/><rect class="cls-17" x="167.59" y="325.38" width="7.62" height="31.55"/><rect class="cls-18" x="312.2" y="325.38" width="7.62" height="31.55"/><path class="cls-19" d="M31.45,369.23c0-119.33,96.74-216.07,216.07-216.07S463.59,249.9,463.59,369.23"/><path class="cls-20" d="M374.84,160.18c-10-8.63-19.51-4.09-25.84,1.4-8.79-8.38-26.22-4.4-26.22-4.4,10.74,1.87,17.81,5,22.57,8a44,44,0,0,0-4.08,5.19c2.2-1.49,4.25-2.67,6.26-3.79,4.85,3.52,6.38,6.52,6.38,6.52a18.17,18.17,0,0,0-2.53-8.49C366.29,157.48,374.84,160.18,374.84,160.18Z"/><path class="cls-20" d="M421.92,180c-7.23-6.24-14.1-3-18.68,1-6.35-6.06-19-3.18-19-3.18,7.77,1.36,12.88,3.61,16.32,5.77a31.73,31.73,0,0,0-2.95,3.76c1.59-1.08,3.07-1.93,4.52-2.74a15.55,15.55,0,0,1,4.61,4.71,13.11,13.11,0,0,0-1.83-6.13C415.74,178.08,421.92,180,421.92,180Z"/><path class="cls-20" d="M385.38,209.21c-6.13-5.3-12-2.51-15.86.86-5.39-5.14-16.09-2.7-16.09-2.7a37.81,37.81,0,0,1,13.85,4.9,27.07,27.07,0,0,0-2.5,3.19c1.35-.91,2.61-1.64,3.84-2.32a13.18,13.18,0,0,1,3.91,4,11.12,11.12,0,0,0-1.55-5.2C380.14,207.55,385.38,209.21,385.38,209.21Z"/><path class="cls-20" d="M319.41,186.13c-7.23-6.24-14.1-3-18.68,1-6.35-6.05-19-3.18-19-3.18,7.77,1.35,12.88,3.61,16.32,5.77a31.72,31.72,0,0,0-2.95,3.75c1.59-1.08,3.07-1.93,4.52-2.74a15.54,15.54,0,0,1,4.61,4.71,13.13,13.13,0,0,0-1.82-6.13C313.24,184.17,319.41,186.13,319.41,186.13Z"/><path class="cls-21" d="M60.39,162.22h-6a5.73,5.73,0,0,1-5.73-5.73v-3.63a5.73,5.73,0,0,1,5.73-5.73h6a5.73,5.73,0,0,1,5.73,5.73v3.63A5.73,5.73,0,0,1,60.39,162.22Zm-6-14.16a4.81,4.81,0,0,0-4.8,4.8v3.63a4.81,4.81,0,0,0,4.8,4.8h6a4.81,4.81,0,0,0,4.8-4.8v-3.63a4.81,4.81,0,0,0-4.8-4.8Z"/><path class="cls-21" d="M81.28,153.4h-6a5.73,5.73,0,0,1-5.73-5.73V144a5.73,5.73,0,0,1,5.73-5.73h6A5.73,5.73,0,0,1,87,144v3.63A5.73,5.73,0,0,1,81.28,153.4Zm-6-14.16a4.81,4.81,0,0,0-4.8,4.8v3.63a4.8,4.8,0,0,0,4.8,4.8h6a4.8,4.8,0,0,0,4.8-4.8V144a4.81,4.81,0,0,0-4.8-4.8Z"/><path class="cls-21" d="M100.93,150.61H95a5.74,5.74,0,0,1-5.73-5.73v-3.63A5.74,5.74,0,0,1,95,135.53h6a5.73,5.73,0,0,1,5.73,5.73v3.63A5.73,5.73,0,0,1,100.93,150.61Zm-6-14.16a4.8,4.8,0,0,0-4.8,4.8v3.63a4.8,4.8,0,0,0,4.8,4.8h6a4.8,4.8,0,0,0,4.8-4.8v-3.63a4.8,4.8,0,0,0-4.8-4.8Z"/><path class="cls-21" d="M120.2,153.63h-6a5.74,5.74,0,0,1-5.73-5.73v-3.63a5.74,5.74,0,0,1,5.73-5.73h6a5.74,5.74,0,0,1,5.73,5.73v3.63A5.74,5.74,0,0,1,120.2,153.63Zm-6-14.16a4.8,4.8,0,0,0-4.8,4.8v3.63a4.8,4.8,0,0,0,4.8,4.8h6a4.8,4.8,0,0,0,4.8-4.8v-3.63a4.8,4.8,0,0,0-4.8-4.8Z"/><path class="cls-21" d="M139.62,162.92h-6a5.73,5.73,0,0,1-5.73-5.73v-3.63a5.73,5.73,0,0,1,5.73-5.73h6a5.73,5.73,0,0,1,5.73,5.73v3.63A5.73,5.73,0,0,1,139.62,162.92Zm-6-14.16a4.81,4.81,0,0,0-4.8,4.8v3.63a4.81,4.81,0,0,0,4.8,4.8h6a4.81,4.81,0,0,0,4.8-4.8v-3.63a4.81,4.81,0,0,0-4.8-4.8Z"/><polygon class="cls-22" points="355.93 312.16 370.06 312.16 375.91 257.07 355.93 312.16"/><path class="cls-23" d="M370.48,312.63H355.27l21.51-59.29Zm-13.89-.93h13.06l5.4-50.88Z"/><polygon class="cls-24" points="328.56 312.16 341.41 312.16 375.91 257.07 328.56 312.16"/><path class="cls-23" d="M341.66,312.63H327.55l48-55.85.75.55Zm-12.09-.93h11.58L372.25,262Z"/><polygon class="cls-25" points="341.41 312.16 355.93 312.16 375.91 257.07 341.41 312.16"/><path class="cls-23" d="M356.25,312.63H340.57l37.27-59.5Zm-14-.93H355.6L374,261Z"/><polygon class="cls-26" points="370.06 312.16 382.03 312.16 375.91 257.07 370.06 312.16"/><path class="cls-23" d="M382.55,312.63h-13l6.35-59.85Zm-12-.93h10.93l-5.59-50.32Z"/><polygon class="cls-27" points="375.91 257.07 395.45 312.16 409.51 312.16 375.91 257.07"/><path class="cls-23" d="M410.34,312.63H395.12L374,253Zm-14.56-.93h12.91l-30.84-50.56Z"/><polygon class="cls-28" points="382.03 312.16 395.45 312.16 375.91 257.07 382.03 312.16"/><path class="cls-23" d="M396.1,312.63H381.61L375,253.14Zm-13.66-.93h12.34l-18-50.69Z"/><polygon class="cls-29" points="423.26 312.16 375.91 257.07 409.51 312.16 423.26 312.16"/><path class="cls-23" d="M424.27,312.63h-15l-33.74-55.31.75-.54Zm-14.5-.93h12.47l-43-50Z"/><polygon class="cls-22" points="371.19 262.11 381.05 262.11 376.3 248.87 371.19 262.11"/><path class="cls-23" d="M381.71,262.57h-11.2l5.8-15Zm-9.85-.93h8.53l-4.11-11.44Z"/><path class="cls-21" d="M97.56,260.52a56.61,56.61,0,1,1,56.61-56.61A56.67,56.67,0,0,1,97.56,260.52Zm0-112.29a55.68,55.68,0,1,0,55.68,55.68A55.74,55.74,0,0,0,97.56,148.24Z"/><path class="cls-21" d="M96.63,272.59a68.68,68.68,0,1,1,68.68-68.68A68.75,68.75,0,0,1,96.63,272.59Zm0-136.43a67.75,67.75,0,1,0,67.75,67.75A67.83,67.83,0,0,0,96.63,136.17Z"/><path class="cls-21" d="M96.22,215.36a11.45,11.45,0,1,1,11.45-11.45A11.46,11.46,0,0,1,96.22,215.36Zm0-22a10.52,10.52,0,1,0,10.52,10.52A10.53,10.53,0,0,0,96.22,193.4Z"/><path class="cls-30" d="M167.68,376.38,99.37,217.11,46.66,372,28.4,369.24,88.93,210.68l1.3.65A12.72,12.72,0,0,0,98,212.84l1-3.07,1.05,2.46a10.76,10.76,0,0,0,4.75-4.08l1.27-2.23,74.26,161.47Zm-66.5-161.74,67.63,157.71,8.3-5.86L105.76,211.34A13.25,13.25,0,0,1,101.18,214.64ZM32,367.12,44.88,369,97.11,215.59a15.26,15.26,0,0,1-6.74-1.3Z"/><rect class="cls-21" x="27.13" y="203.07" width="136.78" height="0.93" transform="translate(-67.28 48.46) rotate(-21.25)"/><rect class="cls-21" x="95.36" y="134.2" width="0.93" height="138.05" transform="translate(-118.44 270.85) rotate(-82.27)"/><polygon class="cls-21" points="159.22 231.51 33.6 175.79 33.98 174.94 159.6 230.66 159.22 231.51"/><rect class="cls-21" x="95.67" y="134.65" width="0.93" height="138.38" transform="translate(-98.78 90.69) rotate(-34.61)"/><rect class="cls-21" x="96.29" y="135.59" width="0.93" height="137.44" transform="translate(-52.41 34.44) rotate(-15.95)"/><polygon class="cls-21" points="97.09 272.14 96.17 272.12 98.15 136.06 99.08 136.07 97.09 272.14"/><rect class="cls-21" x="29.61" y="203.54" width="136.77" height="0.93" transform="translate(-125.58 239.12) rotate(-73.27)"/><rect class="cls-21" x="30.1" y="204.35" width="136.03" height="0.93" transform="translate(-126.96 174.51) rotate(-56.74)"/><rect class="cls-21" x="28.32" y="204.12" width="136.88" height="0.93" transform="translate(-109.15 110.67) rotate(-40.17)"/><rect class="cls-21" x="28.57" y="203.38" width="135.44" height="0.93" transform="translate(-21.72 11.76) rotate(-6.28)"/><rect class="cls-21" x="95.67" y="134.82" width="0.93" height="137.43" transform="translate(-121.14 144.71) rotate(-49.57)"/><path class="cls-21" d="M46.77,174.6h-6a5.74,5.74,0,0,1-5.73-5.73v-3.63a5.74,5.74,0,0,1,5.73-5.73h6a5.74,5.74,0,0,1,5.73,5.73v3.63A5.74,5.74,0,0,1,46.77,174.6Zm-6-14.16a4.8,4.8,0,0,0-4.8,4.8v3.63a4.8,4.8,0,0,0,4.8,4.8h6a4.8,4.8,0,0,0,4.8-4.8v-3.63a4.8,4.8,0,0,0-4.8-4.8Z"/><path class="cls-21" d="M153.24,175.14h-6a5.73,5.73,0,0,1-5.73-5.73v-3.63a5.73,5.73,0,0,1,5.73-5.73h6a5.73,5.73,0,0,1,5.73,5.73v3.63A5.73,5.73,0,0,1,153.24,175.14Zm-6-14.16a4.8,4.8,0,0,0-4.8,4.8v3.63a4.8,4.8,0,0,0,4.8,4.8h6a4.8,4.8,0,0,0,4.8-4.8v-3.63a4.8,4.8,0,0,0-4.8-4.8Z"/><path class="cls-21" d="M162.36,193.55h-6a5.73,5.73,0,0,1-5.73-5.73v-3.63a5.73,5.73,0,0,1,5.73-5.73h6a5.73,5.73,0,0,1,5.73,5.73v3.63A5.73,5.73,0,0,1,162.36,193.55Zm-6-14.16a4.8,4.8,0,0,0-4.8,4.8v3.63a4.8,4.8,0,0,0,4.8,4.8h6a4.8,4.8,0,0,0,4.8-4.8v-3.63a4.8,4.8,0,0,0-4.8-4.8Z"/><path class="cls-21" d="M166.85,210.42h-6a5.74,5.74,0,0,1-5.73-5.73v-3.63a5.74,5.74,0,0,1,5.73-5.73h6a5.73,5.73,0,0,1,5.73,5.73v3.63A5.73,5.73,0,0,1,166.85,210.42Zm-6-14.16a4.8,4.8,0,0,0-4.8,4.8v3.63a4.8,4.8,0,0,0,4.8,4.8h6a4.8,4.8,0,0,0,4.8-4.8v-3.63a4.8,4.8,0,0,0-4.8-4.8Z"/><path class="cls-21" d="M166.85,227.13h-6a5.73,5.73,0,0,1-5.73-5.73v-3.63A5.73,5.73,0,0,1,160.9,212h6a5.73,5.73,0,0,1,5.73,5.73v3.63A5.73,5.73,0,0,1,166.85,227.13Zm-6-14.16a4.8,4.8,0,0,0-4.8,4.8v3.63a4.81,4.81,0,0,0,4.8,4.8h6a4.81,4.81,0,0,0,4.8-4.8v-3.63a4.8,4.8,0,0,0-4.8-4.8Z"/><path class="cls-21" d="M161.44,245.39h-6a5.73,5.73,0,0,1-5.73-5.73V236a5.73,5.73,0,0,1,5.73-5.73h6a5.73,5.73,0,0,1,5.73,5.73v3.63A5.73,5.73,0,0,1,161.44,245.39Zm-6-14.16a4.81,4.81,0,0,0-4.8,4.8v3.63a4.81,4.81,0,0,0,4.8,4.8h6a4.8,4.8,0,0,0,4.8-4.8V236a4.8,4.8,0,0,0-4.8-4.8Z"/><path class="cls-21" d="M151.53,262.41h-6a5.73,5.73,0,0,1-5.73-5.73v-3.63a5.73,5.73,0,0,1,5.73-5.73h6a5.73,5.73,0,0,1,5.73,5.73v3.63A5.73,5.73,0,0,1,151.53,262.41Zm-6-14.16a4.8,4.8,0,0,0-4.8,4.8v3.63a4.81,4.81,0,0,0,4.8,4.8h6a4.81,4.81,0,0,0,4.8-4.8v-3.63a4.8,4.8,0,0,0-4.8-4.8Z"/><path class="cls-21" d="M137.14,274h-6a5.74,5.74,0,0,1-5.73-5.73v-3.63a5.74,5.74,0,0,1,5.73-5.73h6a5.74,5.74,0,0,1,5.73,5.73v3.63A5.74,5.74,0,0,1,137.14,274Zm-6-14.16a4.8,4.8,0,0,0-4.8,4.8v3.63a4.8,4.8,0,0,0,4.8,4.8h6a4.8,4.8,0,0,0,4.8-4.8v-3.63a4.8,4.8,0,0,0-4.8-4.8Z"/><path class="cls-21" d="M118.88,283.92h-6a5.73,5.73,0,0,1-5.73-5.73v-3.63a5.73,5.73,0,0,1,5.73-5.73h6a5.73,5.73,0,0,1,5.73,5.73v3.63A5.73,5.73,0,0,1,118.88,283.92Zm-6-14.16a4.81,4.81,0,0,0-4.8,4.8v3.63a4.8,4.8,0,0,0,4.8,4.8h6a4.8,4.8,0,0,0,4.8-4.8v-3.63a4.81,4.81,0,0,0-4.8-4.8Z"/><path class="cls-21" d="M100.78,287.4h-6a5.73,5.73,0,0,1-5.73-5.73V278a5.74,5.74,0,0,1,5.73-5.73h6a5.74,5.74,0,0,1,5.73,5.73v3.63A5.73,5.73,0,0,1,100.78,287.4Zm-6-14.16A4.81,4.81,0,0,0,90,278v3.63a4.8,4.8,0,0,0,4.8,4.8h6a4.8,4.8,0,0,0,4.8-4.8V278a4.81,4.81,0,0,0-4.8-4.8Z"/><path class="cls-21" d="M80.66,284h-6A5.73,5.73,0,0,1,69,278.27v-3.63a5.73,5.73,0,0,1,5.73-5.73h6a5.73,5.73,0,0,1,5.73,5.73v3.63A5.73,5.73,0,0,1,80.66,284Zm-6-14.16a4.8,4.8,0,0,0-4.8,4.8v3.63a4.8,4.8,0,0,0,4.8,4.8h6a4.81,4.81,0,0,0,4.8-4.8v-3.63a4.81,4.81,0,0,0-4.8-4.8Z"/><path class="cls-21" d="M62.56,276.42h-6a5.73,5.73,0,0,1-5.73-5.73v-3.63a5.73,5.73,0,0,1,5.73-5.73h6a5.73,5.73,0,0,1,5.73,5.73v3.63A5.73,5.73,0,0,1,62.56,276.42Zm-6-14.16a4.81,4.81,0,0,0-4.8,4.8v3.63a4.81,4.81,0,0,0,4.8,4.8h6a4.81,4.81,0,0,0,4.8-4.8v-3.63a4.8,4.8,0,0,0-4.8-4.8Z"/><path class="cls-21" d="M47.24,263.34h-6a5.73,5.73,0,0,1-5.73-5.73V254a5.73,5.73,0,0,1,5.73-5.73h6A5.73,5.73,0,0,1,53,254v3.63A5.73,5.73,0,0,1,47.24,263.34Zm-6-14.16a4.81,4.81,0,0,0-4.8,4.8v3.63a4.81,4.81,0,0,0,4.8,4.8h6a4.8,4.8,0,0,0,4.8-4.8V254a4.8,4.8,0,0,0-4.8-4.8Z"/><path class="cls-21" d="M35.32,242.91h-6a5.73,5.73,0,0,1-5.73-5.73v-3.63a5.74,5.74,0,0,1,5.73-5.73h6a5.74,5.74,0,0,1,5.73,5.73v3.63A5.73,5.73,0,0,1,35.32,242.91Zm-6-14.16a4.8,4.8,0,0,0-4.8,4.8v3.63a4.81,4.81,0,0,0,4.8,4.8h6a4.81,4.81,0,0,0,4.8-4.8v-3.63a4.8,4.8,0,0,0-4.8-4.8Z"/><path class="cls-21" d="M31.3,225.58h-6a5.74,5.74,0,0,1-5.73-5.73v-3.63a5.74,5.74,0,0,1,5.73-5.73h6A5.74,5.74,0,0,1,37,216.22v3.63A5.74,5.74,0,0,1,31.3,225.58Zm-6-14.16a4.8,4.8,0,0,0-4.8,4.8v3.63a4.8,4.8,0,0,0,4.8,4.8h6a4.8,4.8,0,0,0,4.8-4.8v-3.63a4.8,4.8,0,0,0-4.8-4.8Z"/><path class="cls-21" d="M37.26,190.61h-6a5.73,5.73,0,0,1-5.73-5.73v-3.63a5.73,5.73,0,0,1,5.73-5.73h6A5.73,5.73,0,0,1,43,181.25v3.63A5.73,5.73,0,0,1,37.26,190.61Zm-6-14.16a4.81,4.81,0,0,0-4.8,4.8v3.63a4.81,4.81,0,0,0,4.8,4.8h6a4.81,4.81,0,0,0,4.8-4.8v-3.63a4.81,4.81,0,0,0-4.8-4.8Z"/><path class="cls-21" d="M32.77,209h-6a5.73,5.73,0,0,1-5.73-5.73v-3.63a5.73,5.73,0,0,1,5.73-5.73h6a5.73,5.73,0,0,1,5.73,5.73v3.63A5.73,5.73,0,0,1,32.77,209Zm-6-14.16a4.81,4.81,0,0,0-4.8,4.8v3.63a4.81,4.81,0,0,0,4.8,4.8h6a4.8,4.8,0,0,0,4.8-4.8v-3.63a4.8,4.8,0,0,0-4.8-4.8Z"/><path class="cls-30" d="M32.8,364.26c-.16-.08-16.38-8.13-10.77-27.78S50.15,317,50.34,317v.93c-.24,0-22-.07-27.4,18.85S33,363.35,33.21,363.43Z"/><path class="cls-30" d="M105.33,325.86q-2.64,0-5.38-.12a166,166,0,0,1-37.37-6.33l.28-.89c.69.22,68.92,21.14,90.45-14.34,11.48-18.92,9.31-22.36,8.36-23-2.74-1.75-12,4.87-16.87,12l-.77-.52c4.92-7.28,14.59-14.55,18.14-12.28C166.12,283,160,295,154.1,304.67,145.65,318.58,128.85,325.86,105.33,325.86Z"/><rect class="cls-30" x="122.17" y="312.94" width="21.59" height="0.93" transform="translate(-206.51 287.8) rotate(-62.7)"/><path class="cls-30" d="M37.12,349.28c-.08-.07-8.35-6.84-3.61-17S47.23,325,47.32,325l-.31.88c-.33-.12-8.25-2.74-12.66,6.72s3.27,15.86,3.35,15.92Z"/><path class="cls-30" d="M108.45,334.43c-23.35,0-48.37-8-48.66-8.05l.28-.88c.35.11,34.78,11.06,60.37,7.18,25.34-3.85,44.86-26.42,47.19-45.09.82-6.56-.8-11-4.55-12.55-5.64-2.29-14.5,2.35-21.08,11l-.74-.56c6.83-9,16.15-13.78,22.17-11.33,4.18,1.7,6,6.5,5.12,13.52-2.38,19-22.22,42-48,45.89A81.26,81.26,0,0,1,108.45,334.43Z"/><rect class="cls-30" x="112.17" y="309.92" width="30.83" height="0.93" transform="translate(-206.72 281.11) rotate(-62.65)"/><path class="cls-30" d="M103.1,366V353.8l14-20.71,8.49-1.54Zm.93-11.94v8.82l19.56-30.05-6,1.09Z"/><path class="cls-30" d="M27.76,360.45a4.52,4.52,0,0,1,.48-5.56,22.16,22.16,0,0,0,1.59-2.36c1.6-2.59,3.59-5.82,6.76-4.13l-.43.82c-2.23-1.19-3.64.74-5.53,3.8A22.81,22.81,0,0,1,29,355.48a3.58,3.58,0,0,0-.45,4.42Z"/><path class="cls-30" d="M23.73,355.84c0-.09-.36-2.24,2.45-5.05l.56-.56c2.5-2.52,5.32-5.37,8.62-4.31l-.28.88c-2.76-.88-5.25,1.64-7.68,4.08l-.56.56c-2.43,2.43-2.19,4.22-2.19,4.24Z"/><path class="cls-30" d="M21.59,350.41s-1.34-3.35,3.29-6l.08,0c4.27-2.44,6.42-3.67,9-1.28l-.63.68c-2.06-1.92-3.64-1-7.88,1.41l-.08,0c-3.93,2.25-2.91,4.81-2.9,4.83Z"/><path class="cls-30" d="M21.68,341.94l-.91-.13s.56-3.76,5.13-4.42,6.68,1.11,6.77,1.18l-.57.73s-2.06-1.56-6.07-1S21.7,341.81,21.68,341.94Z"/><path class="cls-30" d="M32.58,335.45s-1.06-.86-4.54-1.52-4.48.23-4.49.25l-.61-.7c.14-.12,1.44-1.18,5.27-.46s4.86,1.63,5,1.73Z"/><path class="cls-30" d="M33.6,332.76c-4.22-4.22-7.69-2.75-7.84-2.69l-.38-.85c.17-.08,4.18-1.82,8.88,2.88Z"/><path class="cls-30" d="M35.52,329.8a9,9,0,0,0-6.81-3.86V325a9.75,9.75,0,0,1,7.58,4.26Z"/><path class="cls-30" d="M37.93,327.2c-2.57-4.92-5.78-3.85-5.82-3.84l-.31-.88c.16-.06,4-1.34,6.95,4.28Z"/><path class="cls-30" d="M40.67,325.68c-1-4.49-3-5.22-3.05-5.22l.27-.89c.11,0,2.6.83,3.69,5.92Z"/><path class="cls-30" d="M44.84,324.89h-.93a9.91,9.91,0,0,0-2-6.3l.69-.62A10.73,10.73,0,0,1,44.84,324.89Z"/><path class="cls-30" d="M64.33,326.95l-.91-.17a15.64,15.64,0,0,0-.67-7.86l.86-.35A16.35,16.35,0,0,1,64.33,326.95Z"/><path class="cls-30" d="M67.93,328.55l-.92-.12c.67-5.32-.85-8-.87-8.07l.8-.47C67,320,68.64,322.88,67.93,328.55Z"/><path class="cls-30" d="M71.87,329.29l-.9-.21c1.2-5.14-.49-7.61-.51-7.63l.75-.54C71.29,321,73.18,323.69,71.87,329.29Z"/><path class="cls-30" d="M75.94,330.12,75,330c.95-5.4-.74-7.66-.76-7.68l.73-.58C75.07,321.8,77,324.25,75.94,330.12Z"/><path class="cls-30" d="M81,330.89l-.91-.15c.88-5.27-.53-7.46-.55-7.48l.77-.52C80.34,322.83,81.92,325.19,81,330.89Z"/><path class="cls-21" d="M87.19,332.06l-.91-.17c1.09-5.77-1.22-7.9-1.24-7.92l.61-.7C85.76,323.36,88.39,325.72,87.19,332.06Z"/><path class="cls-21" d="M93.21,333.28l-.88-.29c2-5.86-1.18-8-1.21-8.05l.51-.77C91.79,324.26,95.39,326.75,93.21,333.28Z"/><path class="cls-30" d="M100.18,334l-.89-.25c1.63-5.87-1-8.25-1.13-8.34l.6-.71C98.89,324.76,102,327.47,100.18,334Z"/><path class="cls-30" d="M105.88,334.15,105,334c1.09-5.23-1.39-7.83-1.5-7.93l.66-.66C104.25,325.5,107.07,328.4,105.88,334.15Z"/><path class="cls-30" d="M111.31,334.46l-.87-.34c2.17-5.54-1.45-8.49-1.48-8.52l.58-.73S113.73,328.29,111.31,334.46Z"/><path class="cls-30" d="M117,334.28l-.9-.24a11.28,11.28,0,0,0-1.21-8.48l.76-.55A12,12,0,0,1,117,334.28Z"/><path class="cls-30" d="M126.81,332.13l-.87-.33a9.07,9.07,0,0,0-.65-7.82l.77-.52A9.89,9.89,0,0,1,126.81,332.13Z"/><path class="cls-30" d="M134.75,329.36l-.86-.36c2-4.8-1.63-7.1-1.79-7.2l.48-.79A6.54,6.54,0,0,1,134.75,329.36Z"/><path class="cls-30" d="M140.46,326.26l-.91-.18a5.73,5.73,0,0,0-2.44-6.24l.45-.82A6.69,6.69,0,0,1,140.46,326.26Z"/><path class="cls-30" d="M144.53,323.57l-.92-.14a5.42,5.42,0,0,0-.75-4.19,3.57,3.57,0,0,0-2.21-1.32l.1-.92a4.52,4.52,0,0,1,2.84,1.68A6.28,6.28,0,0,1,144.53,323.57Z"/><path class="cls-30" d="M148,320.27a6.22,6.22,0,0,0-3.21-5.19l.39-.84a7.14,7.14,0,0,1,3.75,6Z"/><path class="cls-30" d="M155.79,313.45l-.92-.1c.49-4.58-3.24-5.19-3.4-5.22l.13-.92S156.37,308,155.79,313.45Z"/><path class="cls-30" d="M159.12,309.26l-.93-.07c.35-4.74-3.68-5.29-3.85-5.31l.11-.92A5.52,5.52,0,0,1,159.12,309.26Z"/><path class="cls-30" d="M161.29,305c-.57-5.4-4.3-5.47-4.34-5.47v-.93s4.6.07,5.26,6.3Z"/><path class="cls-30" d="M164.62,299c-.84-4.83-5-4.39-5.17-4.38l-.11-.92a5.7,5.7,0,0,1,6.2,5.14Z"/><path class="cls-30" d="M166.71,292.12a3.61,3.61,0,0,0-1.6-2.81,4.3,4.3,0,0,0-3.33,0l-.37-.85a5.2,5.2,0,0,1,4.15,0,4.47,4.47,0,0,1,2.07,3.48Z"/><path class="cls-30" d="M168.17,286.26a3.71,3.71,0,0,0-2.32-1.79,3.78,3.78,0,0,0-2.6.53l-.52-.77a4.69,4.69,0,0,1,3.3-.67,4.6,4.6,0,0,1,2.92,2.2Z"/><path class="cls-30" d="M161.71,280.37l-.92-.09a3.57,3.57,0,0,1,1.38-2.31c1.15-.88,2.82-1.14,5-.77l-.16.91c-1.88-.32-3.31-.12-4.24.59A2.67,2.67,0,0,0,161.71,280.37Z"/><path class="cls-30" d="M156.64,281.66c-.05-.13-1.3-3.25,0-5.72a5.13,5.13,0,0,1,3.6-2.57l.22.9a4.25,4.25,0,0,0-3,2.09c-1.08,2.1,0,4.91.06,4.94Z"/><path class="cls-30" d="M153.85,284.27c-3.57-.61-3.86-4.87-3.51-7l.92.15c0,.22-.81,5.36,2.75,6Z"/><path class="cls-30" d="M149.36,287.75c-3.93-.38-4.68-6.53-4.71-6.79l.92-.11c0,.06.7,5.67,3.88,6Z"/><path class="cls-30" d="M146.35,291.21c-3.56-1.23-4.77-5.7-4.82-5.89l.9-.24s1.14,4.19,4.23,5.25Z"/><rect class="cls-30" x="134.44" y="298.64" width="0.93" height="3.75" transform="translate(-194.22 314.22) rotate(-68.21)"/><path class="cls-30" d="M137.8,304.93a9,9,0,0,1-6.38-2.59l.69-.62A8.19,8.19,0,0,0,137.8,304Z"/><path class="cls-30" d="M134.83,306.88a5.56,5.56,0,0,1-4.56-2l.76-.53-.38.27.38-.27c.07.09,1.68,2.28,5.48,1.44l.2.91A8.57,8.57,0,0,1,134.83,306.88Z"/><path class="cls-30" d="M133.69,310a7.24,7.24,0,0,1-4.93-2.08l.67-.64a6.12,6.12,0,0,0,5.81,1.57l.24.9A6.85,6.85,0,0,1,133.69,310Z"/><path class="cls-30" d="M131.35,312.47a5.66,5.66,0,0,1-4.24-1.87l.73-.57c.08.1,2.1,2.56,5.88,1l.35.86A7.18,7.18,0,0,1,131.35,312.47Z"/><path class="cls-30" d="M130.2,315.13a8.14,8.14,0,0,1-4.39-1.43l.55-.75s3,2.14,6,.8l.38.85A6,6,0,0,1,130.2,315.13Z"/><path class="cls-30" d="M129.41,318a10.46,10.46,0,0,1-5.14-1.73l.52-.77s3.69,2.47,6.35,1.2l.4.84A5,5,0,0,1,129.41,318Z"/><path class="cls-30" d="M127.12,320.48a7.53,7.53,0,0,1-4-1.21l.53-.76a6.21,6.21,0,0,0,6,.43l.41.83A6.56,6.56,0,0,1,127.12,320.48Z"/><path class="cls-30" d="M124.3,323.37a5.9,5.9,0,0,1-3.29-.85l.54-.76c.1.07,2.57,1.73,7-.43l.4.84A10.75,10.75,0,0,1,124.3,323.37Z"/><path class="cls-30" d="M120,337.16a7.87,7.87,0,0,1-4.14-1.57l.56-.74s3.22,2.43,5.23.82l.58.73A3.49,3.49,0,0,1,120,337.16Z"/><path class="cls-30" d="M122.05,334.71a9.86,9.86,0,0,1-4.22-1l.4-.84a8.13,8.13,0,0,0,4.88.82l.22.9A6,6,0,0,1,122.05,334.71Z"/><path class="cls-30" d="M118.59,339.63a5.2,5.2,0,0,1-4.13-2.47l.8-.46a3.94,3.94,0,0,0,4.56,1.8l.29.88A4.88,4.88,0,0,1,118.59,339.63Z"/><path class="cls-30" d="M117,342.22a5.9,5.9,0,0,1-4.07-2.14l.71-.6s2.41,2.78,4.67,1.45l.47.8A3.44,3.44,0,0,1,117,342.22Z"/><path class="cls-30" d="M115.12,344.61a5.53,5.53,0,0,1-3.78-1.88l.69-.62c.1.11,2.39,2.61,4.57,1.09l.53.76A3.47,3.47,0,0,1,115.12,344.61Z"/><path class="cls-21" d="M113.73,347.65a5.29,5.29,0,0,1-4.23-2.84l.81-.45c.07.13,1.85,3.26,4.6,2.12l.35.86A4,4,0,0,1,113.73,347.65Z"/><path class="cls-21" d="M111.54,350.62a4,4,0,0,1-2.87-1.13,4.57,4.57,0,0,1-1.14-1.84l.89-.25c0,.13.95,3.1,4.53,2.08l.25.89A6.19,6.19,0,0,1,111.54,350.62Z"/><path class="cls-21" d="M109.31,353.41a4.64,4.64,0,0,1-4-2.83l.85-.38c.06.13,1.49,3.21,4.51,2l.35.86A4.54,4.54,0,0,1,109.31,353.41Z"/><path class="cls-21" d="M108.25,356.29c-2.15,0-3.72-2-4.33-3.23l.84-.4c.07.15,1.79,3.62,4.59,2.48l.35.86A3.86,3.86,0,0,1,108.25,356.29Z"/><path class="cls-21" d="M106.06,359.62a2.15,2.15,0,0,1-1.14-.32,4.18,4.18,0,0,1-1.51-2.83l.92-.1a3.22,3.22,0,0,0,1.07,2.14,1.54,1.54,0,0,0,1.4,0l.32.87A3.1,3.1,0,0,1,106.06,359.62Z"/><polygon class="cls-31" points="329.64 312.01 329.64 362.61 420.63 389.07 420.63 312.24 329.64 312.01"/><path class="cls-23" d="M421.09,389.69l-.59-.17L329.18,363V311.54h.46l91.45.23Zm-91-27.43,90.06,26.19V312.7l-90.06-.23Z"/><g class="cls-32"><circle class="cls-23" cx="330.34" cy="216.61" r="19.26"/></g><path class="cls-23" d="M330.34,236.34a19.73,19.73,0,1,1,19.73-19.73A19.75,19.75,0,0,1,330.34,236.34Zm0-38.53a18.8,18.8,0,1,0,18.8,18.8A18.82,18.82,0,0,0,330.34,197.81Z"/><g class="cls-32"><circle class="cls-23" cx="350.53" cy="227.06" r="11.14"/></g><path class="cls-23" d="M350.53,238.66a11.61,11.61,0,1,1,11.61-11.61A11.62,11.62,0,0,1,350.53,238.66Zm0-22.28a10.68,10.68,0,1,0,10.68,10.68A10.69,10.69,0,0,0,350.53,216.38Z"/><g class="cls-32"><circle class="cls-23" cx="193.19" cy="170.19" r="9.05"/></g><path class="cls-23" d="M193.19,179.71a9.52,9.52,0,1,1,9.52-9.52A9.53,9.53,0,0,1,193.19,179.71Zm0-18.11a8.59,8.59,0,1,0,8.59,8.59A8.6,8.6,0,0,0,193.19,161.6Z"/><g class="cls-32"><circle class="cls-23" cx="217.3" cy="166.24" r="14.86"/></g><path class="cls-23" d="M217.3,181.56a15.32,15.32,0,1,1,15.32-15.32A15.34,15.34,0,0,1,217.3,181.56Zm0-29.71a14.39,14.39,0,1,0,14.39,14.39A14.41,14.41,0,0,0,217.3,151.85Z"/><path class="cls-30" d="M35.22,356.75,34,356.16a.32.32,0,0,0,0,.24,5.08,5.08,0,0,0-.7-.75c-1.79-1.75-6-5.84-6.43-16.93-.54-13.59,17-17.55,20.6-18.21l-.29-2.87,1.31-.13.41,4.11-.62.09c-.21,0-20.64,3.11-20.1,17,.42,10.57,4.21,14.26,6,16C35,355.44,35.58,356,35.22,356.75Z"/><rect class="cls-30" x="71.05" y="313.94" width="1.31" height="21.31" transform="translate(-260.71 322.03) rotate(-77.1)"/><path class="cls-30" d="M99.9,329.78c-1.89,0-3.08,0-3.33,0l0-1.32c.34,0,33.9,1.13,46.78-10.17l.87,1C133.3,328.85,108.86,329.78,99.9,329.78Z"/><path class="cls-30" d="M153.58,311.32l-.91-.95a44.39,44.39,0,0,0,11.18-22.85c.76-4.56-.27-7.64-2.91-8.66-4.17-1.63-12.13,2-17.36,10.06l-1.1-.72c5.14-7.89,13.63-12.63,18.94-10.57,1.9.74,4.91,3,3.73,10.11A44.9,44.9,0,0,1,153.58,311.32Z"/><rect class="cls-30" x="117.57" y="311.18" width="25.85" height="1.32" transform="translate(-206.74 288.48) rotate(-63.33)"/><rect class="cls-30" x="96.94" y="345.7" width="30.19" height="1.31" transform="translate(-239.36 251.28) rotate(-56.93)"/><rect class="cls-33" x="363.99" y="317.58" width="19.03" height="58.26" rx="5.26" ry="5.26"/><path class="cls-23" d="M377.76,376.3h-8.51a5.74,5.74,0,0,1-5.73-5.73V322.84a5.74,5.74,0,0,1,5.73-5.73h8.51a5.73,5.73,0,0,1,5.73,5.73v47.73A5.73,5.73,0,0,1,377.76,376.3ZM369.26,318a4.8,4.8,0,0,0-4.8,4.8v47.73a4.8,4.8,0,0,0,4.8,4.8h8.51a4.8,4.8,0,0,0,4.8-4.8V322.84a4.8,4.8,0,0,0-4.8-4.8Z"/><path class="cls-34" d="M360.59,361.91v-2.79h-3v2.55h-2.32V357.5h1.86v-5.34h-3.48l-3.25-24.37-2.09,23.44H346.2l-9.28-36.91-3.48,32.73-4.64-16.25V329l-1.62-8.36-.93,8.36.46,2.09L322.29,348V334.75l2.32-6.5V319.9h-1v1.51h-1v-2.09h-1v-2l.87-.87V314.1l-6.79-26.34-.46-5.45-.58-8.47-1,8.24v5.8l-3.25,25.76v2.55l.81.81v1.63h-1.39v-2.09h-2v3.83h-2.21v-3.13h-5.22v3l-1-1V290.54l3.71-3.95v-7.08H301.4v2.79l-.46-.46V278H299.2v2.55h-1.63v-4.64h-2V259.44h1.28v-3.25l2-3.71v-6.73l-2.79-2.67-2.9-1.86v-2.67h.7v-5.46l-1.39-8.47h-2.32l-2.67-20.77v-3.6h4.76v-2.67h-5.57v5.69L284.34,225l-1.92,1.92V240.4l.67.67v2.23l-5.95,3.25v8.82l4.52,7.08v13.81l-6.5,3.83v7.08s-3.36,15.2-3.36,14.85V248.18l.81-2.44-2.09-2.21-6.85-33.66-4.41,32.26L257.18,246v3h-2.44v-3.36l-3.95-9.05h1.28V221.14L248,222.76l-3.95-52.46-.08,1v-1L240,222.76,236,221.14v15.43h1.28l-3.95,9.05V249h-2.44v-3l-2.09-3.83-4.41-32.26-6.85,33.66-2.09,2.21.81,2.44V302c0,.35-3.37-14.85-3.37-14.85v-7.08l-6.5-3.83V262.45l4.53-7.08v-8.82L205,243.3v-2.23l.67-.67V226.88L203.72,225l-2.32-21.7v-5.69h-5.57v2.67h4.76v3.6l-2.67,20.77H195.6l-1.39,8.47v5.46h.7v2.67l-2.9,1.86-2.79,2.67v6.73l2,3.71v3.25h1.28v16.48h-2v4.64h-1.63V278h-1.74v3.83l-.46.46v-2.79h-1.51v7.08l3.71,3.95V319.2l-1,1v-3H182.6v3.13h-2.21v-3.83h-2v2.09H177V317l.81-.81v-2.55l-3.25-25.76v-5.8l-1-8.24L173,282.3l-.46,5.45-6.79,26.34v2.38l.87.87v2h-1v2.09h-1V319.9h-1v8.36l2.32,6.5V348L161.36,331l.46-2.09-.93-8.36L159.27,329v1.86l-4.64,16.25-3.48-32.73-9.28,36.91h-2.09l-2.09-23.44-3.25,24.37H131v5.34h1.86v4.18h-2.32v-2.55h-3v2.79h-7v50.83h247V361.91Z"/><path class="cls-23" d="M368,413.21H120V361.45h7v-2.78H131v2.55h1.39V358h-1.86V351.7H134l3.75-28.11,2.42,27.18h1.3l9.83-39.08,3.5,32.95,4-13.89V329L161,317.52,162.29,329l-.46,2.06,3.47,13.33v-9.52L163,328.26v-8.82h2v1.51h.12v-2.09h1v-1.32l-.87-.87V314l6.79-26.34.45-5.38.58-8.46.92,0,1,8.24v5.86l3.25,25.71v2.49h2.55v3.83h1.28v-3.13h6.15v2.36l.12-.12V290.72l-3.71-3.94V279h2v-1.51h2.67v2.55h.7v-4.64h2V259.9h-1.28v-3.6l-2-3.71v-7l2.93-2.81,2.76-1.77v-2h-.7v-5.92l1.46-8.94h2.31l2.62-20.37v-3.07h-4.76v-3.6h6.5v6.15l2.3,21.49,1.93,1.93v13.91l-.67.67V243l5.95,3.25v9.23l-4.53,7.08V276l6.5,3.83v7.29c.75,3.39,1.73,7.79,2.44,10.91V248.25l-.88-2.63,2.19-2.31,7.37-36.2L229.24,242l2.11,3.86v2.67h1.51l0-3.09,3.66-8.4h-1V220.45l4.11,1.64,3.9-51.82h1l3.9,51.82,4.11-1.64V237h-1l3.7,8.59v2.9h1.51v-2.67l2.11-3.86,4.77-34.89,7.37,36.2,2.19,2.31-.88,2.63V298c.71-3.12,1.69-7.52,2.44-10.91v-7.29l6.5-3.83V262.59l-4.53-7.08v-9.23l5.95-3.25v-1.77l-.67-.67V226.69l1.93-1.93,2.31-21.54v-6.1h6.5v3.6h-4.76v3.13l2.61,20.31h2.31l1.46,8.86v6h-.7v2l2.69,1.72,3,2.86v7l-2,3.71v3.6h-1.28v15.55h2v4.64h.7v-2.55h2.67V279h2v7.73l-3.71,3.94V319l.12.12v-2.36h6.15v3.13h1.28v-3.83h2.55v-2.44L313,287.81v-5.74l1-8.3.92,0,.58,8.47.46,5.45,6.79,26.38v2.57l-.87.87v1.32h1v2.09h.12v-1.51h2l0,9-2.29,6.42v9.52L326.22,331l-.46-2.06L327,317.52l2.21,11.34v1.88l4,13.89,3.5-32.95,9.83,39.08h1.3l2.42-27.18L354,351.7h3.54V358h-1.86v3.25h1.39v-2.55h3.94v2.78h7Zm-247-.93H367.09v-49.9h-7v-2.79H358v2.55h-3.25V357h1.86v-4.41h-3.42L350.47,332l-1.76,19.71h-2.87L337.1,317l-3.46,32.51-5.32-18.67V329l-1-5.29-.59,5.26.47,2.12-5.35,20.56,0-17,2.29-6.42v-7.81H324v1.51h-2v-2.09h-1v-2.63l.87-.87v-2.13l-6.77-26.29-.48-5.53-.25-3.73-.45,3.52v5.74l-3.25,25.82V316l.81.81v2.28h-2.32V317h-1v3.83H305v-3.13h-4.29v3.67l-2-2v-29l3.71-3.95V280h-.58v3.44L300.47,282v-3.56h-.81V281h-2.55v-4.64h-2V259h1.28v-2.9l2-3.71v-6.42l-2.64-2.53-3-1.94v-3.39h.7v-5l-1.32-8h-2.34l-2.7-21-2.25,21.09-1.9,1.89v13.14l.67.67v2.7l-5.95,3.25v8.41l4.52,7.08v14.21l-6.5,3.83v6.92c-2.21,10-3,13.4-3.36,14.59V302h-.05c-.17.47-.27.47-.4.47h-.19l-.28-.27V248.1l.75-2.25-2-2.1,0-.13-6.3-31-4.05,29.64-2.07,3.8v3.36h-3.37v-3.73l-4.19-9.61h1.52V221.82l-4,1.61L244,176l-3.57,47.45-4-1.61v14.29H238l-4.19,9.61v3.73h-3.37v-3.36l-2.08-3.89-4-29.56L218,243.76l-2,2.1.75,2.32v54.31h-.46c-.14,0-.24,0-.41-.47h-.06v-.17c-.39-1.2-1.16-4.66-3.36-14.59v-6.92l-6.5-3.83V262.32l4.53-7.08v-8.41l-5.95-3.25v-2.7l.67-.67V227.07l-1.9-1.89L201,204.09l-2.7,21H196l-1.33,8.08v4.91h.7v3.39l-3.12,2-2.57,2.48v6.42l2,3.71V259h1.28v17.41h-2V281H188.4v-2.55h-.81V282l-1.39,1.39V280h-.58v6.43l3.71,3.95v29l-2,2v-3.67h-4.3v3.13h-3.13V317h-1v2.09h-2.32v-2.28l.81-.81v-2.36l-3.25-25.71v-5.86l-.44-3.47-.25,3.73-.47,5.46-6.79,26.36v2.13l.87.87v2.63h-1v2.09h-2v-1.51h-.12v7.81l2.32,6.58v16.86L160.88,331l.47-2.12-.58-5.25-1,5.37v1.83l0,.06-5.3,18.54L151,317l-8.74,34.73h-2.88L137.59,332l-2.75,20.63h-3.42V357h1.86v5.11H130v-2.55h-2.09v2.79h-7Zm189.13-94.12h.46v-1l-.46-.46Zm-132.61,0H178v-1.43l-.46.46ZM287.13,199.78h4.64V198h-4.64Zm-90.83,0h4.64V198h-4.64Z"/><polygon class="cls-23" points="188.91 369.26 120.89 369.26 120.89 368.33 188.75 368.33 195.48 366.01 201.67 366.01 201.67 355.95 199.5 355.95 199.5 361.22 194.86 361.22 194.86 362.76 190.53 362.76 190.53 359.05 189.6 359.05 189.6 362.76 183.57 362.76 183.57 358.43 180.78 358.43 180.78 362.61 174.59 362.61 174.59 358.89 171.96 358.89 171.96 362.76 167.32 362.76 167.32 358.27 162.37 358.27 162.37 361.68 157.72 361.68 157.72 359.05 154.94 359.05 154.94 354.56 152.15 354.56 152.15 357.35 147.97 357.35 147.97 355.18 145.65 355.18 145.65 356.42 142.41 356.42 142.41 359.05 136.21 359.05 136.21 362.14 132.19 362.14 132.19 361.22 135.29 361.22 135.29 358.12 141.48 358.12 141.48 355.49 144.73 355.49 144.73 354.25 148.91 354.25 148.91 356.42 151.23 356.42 151.23 353.63 155.87 353.63 155.87 358.12 158.65 358.12 158.65 360.75 161.44 360.75 161.44 357.35 168.25 357.35 168.25 361.83 171.03 361.83 171.03 357.96 175.52 357.96 175.52 361.68 179.85 361.68 179.85 357.5 184.49 357.5 184.49 361.83 188.67 361.83 188.67 358.12 191.46 358.12 191.46 361.83 193.93 361.83 193.93 354.37 195.63 356.07 195.63 360.29 198.58 360.29 198.58 355.03 202.6 355.03 202.6 366.94 195.56 366.94 188.91 369.26"/><polygon class="cls-23" points="198.73 320.02 194.2 320.02 194.2 317.12 191.19 317.12 191.19 319.67 188.87 319.67 188.87 318.74 190.26 318.74 190.26 316.19 195.13 316.19 195.13 319.09 197.8 319.09 197.8 316.53 203.26 316.53 203.26 319.67 202.33 319.67 202.33 317.46 198.73 317.46 198.73 320.02"/><polygon class="cls-23" points="212.56 285.48 206.73 281.79 200.67 279.82 192.37 279.82 185.53 284.39 185.01 283.61 192.09 278.89 200.89 278.92 207.18 280.98 213.06 284.69 212.56 285.48"/><rect class="cls-23" x="192.46" y="275.45" width="13.93" height="0.93"/><rect class="cls-23" x="194.9" y="240.75" width="10.33" height="0.93"/><polygon class="cls-23" points="210.85 253.29 204.25 247.71 195.63 247.6 189.72 251.92 189.17 251.17 195.33 246.67 204.59 246.79 211.45 252.58 210.85 253.29"/><polygon class="cls-23" points="205.54 240.09 201.02 236.92 197.93 236.92 194.44 238.95 193.97 238.14 197.68 235.99 201.31 235.99 206.08 239.33 205.54 240.09"/><polygon class="cls-23" points="205.58 227.72 203.51 225.43 195.6 225.43 195.6 224.5 203.93 224.5 206.27 227.09 205.58 227.72"/><path class="cls-23" d="M163.7,328.65l-.49-.79,4.52-2.86H203.6l0-5.58,9.29-34.1,8.22,33.18v5.07l-3.83-2.05H204.53v4.41H168Zm40.84-8.05h13L220.2,322v-3.46L212.87,289l-8.33,30.6Z"/><polygon class="cls-23" points="231.11 283.53 226.51 281.95 216.72 281.95 216.72 281.02 226.73 281.05 230.18 282.23 230.18 248.99 231.11 248.99 231.11 283.53"/><polygon class="cls-23" points="215.83 245.53 215.28 244.79 219.35 241.79 228.9 241.79 228.9 242.72 219.66 242.72 215.83 245.53"/><rect class="cls-23" x="217.07" y="243.54" width="0.93" height="38.41"/><polygon class="cls-23" points="243.99 262.34 236.91 262.34 236.91 260.36 233.94 260.36 242.64 235.04 240.94 236.81 236.56 236.81 236.56 235.88 240.54 235.88 244.88 231.37 235.24 259.44 237.84 259.44 237.84 261.41 243.99 261.41 243.99 262.34"/><polygon class="cls-23" points="243.88 271.16 236.91 271.16 236.91 261.87 237.84 261.87 237.84 270.23 243.88 270.23 243.88 271.16"/><polygon class="cls-23" points="234.13 282.44 234.13 272.67 237.09 270.33 237.67 271.06 235.06 273.12 235.06 279.83 237.39 276.96 243.76 276.96 243.76 277.89 237.83 277.89 234.13 282.44"/><polygon class="cls-23" points="238.23 290.89 234.16 281.32 235.02 280.96 238.84 289.95 243.87 289.84 243.88 290.77 238.23 290.89"/><polygon class="cls-23" points="226.24 412.63 225.31 412.63 225.31 329.65 228.2 329.65 238.09 290.31 238.99 290.54 228.92 330.58 226.24 330.58 226.24 412.63"/><path class="cls-23" d="M243.68,332.9a6.11,6.11,0,1,1,6.11-6.11A6.12,6.12,0,0,1,243.68,332.9Zm0-11.3a5.18,5.18,0,1,0,5.18,5.18A5.19,5.19,0,0,0,243.68,321.6Z"/><polygon class="cls-23" points="242.06 364.77 230.45 364.77 230.47 340.04 243.63 297.17 244.51 297.44 231.38 340.24 231.38 363.85 241.13 363.85 241.13 345.82 237.65 335.39 232.77 345.85 232.77 361.06 231.84 361.06 231.89 345.54 237.8 332.88 242.06 345.74 242.06 364.77"/><path class="cls-23" d="M263.33,413.05h-6.64v-.46c0-28.57-11.73-31.09-11.84-31.11h-1.7s-11.76,2.53-11.76,31.1v.46h-6.64v-.45c0-.32-.41-31.52,18.43-37.43l.14,0,1.61,0c18.84,5.92,18.44,37.12,18.43,37.43Zm-5.72-.93h4.8c0-3.84-.83-30.68-17.71-36.06h-1.33c-16.89,5.38-17.69,32.22-17.71,36.06h4.8c.13-29,12.1-31.47,12.61-31.56h1.86C245.51,380.66,257.48,383.11,257.61,412.13Z"/><polygon class="cls-23" points="203.37 411.35 202.44 411.35 202.44 350.69 218.77 350.69 218.77 351.62 203.37 351.62 203.37 411.35"/><rect class="cls-23" x="217.61" y="353.79" width="0.93" height="59.42"/><path class="cls-23" d="M197.94,338.88l7.5-8.73h12.94l8.11,8.25L219,337.11H204.55Zm7.93-7.8-5.27,6.13,3.89-1h14.62l4.69.81L218,331.08Z"/><polygon class="cls-23" points="198.7 347.88 201.36 342 201.36 337.81 202.29 337.81 202.25 342.3 200.54 346.08 204.73 344.31 220.1 344.34 223.59 345.72 222.48 342.22 222.48 337.35 223.41 337.35 223.41 342.15 225.09 347.31 219.84 345.24 204.82 345.24 198.7 347.88"/><polygon class="cls-35" points="120.51 361.91 99.85 370.04 103.26 363.85 103.26 353.94 99.23 353.94 99.23 338.47 89.64 307.52 78.19 338.16 78.19 354.56 72.93 354.56 72.93 364.47 77.88 370.65 50.34 370.65 48.01 368.33 43.84 368.33 43.84 362.92 33 362.92 33 367.87 29.29 367.87 25.27 371.89 25.27 408.41 120.59 409.65 120.51 361.91"/><path class="cls-23" d="M121.05,410.12,24.8,408.87V371.7l4.3-4.3h3.44v-5H44.3v5.42h3.91l2.32,2.32H76.91l-4.45-5.56V354.1h5.26l0-16.1,11.93-31.91,10,32.38v15h4V364l-2.84,5.17,20.1-7.9ZM25.73,408l94.39,1.23L120,362.59l-21.22,8.34,4-7.21v-9.32h-4V338.54L89.6,309,78.65,338.24V355H73.39v9.28l5.45,6.82H50.14l-2.32-2.32H43.37v-5.42h-9.9v5h-4l-3.75,3.75Z"/><rect class="cls-36" x="25.27" y="408.41" width="95.24" height="4.33"/><path class="cls-23" d="M121,413.21H24.8v-5.26H121Zm-95.24-.93H120v-3.41H25.73Z"/><rect class="cls-23" x="131.26" y="368.18" width="0.93" height="21.97"/><rect class="cls-23" x="154.63" y="389.69" width="33.73" height="0.93"/><rect class="cls-37" x="73.12" y="374.06" width="3.21" height="7.43"/><path class="cls-23" d="M76.79,381.95H72.66v-8.36h4.14ZM73.58,381h2.28v-6.5H73.58Z"/><rect class="cls-37" x="69.83" y="374.06" width="3.21" height="7.43"/><path class="cls-23" d="M73.51,381.95H69.37v-8.36h4.14ZM70.3,381h2.28v-6.5H70.3Z"/><rect class="cls-37" x="66.62" y="374.06" width="3.21" height="7.43"/><path class="cls-23" d="M70.3,381.95H66.15v-8.36H70.3ZM67.08,381h2.28v-6.5H67.08Z"/><rect class="cls-37" x="63.33" y="374.06" width="3.21" height="7.43"/><path class="cls-23" d="M67,381.95H62.87v-8.36H67ZM63.8,381h2.28v-6.5H63.8Z"/><rect class="cls-37" x="60.12" y="374.06" width="3.21" height="7.43"/><path class="cls-23" d="M63.8,381.95H59.66v-8.36H63.8ZM60.58,381h2.28v-6.5H60.58Z"/><rect class="cls-37" x="56.83" y="374.06" width="3.21" height="7.43"/><path class="cls-23" d="M60.51,381.95H56.37v-8.36h4.14ZM57.3,381h2.28v-6.5H57.3Z"/><rect class="cls-37" x="53.62" y="374.06" width="3.21" height="7.43"/><path class="cls-23" d="M57.3,381.95H53.16v-8.36H57.3ZM54.09,381h2.28v-6.5H54.09Z"/><rect class="cls-37" x="50.34" y="374.06" width="3.21" height="7.43"/><path class="cls-23" d="M54,381.95H49.87v-8.36H54ZM50.8,381h2.28v-6.5H50.8Z"/><rect class="cls-23" x="77.34" y="354.25" width="21.35" height="0.93"/><rect class="cls-23" x="72.69" y="356.57" width="30.41" height="0.93"/><rect class="cls-23" x="78.19" y="337.7" width="21.66" height="0.93"/><polygon class="cls-23" points="367.17 369.26 299.16 369.26 292.5 366.94 285.46 366.94 285.46 355.03 289.49 355.03 289.49 360.29 292.43 360.29 292.43 356.07 294.13 354.37 294.13 361.83 296.6 361.83 296.6 358.12 299.39 358.12 299.39 361.83 303.57 361.83 303.57 357.5 308.21 357.5 308.21 361.68 312.54 361.68 312.54 357.96 317.03 357.96 317.03 361.83 319.81 361.83 319.81 357.35 326.62 357.35 326.62 360.75 329.41 360.75 329.41 358.12 332.19 358.12 332.19 353.63 336.84 353.63 336.84 356.42 339.16 356.42 339.16 354.25 343.34 354.25 343.34 355.49 346.58 355.49 346.58 358.12 352.77 358.12 352.77 361.22 355.87 361.22 355.87 362.14 351.85 362.14 351.85 359.05 345.66 359.05 345.66 356.42 342.41 356.42 342.41 355.18 340.08 355.18 340.08 357.35 335.91 357.35 335.91 354.56 333.12 354.56 333.12 359.05 330.34 359.05 330.34 361.68 325.69 361.68 325.69 358.27 320.74 358.27 320.74 362.76 316.1 362.76 316.1 358.89 313.47 358.89 313.47 362.61 307.28 362.61 307.28 358.43 304.5 358.43 304.5 362.76 298.46 362.76 298.46 359.05 297.53 359.05 297.53 362.76 293.2 362.76 293.2 361.22 288.56 361.22 288.56 355.95 286.39 355.95 286.39 366.01 292.73 366.04 299.31 368.33 367.17 368.33 367.17 369.26"/><polygon class="cls-23" points="293.86 320.02 289.33 320.02 289.33 317.46 285.73 317.46 285.73 319.67 284.81 319.67 284.81 316.53 290.26 316.53 290.26 319.09 292.93 319.09 292.93 316.19 297.8 316.19 297.8 318.74 299.2 318.74 299.2 319.67 296.87 319.67 296.87 317.12 293.86 317.12 293.86 320.02"/><polygon class="cls-23" points="275.5 285.48 275 284.69 280.99 280.93 287.32 278.89 295.97 278.89 303.05 283.61 302.54 284.39 295.69 279.82 287.39 279.82 281.33 281.79 275.5 285.48"/><rect class="cls-23" x="281.67" y="275.45" width="13.93" height="0.93"/><rect class="cls-23" x="282.83" y="240.75" width="10.33" height="0.93"/><polygon class="cls-23" points="277.21 253.29 276.61 252.58 283.47 246.79 292.73 246.67 298.89 251.17 298.34 251.92 292.43 247.6 283.82 247.71 277.21 253.29"/><polygon class="cls-23" points="282.52 240.09 281.99 239.33 286.75 235.99 290.38 235.99 294.09 238.14 293.62 238.95 290.13 236.92 287.04 236.92 282.52 240.09"/><polyline class="cls-36" points="282.13 227.41 284.34 224.97 292.46 224.97"/><polygon class="cls-23" points="282.48 227.72 281.79 227.09 284.13 224.5 292.46 224.5 292.46 225.43 284.55 225.43 282.48 227.72"/><path class="cls-23" d="M325.14,327.88l-4.3-2.71H284.3v-4.41H271.54l-3.83,2.05v-5.18l8.2-33.07,9.31,34.22v5.45h35.88l4.52,2.86Zm-56.5-10.08v3.46l2.67-1.43h13v-1L276,288.24Z"/><polygon class="cls-23" points="272.23 245.53 268.41 242.72 259.16 242.72 259.16 241.79 268.71 241.79 272.78 244.79 272.23 245.53"/><polygon class="cls-23" points="256.95 283.53 256.95 248.99 257.88 248.99 257.88 282.23 261.48 281.02 271.34 281.02 271.34 281.95 261.56 281.95 256.95 283.53"/><rect class="cls-23" x="270.07" y="243.54" width="0.93" height="38.41"/><polygon class="cls-23" points="249.72 262.22 242.64 262.22 242.66 261.41 250.22 261.41 250.22 259.44 252.82 259.44 243.18 231.37 247.52 235.88 251.5 235.88 251.5 236.81 247.12 236.81 245.42 235.04 254.12 260.36 251.15 260.36 249.72 262.22"/><polygon class="cls-23" points="251.15 271.16 242.55 271.16 243.06 270.23 250.22 270.23 250.22 261.87 251.15 261.87 251.15 271.16"/><polygon class="cls-23" points="253.93 282.44 250.23 277.89 243.06 277.89 242.76 276.96 250.67 276.96 253.01 279.83 253.01 273.12 250.4 271.06 250.97 270.33 253.93 272.67 253.93 282.44"/><polygon class="cls-23" points="249.83 290.89 243.17 290.77 243.27 289.84 249.22 289.95 253.04 280.96 253.9 281.32 249.83 290.89"/><polygon class="cls-23" points="262.75 412.63 261.83 412.63 261.83 330.58 259.14 330.58 249.07 290.54 249.97 290.31 259.87 329.65 262.75 329.65 262.75 412.63"/><polygon class="cls-23" points="257.61 364.77 246 364.77 246.03 345.59 250.26 332.88 256.22 345.74 256.22 361.06 255.29 361.06 255.29 345.85 250.41 335.39 246.93 345.82 246.93 363.85 256.68 363.85 256.68 340.24 243.55 297.44 244.44 297.17 257.61 340.1 257.61 364.77"/><polygon class="cls-23" points="286.39 412.13 285.46 412.13 285.46 352.39 270.07 352.39 270.07 351.47 286.39 351.47 286.39 412.13"/><rect class="cls-23" x="269.52" y="353.79" width="0.93" height="59.42"/><path class="cls-23" d="M290.89,339.65l-6.61-1.76H269.72l-7.38,1.29,8.11-8.25h12.94ZM284.34,337h.12l3.77,1L283,331.85H270.84L265,337.77l4.61-.8Z"/><polygon class="cls-23" points="290.13 348.66 284.01 346.01 268.99 346.01 263.75 348.08 265.42 342.92 265.42 338.12 266.35 338.12 266.33 343.14 265.24 346.5 268.91 345.08 284.29 345.12 288.3 346.85 286.55 342.88 286.55 338.59 287.47 338.59 287.47 342.78 290.13 348.66"/><polygon class="cls-35" points="367.55 361.91 388.21 370.04 384.81 363.85 384.81 353.94 388.83 353.94 388.83 338.47 398.42 307.52 409.88 338.16 409.88 354.56 415.13 354.56 415.13 364.47 410.18 370.65 437.73 370.65 440.05 368.33 444.23 368.33 444.23 362.92 455.06 362.92 455.06 367.87 458.77 367.87 462.79 371.89 462.79 408.41 367.48 409.65 367.55 361.91"/><path class="cls-23" d="M367,410.12l.08-48.89,20.1,7.9L384.34,364V353.48h4l0-15.15,10-32.25,12,32.08V354.1h5.26v10.53l-4.45,5.56h26.39l2.32-2.32h3.91v-5.42h11.76v5H459l4.3,4.3v37.17h-.46Zm1-47.53-.08,46.59L462.33,408V372.08l-3.75-3.75h-4v-5h-9.9v5.42h-4.45l-2.32,2.32h-28.7l5.45-6.82V355h-5.26V338.24L398.46,309l-9.17,29.58v15.87h-4v9.32l4,7.21Z"/><rect class="cls-36" x="367.55" y="408.41" width="95.24" height="4.33"/><path class="cls-23" d="M463.26,413.21H367.09v-5.26h96.17ZM368,412.28h94.32v-3.41H368Z"/><rect class="cls-23" x="355.87" y="368.18" width="0.93" height="21.97"/><rect class="cls-23" x="299.7" y="389.69" width="33.73" height="0.93"/><rect class="cls-38" x="411.73" y="374.06" width="3.21" height="7.43"/><path class="cls-23" d="M415.41,381.95h-4.14v-8.36h4.14Zm-3.21-.93h2.28v-6.5h-2.28Z"/><rect class="cls-38" x="415.02" y="374.06" width="3.21" height="7.43"/><path class="cls-23" d="M418.69,381.95h-4.14v-8.36h4.14Zm-3.21-.93h2.28v-6.5h-2.28Z"/><rect class="cls-38" x="418.23" y="374.06" width="3.21" height="7.43"/><path class="cls-23" d="M421.91,381.95h-4.14v-8.36h4.14Zm-3.21-.93H421v-6.5h-2.29Z"/><rect class="cls-38" x="421.52" y="374.06" width="3.21" height="7.43"/><path class="cls-23" d="M425.19,381.95h-4.14v-8.36h4.14ZM422,381h2.28v-6.5H422Z"/><rect class="cls-38" x="424.73" y="374.06" width="3.21" height="7.43"/><path class="cls-23" d="M428.41,381.95h-4.14v-8.36h4.14Zm-3.21-.93h2.29v-6.5h-2.29Z"/><rect class="cls-38" x="428.02" y="374.06" width="3.21" height="7.43"/><path class="cls-23" d="M431.69,381.95h-4.14v-8.36h4.14Zm-3.21-.93h2.28v-6.5h-2.28Z"/><rect class="cls-38" x="431.23" y="374.06" width="3.21" height="7.43"/><path class="cls-23" d="M434.9,381.95h-4.14v-8.36h4.14Zm-3.21-.93H434v-6.5h-2.28Z"/><rect class="cls-38" x="434.51" y="374.06" width="3.21" height="7.43"/><path class="cls-23" d="M438.19,381.95h-4.14v-8.36h4.14ZM435,381h2.28v-6.5H435Z"/><rect class="cls-23" x="389.37" y="354.25" width="21.36" height="0.93"/><rect class="cls-23" x="384.96" y="356.57" width="30.41" height="0.93"/><rect class="cls-23" x="388.21" y="337.7" width="21.66" height="0.93"/><path class="cls-39" d="M51.06,168.25a5.68,5.68,0,0,1-5.68,5.68H42a5.68,5.68,0,0,1-5.68-5.68h0A5.68,5.68,0,0,1,42,162.57h3.38a5.68,5.68,0,0,1,5.68,5.68Z"/><path class="cls-39" d="M168,187.13a5.68,5.68,0,0,1-5.68,5.68H159a5.68,5.68,0,0,1-5.68-5.68h0a5.68,5.68,0,0,1,5.68-5.68h3.38a5.68,5.68,0,0,1,5.68,5.68Z"/><path class="cls-39" d="M172.65,203.86a5.68,5.68,0,0,1-5.68,5.68h-3.38a5.68,5.68,0,0,1-5.68-5.68h0a5.68,5.68,0,0,1,5.68-5.68H167a5.68,5.68,0,0,1,5.68,5.68Z"/><path class="cls-40" d="M43.39,185.14a5.68,5.68,0,0,1-5.68,5.68H34.33a5.68,5.68,0,0,1-5.68-5.68h0a5.68,5.68,0,0,1,5.68-5.68h3.38a5.68,5.68,0,0,1,5.68,5.68Z"/><path class="cls-40" d="M159.45,169.78a5.68,5.68,0,0,1-5.68,5.68h-3.38a5.68,5.68,0,0,1-5.68-5.68h0a5.68,5.68,0,0,1,5.68-5.68h3.38a5.68,5.68,0,0,1,5.68,5.68Z"/><path class="cls-41" d="M38,203.4a5.68,5.68,0,0,1-5.68,5.68H29a5.68,5.68,0,0,1-5.68-5.68h0A5.68,5.68,0,0,1,29,197.72h3.38A5.68,5.68,0,0,1,38,203.4Z"/><path class="cls-41" d="M144.56,156.43a5.68,5.68,0,0,1-5.68,5.68H135.5a5.68,5.68,0,0,1-5.68-5.68h0a5.68,5.68,0,0,1,5.68-5.68h3.38a5.68,5.68,0,0,1,5.68,5.68Z"/><path class="cls-42" d="M37.09,219.06a5.68,5.68,0,0,1-5.68,5.68H28a5.68,5.68,0,0,1-5.68-5.68h0A5.68,5.68,0,0,1,28,213.38h3.38a5.68,5.68,0,0,1,5.68,5.68Z"/><path class="cls-42" d="M125.21,147.22a5.68,5.68,0,0,1-5.68,5.68h-3.38a5.68,5.68,0,0,1-5.68-5.68h0a5.68,5.68,0,0,1,5.68-5.68h3.38a5.68,5.68,0,0,1,5.68,5.68Z"/><path class="cls-43" d="M41.76,236.32A5.68,5.68,0,0,1,36.08,242H32.7A5.68,5.68,0,0,1,27,236.32h0a5.68,5.68,0,0,1,5.68-5.68h3.38a5.68,5.68,0,0,1,5.68,5.68Z"/><path class="cls-43" d="M106.54,144.51a5.68,5.68,0,0,1-5.68,5.68H97.49a5.68,5.68,0,0,1-5.68-5.68h0a5.68,5.68,0,0,1,5.68-5.68h3.38a5.68,5.68,0,0,1,5.68,5.68Z"/><path class="cls-44" d="M52.41,257.25a5.68,5.68,0,0,1-5.68,5.68H43.35a5.68,5.68,0,0,1-5.68-5.68h0a5.68,5.68,0,0,1,5.68-5.68h3.38a5.68,5.68,0,0,1,5.68,5.68Z"/><path class="cls-44" d="M87.11,147.95a5.68,5.68,0,0,1-5.68,5.68H78a5.68,5.68,0,0,1-5.68-5.68h0A5.68,5.68,0,0,1,78,142.27h3.38a5.68,5.68,0,0,1,5.68,5.68Z"/><path class="cls-45" d="M68.58,270.56a5.68,5.68,0,0,1-5.68,5.68H59.52a5.68,5.68,0,0,1-5.68-5.68h0a5.68,5.68,0,0,1,5.68-5.68H62.9a5.68,5.68,0,0,1,5.68,5.68Z"/><path class="cls-45" d="M66.11,156.12a5.68,5.68,0,0,1-5.68,5.68H57.05a5.68,5.68,0,0,1-5.68-5.68h0a5.68,5.68,0,0,1,5.68-5.68h3.38a5.68,5.68,0,0,1,5.68,5.68Z"/><path class="cls-46" d="M86.59,278.13a5.68,5.68,0,0,1-5.68,5.68H77.54a5.68,5.68,0,0,1-5.68-5.68h0a5.68,5.68,0,0,1,5.68-5.68h3.38a5.68,5.68,0,0,1,5.68,5.68Z"/><path class="cls-47" d="M106.24,281.2a5.68,5.68,0,0,1-5.68,5.68H97.19a5.68,5.68,0,0,1-5.68-5.68h0a5.68,5.68,0,0,1,5.68-5.68h3.38a5.68,5.68,0,0,1,5.68,5.68Z"/><path class="cls-48" d="M124.24,278.34a5.68,5.68,0,0,1-5.68,5.68h-3.38a5.68,5.68,0,0,1-5.68-5.68h0a5.68,5.68,0,0,1,5.68-5.68h3.38a5.68,5.68,0,0,1,5.68,5.68Z"/><path class="cls-48" d="M108.33,203.91c0,5.55-4.07,10.05-9.1,10.05H93.83c-5,0-9.1-4.5-9.1-10.05h0c0-5.55,4.07-10.05,9.1-10.05h5.41c5,0,9.1,4.5,9.1,10.05Z"/><path class="cls-49" d="M141.84,267.9a5.68,5.68,0,0,1-5.68,5.68h-3.38a5.68,5.68,0,0,1-5.68-5.68h0a5.68,5.68,0,0,1,5.68-5.68h3.38a5.68,5.68,0,0,1,5.68,5.68Z"/><path class="cls-50" d="M106.23,201.46a5.68,5.68,0,0,1-5.68,5.68H97.17a5.68,5.68,0,0,1-5.68-5.68h0a5.68,5.68,0,0,1,5.68-5.68h3.38a5.68,5.68,0,0,1,5.68,5.68Z"/><path class="cls-51" d="M157.4,255.82a5.68,5.68,0,0,1-5.68,5.68h-3.38a5.68,5.68,0,0,1-5.68-5.68h0a5.68,5.68,0,0,1,5.68-5.68h3.38a5.68,5.68,0,0,1,5.68,5.68Z"/><path class="cls-52" d="M167,239.45a5.68,5.68,0,0,1-5.68,5.68H158a5.68,5.68,0,0,1-5.68-5.68h0a5.68,5.68,0,0,1,5.68-5.68h3.38a5.68,5.68,0,0,1,5.68,5.68Z"/><path class="cls-53" d="M172.75,220.82a5.68,5.68,0,0,1-5.68,5.68H163.7a5.68,5.68,0,0,1-5.68-5.68h0a5.68,5.68,0,0,1,5.68-5.68h3.38a5.68,5.68,0,0,1,5.68,5.68Z"/><path class="cls-54" d="M98.24,351.93a7.84,7.84,0,0,0,7.83,7.83H136a7.83,7.83,0,0,0,7.83-7.83h0A7.83,7.83,0,0,0,136,344.1H106.07a7.83,7.83,0,0,0-7.83,7.83Z"/><path class="cls-55" d="M101,386.08h11.48c3.91,0,7-1.23,9.15-3.65,4-4.53,3.31-11.56,3.27-11.85V359.77h-2.42v10.95c0,.2.66,6.4-2.67,10.11-1.68,1.88-4.15,2.83-7.34,2.83H101Z"/><path class="cls-55" d="M100.05,413.67h2.42V378.05h-9c-2.15,0-3.73-.54-4.68-1.6A4.91,4.91,0,0,1,87.78,373l-2.4-.29A7.3,7.3,0,0,0,87,378c1.43,1.62,3.62,2.44,6.51,2.44h6.53Z"/><path class="cls-55" d="M103.67,367h20.12v-2.42H103.67a6.27,6.27,0,0,1-5-1.92c-2.17-2.53-1.55-6.79-1.54-6.83V343.39H94.71v12.29s-.8,5.2,2.1,8.58A8.57,8.57,0,0,0,103.67,367Z"/><path class="cls-54" d="M79,336.9c.06,3.86,2.73,6.95,6,6.9l22.3-.35c3.23-.05,5.79-3.22,5.73-7.08h0c-.06-3.86-2.73-6.95-6-6.9l-22.3.35c-3.23,0-5.79,3.22-5.73,7.08Z"/><path class="cls-54" d="M75,367.34a5.88,5.88,0,0,0,5.88,5.88h22.43a5.88,5.88,0,0,0,5.88-5.88h0a5.88,5.88,0,0,0-5.88-5.88H80.88A5.88,5.88,0,0,0,75,367.34Z"/><path class="cls-56" d="M79.12,365.26a2.3,2.3,0,0,0,2.3,2.3h8.76a2.3,2.3,0,0,0,2.29-2.3h0A2.29,2.29,0,0,0,90.18,363H81.42a2.3,2.3,0,0,0-2.3,2.29Z"/><path class="cls-56" d="M90.34,333.39a2.3,2.3,0,0,0,2.29,2.3h8.76a2.3,2.3,0,0,0,2.29-2.3h0a2.29,2.29,0,0,0-2.29-2.29H92.63a2.29,2.29,0,0,0-2.29,2.29Z"/><path class="cls-56" d="M126.48,348.88a2.3,2.3,0,0,0,2.3,2.3h8.76a2.3,2.3,0,0,0,2.29-2.3h0a2.29,2.29,0,0,0-2.29-2.29h-8.76a2.3,2.3,0,0,0-2.3,2.29Z"/><path class="cls-54" d="M31.48,372.22a5.26,5.26,0,0,0,5.26,5.26H56.83a5.26,5.26,0,0,0,5.26-5.26h0A5.26,5.26,0,0,0,56.83,367H36.74a5.26,5.26,0,0,0-5.26,5.26Z"/><path class="cls-55" d="M33.33,395.15H41a7.85,7.85,0,0,0,6.14-2.45c2.72-3,2.22-7.76,2.2-8v-7.26H47.76v7.35c0,.13.44,4.3-1.79,6.79a6.3,6.3,0,0,1-4.93,1.9H33.33Z"/><path class="cls-55" d="M32.7,413.67h1.63V389.75h-6a4,4,0,0,1-3.14-1.07,3.29,3.29,0,0,1-.72-2.32l-1.61-.2a4.91,4.91,0,0,0,1.1,3.58,5.55,5.55,0,0,0,4.37,1.64H32.7Z"/><path class="cls-55" d="M35.13,382.36H48.64v-1.63H35.13a4.22,4.22,0,0,1-3.37-1.29c-1.45-1.7-1-4.56-1-4.59v-8.37H29.11v8.25s-.53,3.49,1.41,5.76A5.76,5.76,0,0,0,35.13,382.36Z"/><path class="cls-54" d="M18.58,362.12c0,2.59,1.83,4.67,4,4.63l15-.24c2.17,0,3.89-2.16,3.85-4.76h0c0-2.59-1.83-4.67-4-4.63l-15,.24c-2.17,0-3.89,2.16-3.85,4.76Z"/><path class="cls-54" d="M15.88,382.56a3.94,3.94,0,0,0,3.94,3.94H34.89a3.94,3.94,0,0,0,3.94-3.94h0a4,4,0,0,0-3.94-3.95H19.82a4,4,0,0,0-3.94,3.95Z"/><path class="cls-56" d="M18.64,381.16a1.54,1.54,0,0,0,1.54,1.54h5.88a1.54,1.54,0,0,0,1.54-1.54h0a1.54,1.54,0,0,0-1.54-1.54H20.18a1.54,1.54,0,0,0-1.54,1.54Z"/><path class="cls-56" d="M26.17,359.76a1.54,1.54,0,0,0,1.54,1.54H33.6a1.54,1.54,0,0,0,1.54-1.54h0a1.54,1.54,0,0,0-1.54-1.54H27.72a1.54,1.54,0,0,0-1.54,1.54Z"/><path class="cls-56" d="M50.44,370.16A1.54,1.54,0,0,0,52,371.71h5.88a1.54,1.54,0,0,0,1.54-1.54h0a1.54,1.54,0,0,0-1.54-1.54H52a1.54,1.54,0,0,0-1.54,1.54Z"/><path class="cls-54" d="M305.93,351.93a7.84,7.84,0,0,0,7.83,7.83h29.91a7.83,7.83,0,0,0,7.83-7.83h0a7.83,7.83,0,0,0-7.83-7.83H313.76a7.83,7.83,0,0,0-7.83,7.83Z"/><path class="cls-55" d="M308.69,386.08h11.48c3.91,0,7-1.23,9.15-3.65,4-4.53,3.3-11.56,3.27-11.85V359.77h-2.42v10.95c0,.2.66,6.4-2.67,10.11-1.68,1.88-4.15,2.83-7.34,2.83H308.69Z"/><path class="cls-55" d="M307.75,413.67h2.42V378.05h-9c-2.15,0-3.73-.54-4.68-1.6a4.9,4.9,0,0,1-1.07-3.46l-2.4-.29A7.3,7.3,0,0,0,294.7,378c1.43,1.62,3.62,2.44,6.51,2.44h6.53Z"/><path class="cls-55" d="M311.36,367h20.12v-2.42H311.36a6.28,6.28,0,0,1-5-1.92c-2.17-2.53-1.54-6.79-1.53-6.83V343.39H302.4v12.29s-.8,5.2,2.1,8.58A8.56,8.56,0,0,0,311.36,367Z"/><path class="cls-54" d="M286.71,336.9c.06,3.86,2.73,6.95,6,6.9l22.3-.35c3.23-.05,5.79-3.22,5.73-7.08h0c-.06-3.86-2.73-6.95-6-6.9l-22.3.35c-3.23,0-5.79,3.22-5.73,7.08Z"/><path class="cls-54" d="M282.69,367.34a5.88,5.88,0,0,0,5.88,5.88H311a5.88,5.88,0,0,0,5.88-5.88h0a5.88,5.88,0,0,0-5.88-5.88H288.57a5.88,5.88,0,0,0-5.88,5.88Z"/><path class="cls-56" d="M286.81,365.26a2.3,2.3,0,0,0,2.3,2.3h8.76a2.3,2.3,0,0,0,2.29-2.3h0a2.29,2.29,0,0,0-2.29-2.29h-8.76a2.29,2.29,0,0,0-2.3,2.29Z"/><path class="cls-56" d="M298,333.39a2.3,2.3,0,0,0,2.29,2.3h8.76a2.3,2.3,0,0,0,2.29-2.3h0a2.29,2.29,0,0,0-2.29-2.29h-8.76a2.29,2.29,0,0,0-2.29,2.29Z"/><path class="cls-56" d="M334.17,348.88a2.3,2.3,0,0,0,2.3,2.3h8.76a2.3,2.3,0,0,0,2.29-2.3h0a2.29,2.29,0,0,0-2.29-2.29h-8.76a2.29,2.29,0,0,0-2.3,2.29Z"/><path class="cls-54" d="M193.46,372.22a5.26,5.26,0,0,0,5.26,5.26H218.8a5.26,5.26,0,0,0,5.26-5.26h0A5.26,5.26,0,0,0,218.8,367H198.72a5.26,5.26,0,0,0-5.26,5.26Z"/><path class="cls-55" d="M195.31,395.15H203a7.85,7.85,0,0,0,6.14-2.45c2.72-3,2.22-7.76,2.2-8v-7.26h-1.63v7.35c0,.13.44,4.3-1.79,6.79a6.3,6.3,0,0,1-4.93,1.9h-7.71Z"/><path class="cls-55" d="M194.68,413.67h1.63V389.75h-6a4,4,0,0,1-3.14-1.07,3.29,3.29,0,0,1-.72-2.32l-1.61-.2a4.91,4.91,0,0,0,1.1,3.58,5.55,5.55,0,0,0,4.37,1.64h4.39Z"/><path class="cls-55" d="M197.11,382.36h13.51v-1.63H197.11a4.21,4.21,0,0,1-3.36-1.29c-1.46-1.7-1-4.56-1-4.59v-8.37h-1.63v8.25s-.53,3.49,1.41,5.76A5.76,5.76,0,0,0,197.11,382.36Z"/><path class="cls-54" d="M180.55,362.12c0,2.59,1.83,4.67,4,4.63l15-.24c2.17,0,3.89-2.16,3.85-4.76h0c0-2.59-1.83-4.67-4-4.63l-15,.24c-2.17,0-3.89,2.16-3.85,4.76Z"/><path class="cls-54" d="M177.86,382.56a3.94,3.94,0,0,0,3.94,3.94h15.06a3.94,3.94,0,0,0,3.94-3.94h0a4,4,0,0,0-3.94-3.95H181.8a4,4,0,0,0-3.94,3.95Z"/><path class="cls-56" d="M180.62,381.16a1.54,1.54,0,0,0,1.54,1.54H188a1.54,1.54,0,0,0,1.54-1.54h0a1.54,1.54,0,0,0-1.54-1.54h-5.88a1.54,1.54,0,0,0-1.54,1.54Z"/><path class="cls-56" d="M188.15,359.76a1.54,1.54,0,0,0,1.54,1.54h5.88a1.54,1.54,0,0,0,1.54-1.54h0a1.54,1.54,0,0,0-1.54-1.54h-5.88a1.54,1.54,0,0,0-1.54,1.54Z"/><path class="cls-56" d="M212.42,370.16a1.54,1.54,0,0,0,1.54,1.54h5.88a1.54,1.54,0,0,0,1.54-1.54h0a1.54,1.54,0,0,0-1.54-1.54H214a1.54,1.54,0,0,0-1.54,1.54Z"/><path class="cls-57" d="M464,409.88a4.14,4.14,0,0,0-4.14-4.14H289.72a4.14,4.14,0,0,0-4.14,4.14h0a4.14,4.14,0,0,0,4.14,4.14H459.89a4.14,4.14,0,0,0,4.14-4.14Z"/><path class="cls-58" d="M413.82,115.28s-1.59-5.82,1.45-9.53,2.26-3.71,3.23-8.4-.16-3.55,1.13-7.11a34,34,0,0,0,1.45-4.52s.82,6,1.61,11.31,2.26,5,2.75,8.72a29.51,29.51,0,0,1,0,6.78,12.19,12.19,0,0,1-.32,2.58Z"/><path class="cls-59" d="M465.73,414.75V403.12H447.57s12.92-16.37,22-21.54,10.77-3.88,10.77-3.88l3.44-6-1.29-2.58H431.64l-6.46-229.58s1.29-2.58,6.46-3.45l3.88-13.35v-8.18H403.64v8.18l3.88,13.35c5.17.86,6.46,3.45,6.46,3.45l-6.46,229.58H356.69l-1.29,2.58,3.44,6s1.72-1.29,10.77,3.88,22,21.54,22,21.54h-50.4l-22.83,11.63,101.22-.43Z"/><path class="cls-57" d="M202,409.88a4.14,4.14,0,0,0-4.14-4.14H27.72a4.14,4.14,0,0,0-4.14,4.14h0A4.14,4.14,0,0,0,27.72,414H197.88a4.14,4.14,0,0,0,4.14-4.14Z"/><path class="cls-30" d="M122.09,333l-.9-.24A11.28,11.28,0,0,0,120,324.3l.76-.55A12,12,0,0,1,122.09,333Z"/><path class="cls-30" d="M151.74,317.44c-.28-4.36-3.1-5.94-3.21-6l.39-1c.14.08,3.42,1.89,3.75,6.9Z"/><path class="cls-30" d="M131,330.63l-.86-.36c2-4.8-1.63-7.1-1.79-7.2l.48-.79A6.54,6.54,0,0,1,131,330.63Z"/></g></g></svg>