<svg id="Layer_1" data-name="Layer 1" xmlns="http://www.w3.org/2000/svg" viewBox="0 0 500 500"><defs><style>.cls-1{fill:#75e4ea;opacity:0.5;}.cls-2,.cls-6{fill:#fff;}.cls-3,.cls-4,.cls-5{fill:#f7f7f7;}.cls-3,.cls-6{opacity:0.4;}.cls-4{opacity:0.3;}.cls-7{fill:#231e1c;}.cls-8{fill:#d6c5bf;}.cls-9{fill:#e0d6d2;}.cls-10{fill:#b54f04;}.cls-11{fill:#d36705;}.cls-12{fill:#c65c05;}.cls-13{fill:#e5e1de;}.cls-14{fill:#e8e3e2;}.cls-15{fill:#ebebeb;}.cls-16{fill:#d3c4c1;}.cls-17{fill:#cab0ae;}.cls-18{fill:#ddd3d0;}.cls-19{fill:#ddd2ce;}.cls-20{fill:#d1bdbd;}.cls-21{fill:#d0bbb6;}.cls-22{fill:#f3f3f3;}.cls-23{fill:#d3c5c5;}.cls-24{fill:#2d683b;}.cls-25{fill:#50935e;}.cls-26{fill:#34492c;}.cls-27{fill:#37562a;}.cls-28{fill:#567746;}.cls-29{fill:#21331a;}.cls-30{fill:#51843c;}.cls-31{fill:#351c0b;}</style></defs><title>Artboard 9</title><path class="cls-1" d="M29.42,359.35c0-122,98.92-220.95,220.94-220.95s220.95,98.92,220.95,220.95"/><path class="cls-2" d="M102.75,201.24a6.51,6.51,0,0,1-6.51,6.51H40.07a6.51,6.51,0,0,1-6.51-6.51h0a6.51,6.51,0,0,1,6.51-6.51H96.25a6.51,6.51,0,0,1,6.51,6.51Z"/><path class="cls-2" d="M155.19,182.23a6.51,6.51,0,0,1-6.51,6.51H92.51A6.51,6.51,0,0,1,86,182.23h0a6.51,6.51,0,0,1,6.51-6.51h56.17a6.51,6.51,0,0,1,6.51,6.51Z"/><path class="cls-2" d="M185.08,199.93a6.51,6.51,0,0,1-6.51,6.51H122.4a6.51,6.51,0,0,1-6.51-6.51h0a6.51,6.51,0,0,1,6.51-6.51h56.17a6.51,6.51,0,0,1,6.51,6.51Z"/><path class="cls-3" d="M359.31,215.37s0,8.54-6.83,12-17.08,5.55-20.07-.43-12.38,4.27-17.93.43-11.1,4.7-22.63,6-10.25,9.39-19.64,3.42-13.66-3-13.24-7.69-3-6,2.13-8.11,9.39-4.7,14.94-2.56,5.55,1.71,8.54,3,6,2.56,8.54.85,4.7-4.7,9.39-6.41,8.54-2.56,11.53-1.71,9-1.71,10.25.85,6.83,6,9,4.7a29.84,29.84,0,0,0,6.83-5.55c1.28-1.71,6-2.13,8.11-.85s3.84,2.13,6,1.28S358.46,209.82,359.31,215.37Z"/><path class="cls-4" d="M144.15,230.3s0-13.9,11.12-19.47,27.81-9,32.68.7,20.16-7,29.2-.7,18.08-7.65,36.85-9.73,16.69-15.3,32-5.56,22.25,4.87,21.55,12.51,4.87,9.73-3.48,13.21-15.3,7.65-24.33,4.17-9-2.78-13.91-4.87-9.73-4.17-13.9-1.39-7.65,7.65-15.3,10.43-13.9,4.17-18.77,2.78-14.6,2.78-16.69-1.39-11.12-9.73-14.6-7.65-9,6.26-11.12,9-9.73,3.48-13.21,1.39-6.26-3.48-9.73-2.09S145.54,239.34,144.15,230.3Z"/><path class="cls-5" d="M270.59,224.78s0,8.54-6.83,12-17.08,5.55-20.07-.43-12.38,4.27-17.93.43-11.1,4.7-22.63,6-10.25,9.39-19.64,3.42-13.66-3-13.24-7.69-3-6,2.13-8.11,9.39-4.7,14.94-2.56,5.55,1.71,8.54,3,6,2.56,8.54.85,4.7-4.7,9.39-6.4,8.54-2.56,11.53-1.71,9-1.71,10.25.86,6.83,6,9,4.7,5.55-3.84,6.83-5.55,6-2.13,8.11-.85,3.84,2.14,6,1.28S269.74,219.23,270.59,224.78Z"/><path class="cls-6" d="M174.16,233.78s0-9.87,7.9-13.82,19.73-6.41,23.19.49,14.31-4.93,20.72-.49,12.83-5.43,26.15-6.91,11.84-10.85,22.69-3.95,15.79,3.45,15.29,8.88,3.46,6.91-2.47,9.37-10.85,5.43-17.27,3-6.41-2-9.87-3.46-6.91-3-9.87-1-5.43,5.43-10.85,7.4-9.87,3-13.32,2-10.36,2-11.84-1-7.89-6.91-10.36-5.43-6.41,4.44-7.89,6.41-6.91,2.47-9.37,1-4.44-2.47-6.91-1.48S175.15,240.19,174.16,233.78Z"/><path class="cls-7" d="M399,177.48c-9.27-8.22-18.09-3.89-24,1.33-8.15-8-24.31-4.19-24.31-4.19,10,1.78,16.52,4.75,20.93,7.59a41.79,41.79,0,0,0-3.78,4.94c2-1.42,3.94-2.54,5.8-3.6,4.49,3.35,5.92,6.2,5.92,6.2a17.63,17.63,0,0,0-2.34-8.08C391.06,174.91,399,177.48,399,177.48Z"/><path class="cls-7" d="M442.63,196.37c-6.7-5.94-13.08-2.81-17.32,1-5.89-5.77-17.57-3-17.57-3,7.2,1.29,11.94,3.43,15.13,5.49a30,30,0,0,0-2.73,3.57c1.48-1,2.85-1.84,4.19-2.61a14.66,14.66,0,0,1,4.28,4.48,12.74,12.74,0,0,0-1.69-5.84C436.91,194.51,442.63,196.37,442.63,196.37Z"/><path class="cls-7" d="M408.76,224.15c-5.69-5-11.1-2.39-14.7.82-5-4.89-14.92-2.57-14.92-2.57A34.5,34.5,0,0,1,392,227.05a25.67,25.67,0,0,0-2.32,3c1.25-.87,2.42-1.56,3.56-2.21a12.43,12.43,0,0,1,3.63,3.81,10.8,10.8,0,0,0-1.44-5C403.9,222.57,408.76,224.15,408.76,224.15Z"/><path class="cls-7" d="M347.59,202.18c-6.7-5.94-13.08-2.81-17.32,1-5.89-5.76-17.58-3-17.58-3,7.2,1.29,11.94,3.43,15.13,5.49a30.11,30.11,0,0,0-2.73,3.57c1.48-1,2.85-1.84,4.19-2.61a14.64,14.64,0,0,1,4.28,4.48,12.74,12.74,0,0,0-1.69-5.84C341.87,200.32,347.59,202.18,347.59,202.18Z"/><path class="cls-8" d="M250.36,228.18v4.39h.95v-3.45A1,1,0,0,0,250.36,228.18Z"/><path class="cls-9" d="M249.42,229.13v3.45h.95v-4.39A1,1,0,0,0,249.42,229.13Z"/><polygon class="cls-10" points="275.62 262.1 250.36 231.16 259.16 262.1 275.62 262.1"/><polygon class="cls-11" points="225.1 262.1 250.36 231.16 241.57 262.1 225.1 262.1"/><polygon class="cls-12" points="259.16 262.1 250.36 231.16 241.57 262.1 259.16 262.1"/><rect class="cls-13" x="241.57" y="272.09" width="17.59" height="29.54"/><rect class="cls-14" x="259.16" y="272.09" width="17.59" height="29.54"/><rect class="cls-15" x="223.98" y="272.09" width="17.59" height="29.54"/><rect class="cls-16" x="241.57" y="262.09" width="17.59" height="9.99"/><path class="cls-17" d="M259.16,262.09h16.43a1.16,1.16,0,0,1,1.16,1.16v8.83a0,0,0,0,1,0,0H259.16a0,0,0,0,1,0,0v-10A0,0,0,0,1,259.16,262.09Z"/><path class="cls-18" d="M225.14,262.09h16.43a0,0,0,0,1,0,0v10a0,0,0,0,1,0,0H224a0,0,0,0,1,0,0v-8.83A1.16,1.16,0,0,1,225.14,262.09Z"/><path class="cls-13" d="M275.62,263.16H259.16v-1.06h16.47a.53.53,0,0,1,0,1.06Z"/><path class="cls-2" d="M225.1,262.09h16.47v1.06H225.1a.53.53,0,0,1,0-1.06Z"/><rect class="cls-15" x="241.57" y="262.09" width="17.59" height="1.06"/><path class="cls-17" d="M262.91,277.32h-.31a.71.71,0,0,0-.71.71v8.37a.71.71,0,0,0,.71.71h.31a.71.71,0,0,0,.71-.71V278A.71.71,0,0,0,262.91,277.32Zm3.46,0h-.31a.71.71,0,0,0-.71.71v8.37a.71.71,0,0,0,.71.71h.31a.71.71,0,0,0,.71-.71V278A.71.71,0,0,0,266.38,277.32Zm6.93,0H273a.71.71,0,0,0-.71.71v8.37a.71.71,0,0,0,.71.71h.31a.71.71,0,0,0,.71-.71V278A.71.71,0,0,0,273.31,277.32Zm-3.47,0h-.31a.71.71,0,0,0-.71.71v8.37a.71.71,0,0,0,.71.71h.31a.71.71,0,0,0,.71-.71V278A.71.71,0,0,0,269.84,277.32Z"/><path class="cls-19" d="M227.73,277.32h-.31a.71.71,0,0,0-.71.71v8.37a.71.71,0,0,0,.71.71h.31a.71.71,0,0,0,.71-.71V278A.71.71,0,0,0,227.73,277.32Zm3.46,0h-.31a.71.71,0,0,0-.71.71v8.37a.71.71,0,0,0,.71.71h.31a.71.71,0,0,0,.71-.71V278A.71.71,0,0,0,231.2,277.32Zm6.93,0h-.31a.71.71,0,0,0-.71.71v8.37a.71.71,0,0,0,.71.71h.31a.71.71,0,0,0,.71-.71V278A.71.71,0,0,0,238.13,277.32Zm-3.47,0h-.31a.71.71,0,0,0-.71.71v8.37a.71.71,0,0,0,.71.71h.31a.71.71,0,0,0,.71-.71V278A.71.71,0,0,0,234.66,277.32Z"/><rect class="cls-15" x="276.75" y="301.62" width="16.51" height="57.73"/><rect class="cls-14" x="293.25" y="301.62" width="16.51" height="57.73"/><polygon class="cls-13" points="276.75 359.35 223.98 359.35 223.98 301.61 250.36 275.65 276.75 301.61 276.75 359.35"/><rect class="cls-13" x="223.98" y="328.11" width="52.77" height="31.24"/><rect class="cls-8" x="223.98" y="328.11" width="52.77" height="6.17"/><rect class="cls-20" x="293.25" y="301.62" width="16.51" height="5.79"/><path class="cls-16" d="M250.36,340.09a4.94,4.94,0,0,0-4.94,4.94v14.32h9.88V345A4.94,4.94,0,0,0,250.36,340.09Z"/><path class="cls-21" d="M264.68,340.09a4.94,4.94,0,0,0-4.94,4.94v14.32h9.88V345A4.94,4.94,0,0,0,264.68,340.09Z"/><path class="cls-21" d="M236,340.09A4.94,4.94,0,0,0,231.1,345v14.32H241V345A4.94,4.94,0,0,0,236,340.09Z"/><path class="cls-16" d="M250.36,313.26a4.1,4.1,0,0,0-4.1,4.1v10.75h8.21V317.36A4.1,4.1,0,0,0,250.36,313.26Z"/><path class="cls-21" d="M262.26,313.26a4.1,4.1,0,0,0-4.1,4.1v10.75h8.21V317.36A4.1,4.1,0,0,0,262.26,313.26Z"/><path class="cls-21" d="M238.47,313.26a4.1,4.1,0,0,0-4.1,4.1v10.75h8.21V317.36A4.1,4.1,0,0,0,238.47,313.26Z"/><path class="cls-12" d="M270.59,328.11H269v-11a18.68,18.68,0,0,0-37.37,0v11h-1.54v-11a20.23,20.23,0,0,1,40.45,0Z"/><path class="cls-14" d="M276.75,313.26h5.84a1.54,1.54,0,0,1,1.54,1.54v44.55a0,0,0,0,1,0,0h-7.38a0,0,0,0,1,0,0V313.26A0,0,0,0,1,276.75,313.26Z"/><path class="cls-20" d="M301.51,340.09a3.62,3.62,0,0,0-3.62,3.62v15.63h7.25V343.72A3.62,3.62,0,0,0,301.51,340.09Z"/><path class="cls-20" d="M298.24,315.41a2.67,2.67,0,0,0-2.67,2.67v10h5.33v-10A2.67,2.67,0,0,0,298.24,315.41Z"/><path class="cls-20" d="M304.77,315.41a2.67,2.67,0,0,0-2.67,2.67v10h5.33v-10A2.67,2.67,0,0,0,304.77,315.41Z"/><rect class="cls-18" x="276.75" y="301.62" width="16.51" height="5.79"/><path class="cls-16" d="M250.36,263.21a4.68,4.68,0,0,0-4.68,4.68v16.33H255V267.9A4.68,4.68,0,0,0,250.36,263.21Z"/><path class="cls-21" d="M274.39,303a.77.77,0,0,0,0-1.09l-23.48-23.34a.77.77,0,0,0-1.09,0l-23.48,23.34a.77.77,0,1,0,1.09,1.09l12.17-12.1a.77.77,0,0,1,.54-.22h20.44a.77.77,0,0,1,.54.22L273.3,303A.77.77,0,0,0,274.39,303ZM242.7,287.83l7.12-7.07a.77.77,0,0,1,1.09,0l7.12,7.07a.77.77,0,0,1-.54,1.32H243.25A.77.77,0,0,1,242.7,287.83Z"/><rect class="cls-15" x="276.75" y="272.09" width="12.44" height="29.54"/><rect class="cls-13" x="289.19" y="272.09" width="8.13" height="29.54"/><path class="cls-8" d="M296.16,292.94h-5.82a1.16,1.16,0,0,0-1.16,1.16v7.52h8.13V294.1A1.16,1.16,0,0,0,296.16,292.94Z"/><rect class="cls-14" x="297.32" y="272.09" width="12.44" height="29.54"/><rect class="cls-16" x="289.19" y="262.15" width="8.13" height="9.93"/><polygon class="cls-17" points="309.76 272.09 305.45 262.15 297.32 262.15 297.32 272.09 309.76 272.09"/><polygon class="cls-18" points="276.75 272.09 281.05 262.15 289.19 262.15 289.19 272.09 276.75 272.09"/><path class="cls-2" d="M275.5,329.17H225.23a.53.53,0,0,1,0-1.06H275.5a.53.53,0,0,1,0,1.06Z"/><path class="cls-8" d="M276.75,313.26h5.84a1.54,1.54,0,0,1,1.54,1.54v4.34a0,0,0,0,1,0,0h-7.38a0,0,0,0,1,0,0v-5.88A0,0,0,0,1,276.75,313.26Z"/><rect class="cls-14" x="207.47" y="301.62" width="16.51" height="57.73" transform="translate(431.45 660.97) rotate(-180)"/><rect class="cls-15" x="190.97" y="301.62" width="16.51" height="57.73" transform="translate(398.44 660.97) rotate(-180)"/><rect class="cls-20" x="207.47" y="301.62" width="16.51" height="5.79"/><path class="cls-15" d="M216.59,313.26H224a0,0,0,0,1,0,0v44.55a1.54,1.54,0,0,1-1.54,1.54h-5.84a0,0,0,0,1,0,0V313.26A0,0,0,0,1,216.59,313.26Z" transform="translate(440.57 672.61) rotate(-180)"/><path class="cls-19" d="M199.22,340.09a3.62,3.62,0,0,1,3.62,3.62v15.63H195.6V343.72A3.62,3.62,0,0,1,199.22,340.09Z"/><path class="cls-8" d="M202.48,315.41a2.67,2.67,0,0,1,2.67,2.67v10h-5.33v-10A2.67,2.67,0,0,1,202.48,315.41Z"/><path class="cls-19" d="M196,315.41a2.67,2.67,0,0,1,2.67,2.67v10h-5.33v-10A2.67,2.67,0,0,1,196,315.41Z"/><rect class="cls-18" x="190.97" y="301.62" width="16.51" height="5.79"/><rect class="cls-15" x="190.97" y="272.09" width="12.44" height="29.54"/><rect class="cls-13" x="203.41" y="272.09" width="8.13" height="29.54"/><path class="cls-8" d="M210.38,292.94h-5.82a1.16,1.16,0,0,0-1.16,1.16v7.52h8.13V294.1A1.16,1.16,0,0,0,210.38,292.94Z"/><rect class="cls-14" x="211.54" y="272.09" width="12.44" height="29.54"/><rect class="cls-16" x="203.41" y="262.15" width="8.13" height="9.93"/><polygon class="cls-20" points="223.98 272.09 219.67 262.15 211.54 262.15 211.54 272.09 223.98 272.09"/><polygon class="cls-18" points="190.97 272.09 195.27 262.15 203.41 262.15 203.41 272.09 190.97 272.09"/><path class="cls-8" d="M216.59,313.26H224a0,0,0,0,1,0,0v4.34a1.54,1.54,0,0,1-1.54,1.54h-5.84a0,0,0,0,1,0,0v-5.88A0,0,0,0,1,216.59,313.26Z" transform="translate(440.57 632.4) rotate(-180)"/><path class="cls-15" d="M308.8,302.68H293.25v-1.06H308.8a.53.53,0,0,1,0,1.06Z"/><path class="cls-2" d="M277.71,301.62h15.55v1.06H277.71a.53.53,0,0,1,0-1.06Z"/><path class="cls-15" d="M223,302.68H207.47v-1.06H223a.53.53,0,0,1,0,1.06Z"/><path class="cls-2" d="M191.93,301.62h15.55v1.06H191.93a.53.53,0,0,1,0-1.06Z"/><path class="cls-15" d="M304.41,263.21h-7.09v-1.06h7.09a.53.53,0,0,1,0,1.06Z"/><path class="cls-2" d="M282.09,262.15h7.09v1.06h-7.09a.53.53,0,0,1,0-1.06Z"/><rect class="cls-22" x="289.19" y="262.15" width="8.13" height="1.06"/><path class="cls-15" d="M218.63,263.21h-7.09v-1.06h7.09a.53.53,0,0,1,0,1.06Z"/><path class="cls-2" d="M196.31,262.15h7.09v1.06h-7.09a.53.53,0,0,1,0-1.06Z"/><rect class="cls-22" x="203.41" y="262.15" width="8.13" height="1.06"/><rect class="cls-20" x="299.21" y="277.32" width="1.73" height="9.79" rx="0.71" ry="0.71"/><rect class="cls-20" x="302.67" y="277.32" width="1.73" height="9.79" rx="0.71" ry="0.71"/><rect class="cls-20" x="306.14" y="277.32" width="1.73" height="9.79" rx="0.71" ry="0.71"/><rect class="cls-19" x="278.64" y="277.32" width="1.73" height="9.79" rx="0.71" ry="0.71"/><rect class="cls-19" x="282.1" y="277.32" width="1.73" height="9.79" rx="0.71" ry="0.71"/><rect class="cls-19" x="285.57" y="277.32" width="1.73" height="9.79" rx="0.71" ry="0.71"/><rect class="cls-20" x="213.43" y="277.32" width="1.73" height="9.79" rx="0.71" ry="0.71"/><rect class="cls-20" x="216.89" y="277.32" width="1.73" height="9.79" rx="0.71" ry="0.71"/><rect class="cls-20" x="220.36" y="277.32" width="1.73" height="9.79" rx="0.71" ry="0.71"/><rect class="cls-19" x="192.86" y="277.32" width="1.73" height="9.79" rx="0.71" ry="0.71"/><rect class="cls-8" x="196.32" y="277.32" width="1.73" height="9.79" rx="0.71" ry="0.71"/><rect class="cls-8" x="199.79" y="277.32" width="1.73" height="9.79" rx="0.71" ry="0.71"/><path class="cls-8" d="M207.47,210.9v4.39h.95v-3.45A1,1,0,0,0,207.47,210.9Z"/><path class="cls-9" d="M206.53,211.84v3.45h.95V210.9A1,1,0,0,0,206.53,211.84Z"/><rect class="cls-13" x="203.41" y="232.67" width="8.13" height="29.48"/><rect class="cls-14" x="211.54" y="232.67" width="8.13" height="29.48"/><rect class="cls-15" x="195.27" y="232.67" width="8.13" height="29.48"/><path class="cls-11" d="M207.47,215a12.2,12.2,0,0,0-12.2,12.2v9.54a4.07,4.07,0,0,1,8.13,0v-9.54C203.41,220.46,205.23,215,207.47,215Z"/><path class="cls-10" d="M207.47,215c2.25,0,4.07,5.46,4.07,12.2v9.54a4.07,4.07,0,0,1,8.13,0v-9.54A12.2,12.2,0,0,0,207.47,215Z"/><path class="cls-12" d="M207.47,215c-2.25,0-4.07,5.46-4.07,12.2v9.54h8.13v-9.54C211.54,220.46,209.72,215,207.47,215Z"/><rect class="cls-17" x="214.74" y="240.62" width="1.73" height="9.79" rx="0.71" ry="0.71"/><rect class="cls-21" x="206.61" y="240.62" width="1.73" height="9.79" rx="0.71" ry="0.71"/><rect class="cls-19" x="198.47" y="240.62" width="1.73" height="9.79" rx="0.71" ry="0.71"/><rect class="cls-16" x="245.68" y="276.23" width="9.37" height="12.91"/><path class="cls-8" d="M293.25,210.9v4.39h.95v-3.45A1,1,0,0,0,293.25,210.9Z"/><path class="cls-9" d="M292.31,211.84v3.45h.95V210.9A1,1,0,0,0,292.31,211.84Z"/><rect class="cls-13" x="289.19" y="232.67" width="8.13" height="29.48"/><rect class="cls-14" x="297.32" y="232.67" width="8.13" height="29.48"/><rect class="cls-15" x="281.05" y="232.67" width="8.13" height="29.48"/><path class="cls-11" d="M293.25,215a12.2,12.2,0,0,0-12.2,12.2v9.54a4.07,4.07,0,1,1,8.13,0v-9.54C289.19,220.46,291,215,293.25,215Z"/><path class="cls-10" d="M293.25,215c2.25,0,4.07,5.46,4.07,12.2v9.54a4.07,4.07,0,1,1,8.13,0v-9.54A12.2,12.2,0,0,0,293.25,215Z"/><path class="cls-12" d="M293.25,215c-2.25,0-4.07,5.46-4.07,12.2v9.54h8.13v-9.54C297.32,220.46,295.5,215,293.25,215Z"/><rect class="cls-17" x="300.52" y="240.62" width="1.73" height="9.79" rx="0.71" ry="0.71"/><rect class="cls-21" x="292.39" y="240.62" width="1.73" height="9.79" rx="0.71" ry="0.71"/><rect class="cls-19" x="284.25" y="240.62" width="1.73" height="9.79" rx="0.71" ry="0.71"/><rect class="cls-20" x="309.76" y="328.11" width="42.38" height="31.24"/><path class="cls-10" d="M352.14,319.14H309.76v9h47.47a1.54,1.54,0,0,0,1.18-2.54l-4.86-5.77A1.85,1.85,0,0,0,352.14,319.14Z"/><rect class="cls-20" x="309.76" y="307.41" width="42.38" height="11.73"/><rect class="cls-23" x="309.76" y="328.11" width="42.38" height="3.09"/><rect class="cls-23" x="309.76" y="307.41" width="42.38" height="3.09"/><path class="cls-10" d="M357.41,304.7,321.87,274a8.05,8.05,0,0,0-5.26-2h-6.85v35.32H356.4A1.54,1.54,0,0,0,357.41,304.7Z"/><rect class="cls-14" x="148.59" y="328.11" width="42.38" height="31.24" transform="translate(339.56 687.46) rotate(-180)"/><path class="cls-11" d="M148.59,319.14H191v9H143.49a1.54,1.54,0,0,1-1.18-2.54l4.86-5.77A1.85,1.85,0,0,1,148.59,319.14Z"/><rect class="cls-14" x="148.59" y="307.41" width="42.38" height="11.73" transform="translate(339.56 626.55) rotate(-180)"/><rect class="cls-19" x="148.59" y="328.11" width="42.38" height="3.09" transform="translate(339.56 659.3) rotate(-180)"/><rect class="cls-19" x="148.59" y="307.41" width="42.38" height="3.09" transform="translate(339.56 617.9) rotate(-180)"/><path class="cls-11" d="M143.32,304.7,178.86,274a8.05,8.05,0,0,1,5.26-2H191v35.32H144.33A1.54,1.54,0,0,1,143.32,304.7Z"/><path class="cls-24" d="M471.86,355.84a3.14,3.14,0,0,1-3.14,3.14H32a3.14,3.14,0,0,1-3.14-3.14h0A3.14,3.14,0,0,1,32,352.7H468.72a3.14,3.14,0,0,1,3.14,3.14Z"/><polygon class="cls-25" points="306.15 358.8 204.73 359.35 209.17 353.07 300.8 353.07 306.15 358.8"/><path class="cls-25" d="M71.72,355.1a1.29,1.29,0,0,1-1.29,1.29H40.87a1.29,1.29,0,0,1-1.29-1.29h0a1.29,1.29,0,0,1,1.29-1.29H70.43a1.29,1.29,0,0,1,1.29,1.29Z"/><path class="cls-25" d="M138.23,355.1a1.29,1.29,0,0,1-1.29,1.29H107.38a1.29,1.29,0,0,1-1.29-1.29h0a1.29,1.29,0,0,1,1.29-1.29h29.56a1.29,1.29,0,0,1,1.29,1.29Z"/><path class="cls-25" d="M379.93,355.1a1.29,1.29,0,0,1-1.29,1.29H349.08a1.29,1.29,0,0,1-1.29-1.29h0a1.29,1.29,0,0,1,1.29-1.29h29.56a1.29,1.29,0,0,1,1.29,1.29Z"/><path class="cls-25" d="M446.43,355.1a1.29,1.29,0,0,1-1.29,1.29H415.58a1.29,1.29,0,0,1-1.29-1.29h0a1.29,1.29,0,0,1,1.29-1.29h29.56a1.29,1.29,0,0,1,1.29,1.29Z"/><path class="cls-26" d="M167.79,355.55a1.39,1.39,0,0,1-1.39,1.4H156.12a1.39,1.39,0,0,1-1.39-1.4h0a1.39,1.39,0,0,1,1.39-1.4H166.4a1.39,1.39,0,0,1,1.39,1.4Z"/><path class="cls-27" d="M172.38,352.15a1.25,1.25,0,0,1-1.24,1.25h-9.19a1.25,1.25,0,0,1-1.24-1.25h0a1.25,1.25,0,0,1,1.24-1.25h9.19a1.25,1.25,0,0,1,1.24,1.25Z"/><path class="cls-28" d="M158.9,352.72a.79.79,0,0,1-.79.79h-5.8a.79.79,0,0,1-.79-.79h0a.79.79,0,0,1,.79-.79h5.8a.79.79,0,0,1,.79.79Z"/><path class="cls-28" d="M163.76,350.92a.79.79,0,0,1-.79.79h-5.8a.79.79,0,0,1-.79-.79h0a.79.79,0,0,1,.79-.79H163a.79.79,0,0,1,.79.79Z"/><path class="cls-26" d="M166.22,348.45a1,1,0,0,1-1,1h-3a1,1,0,0,1-1-1h0a1,1,0,0,1,1-1h3a1,1,0,0,1,1,1Z"/><path class="cls-29" d="M180.69,355.55a1.4,1.4,0,0,1-1.4,1.4H169a1.39,1.39,0,0,1-1.39-1.4h0a1.39,1.39,0,0,1,1.39-1.4h10.28a1.4,1.4,0,0,1,1.4,1.4Z"/><path class="cls-27" d="M185.28,352.15A1.25,1.25,0,0,1,184,353.4h-9.18a1.25,1.25,0,0,1-1.25-1.25h0a1.25,1.25,0,0,1,1.25-1.25H184a1.24,1.24,0,0,1,1.24,1.25Z"/><path class="cls-30" d="M176.65,350.92a.79.79,0,0,1-.79.79h-5.8a.79.79,0,0,1-.79-.79h0a.79.79,0,0,1,.79-.79h5.8a.79.79,0,0,1,.79.79Z"/><path class="cls-26" d="M179.12,348.45a1,1,0,0,1-1,1h-3a1,1,0,0,1-1-1h0a1,1,0,0,1,1-1h3a1,1,0,0,1,1,1Z"/><path class="cls-26" d="M194.74,355.55a1.39,1.39,0,0,1-1.39,1.4H183.07a1.39,1.39,0,0,1-1.39-1.4h0a1.39,1.39,0,0,1,1.39-1.4h10.28a1.39,1.39,0,0,1,1.39,1.4Z"/><path class="cls-27" d="M199.33,352.15a1.25,1.25,0,0,1-1.25,1.25H188.9a1.25,1.25,0,0,1-1.24-1.25h0a1.24,1.24,0,0,1,1.24-1.25h9.18a1.25,1.25,0,0,1,1.25,1.25Z"/><path class="cls-28" d="M190.71,350.92a.79.79,0,0,1-.79.79h-5.8a.79.79,0,0,1-.79-.79h0a.79.79,0,0,1,.79-.79h5.8a.79.79,0,0,1,.79.79Z"/><path class="cls-26" d="M193.18,348.45a1,1,0,0,1-1,1h-3a1,1,0,0,1-1-1h0a1,1,0,0,1,1-1h3a1,1,0,0,1,1,1Z"/><path class="cls-27" d="M213.39,352.15a1.25,1.25,0,0,1-1.24,1.25H203a1.25,1.25,0,0,1-1.25-1.25h0A1.25,1.25,0,0,1,203,350.9h9.18a1.24,1.24,0,0,1,1.24,1.25Z"/><path class="cls-30" d="M199.91,352.72a.79.79,0,0,1-.79.79"/><path class="cls-28" d="M216.76,352.72a.79.79,0,0,1-.79.79h-5.8a.79.79,0,0,1-.79-.79h0a.79.79,0,0,1,.79-.79H216a.79.79,0,0,1,.79.79Z"/><path class="cls-28" d="M204.77,350.92a.79.79,0,0,1-.79.79h-5.8a.79.79,0,0,1-.79-.79h0a.79.79,0,0,1,.79-.79H204a.79.79,0,0,1,.79.79Z"/><path class="cls-26" d="M207.23,348.45a1,1,0,0,1-1,1h-3a1,1,0,0,1-1-1h0a1,1,0,0,1,1-1h3a1,1,0,0,1,1,1Z"/><path class="cls-30" d="M303.43,355.55a1.39,1.39,0,0,1-1.39,1.4H291.75a1.4,1.4,0,0,1-1.4-1.4h0a1.4,1.4,0,0,1,1.4-1.4H302a1.39,1.39,0,0,1,1.39,1.4Z"/><path class="cls-27" d="M308,352.15a1.25,1.25,0,0,1-1.25,1.25h-9.18a1.25,1.25,0,0,1-1.24-1.25h0a1.24,1.24,0,0,1,1.24-1.25h9.18a1.25,1.25,0,0,1,1.25,1.25Z"/><path class="cls-28" d="M294.54,352.72a.79.79,0,0,1-.79.79h-5.8a.79.79,0,0,1-.79-.79h0a.79.79,0,0,1,.79-.79h5.8a.79.79,0,0,1,.79.79Z"/><path class="cls-28" d="M311.38,352.72a.79.79,0,0,1-.79.79h-5.8a.79.79,0,0,1-.79-.79h0a.79.79,0,0,1,.79-.79h5.8a.79.79,0,0,1,.79.79Z"/><path class="cls-28" d="M299.39,350.92a.79.79,0,0,1-.79.79h-5.8a.79.79,0,0,1-.79-.79h0a.79.79,0,0,1,.79-.79h5.8a.79.79,0,0,1,.79.79Z"/><path class="cls-26" d="M301.86,348.45a1,1,0,0,1-1,1h-3a1,1,0,0,1-1-1h0a1,1,0,0,1,1-1h3a1,1,0,0,1,1,1Z"/><path class="cls-29" d="M316.32,355.55a1.39,1.39,0,0,1-1.39,1.4H304.65a1.39,1.39,0,0,1-1.39-1.4h0a1.39,1.39,0,0,1,1.39-1.4h10.28a1.39,1.39,0,0,1,1.39,1.4Z"/><path class="cls-27" d="M320.91,352.15a1.25,1.25,0,0,1-1.24,1.25h-9.19a1.25,1.25,0,0,1-1.24-1.25h0a1.25,1.25,0,0,1,1.24-1.25h9.19a1.25,1.25,0,0,1,1.24,1.25Z"/><path class="cls-28" d="M324.28,352.72a.79.79,0,0,1-.79.79h-5.8a.79.79,0,0,1-.79-.79h0a.79.79,0,0,1,.79-.79h5.8a.79.79,0,0,1,.79.79Z"/><path class="cls-28" d="M312.29,350.92a.79.79,0,0,1-.79.79h-5.8a.79.79,0,0,1-.79-.79h0a.79.79,0,0,1,.79-.79h5.8a.79.79,0,0,1,.79.79Z"/><path class="cls-26" d="M330.38,355.55a1.39,1.39,0,0,1-1.39,1.4H318.7a1.4,1.4,0,0,1-1.4-1.4h0a1.4,1.4,0,0,1,1.4-1.4H329a1.39,1.39,0,0,1,1.39,1.4Z"/><path class="cls-27" d="M335,352.15a1.25,1.25,0,0,1-1.25,1.25h-9.18a1.25,1.25,0,0,1-1.25-1.25h0a1.25,1.25,0,0,1,1.25-1.25h9.18a1.25,1.25,0,0,1,1.25,1.25Z"/><path class="cls-28" d="M338.34,352.72a.79.79,0,0,1-.79.79h-5.8a.79.79,0,0,1-.79-.79h0a.79.79,0,0,1,.79-.79h5.8a.79.79,0,0,1,.79.79Z"/><path class="cls-28" d="M326.34,350.92a.79.79,0,0,1-.79.79h-5.8a.79.79,0,0,1-.79-.79h0a.79.79,0,0,1,.79-.79h5.8a.79.79,0,0,1,.79.79Z"/><path class="cls-26" d="M328.81,348.45a1,1,0,0,1-1,1h-3a1,1,0,0,1-1-1h0a1,1,0,0,1,1-1h3a1,1,0,0,1,1,1Z"/><path class="cls-30" d="M344.44,355.55a1.39,1.39,0,0,1-1.39,1.4H332.76a1.39,1.39,0,0,1-1.39-1.4h0a1.39,1.39,0,0,1,1.39-1.4H343a1.39,1.39,0,0,1,1.39,1.4Z"/><path class="cls-27" d="M349,352.15a1.25,1.25,0,0,1-1.24,1.25H338.6a1.25,1.25,0,0,1-1.25-1.25h0a1.25,1.25,0,0,1,1.25-1.25h9.18a1.24,1.24,0,0,1,1.24,1.25Z"/><path class="cls-28" d="M352.39,352.72a.79.79,0,0,1-.79.79h-5.8a.79.79,0,0,1-.79-.79h0a.79.79,0,0,1,.79-.79h5.8a.79.79,0,0,1,.79.79Z"/><path class="cls-28" d="M340.4,350.92a.79.79,0,0,1-.79.79h-5.8a.79.79,0,0,1-.79-.79h0a.79.79,0,0,1,.79-.79h5.8a.79.79,0,0,1,.79.79Z"/><path class="cls-26" d="M342.87,348.45a1,1,0,0,1-1,1h-3a1,1,0,0,1-1-1h0a1,1,0,0,1,1-1h3a1,1,0,0,1,1,1Z"/><path class="cls-29" d="M148.33,360.08a1.86,1.86,0,0,0,1.86,1.86H350.24a1.86,1.86,0,0,0,1.86-1.86h0a1.86,1.86,0,0,0-1.86-1.86H150.19a1.86,1.86,0,0,0-1.86,1.86Z"/><path class="cls-26" d="M371.28,287.16a5.43,5.43,0,0,0,5.43,5.43h20.73a5.43,5.43,0,0,0,5.43-5.43h0a5.43,5.43,0,0,0-5.43-5.43H376.71a5.43,5.43,0,0,0-5.43,5.43Z"/><path class="cls-31" d="M373.19,310.83h8a8.09,8.09,0,0,0,6.34-2.53c2.81-3.14,2.29-8,2.27-8.22v-7.49h-1.68v7.59c0,.14.46,4.44-1.85,7a6.5,6.5,0,0,1-5.08,2h-8Z"/><path class="cls-31" d="M372.54,353.19l1.68.34V305.26H368a4.17,4.17,0,0,1-3.24-1.11,3.41,3.41,0,0,1-.74-2.39l-1.67-.2a5.06,5.06,0,0,0,1.14,3.7,5.72,5.72,0,0,0,4.51,1.69h4.53Z"/><path class="cls-31" d="M375,297.63H389v-1.68H375a4.35,4.35,0,0,1-3.47-1.33c-1.5-1.75-1.07-4.7-1.06-4.73v-8.64h-1.68v8.52s-.55,3.6,1.45,5.95A5.94,5.94,0,0,0,375,297.63Z"/><path class="cls-26" d="M358,276.74c0,2.68,1.89,4.82,4.12,4.78l15.46-.24c2.24,0,4-2.23,4-4.91h0c0-2.68-1.89-4.82-4.12-4.78l-15.46.24c-2.24,0-4,2.23-4,4.91Z"/><path class="cls-26" d="M355.17,297.83a4.07,4.07,0,0,0,4.07,4.07H374.8a4.07,4.07,0,0,0,4.07-4.07h0a4.07,4.07,0,0,0-4.07-4.07H359.25a4.07,4.07,0,0,0-4.07,4.07Z"/><path class="cls-30" d="M358,296.39a1.59,1.59,0,0,0,1.59,1.59h6.07a1.59,1.59,0,0,0,1.59-1.59h0a1.59,1.59,0,0,0-1.59-1.59h-6.07a1.59,1.59,0,0,0-1.59,1.59Z"/><path class="cls-30" d="M365.8,274.3a1.59,1.59,0,0,0,1.59,1.59h6.07a1.59,1.59,0,0,0,1.59-1.59h0a1.59,1.59,0,0,0-1.59-1.59h-6.07a1.59,1.59,0,0,0-1.59,1.59Z"/><path class="cls-30" d="M390.85,285a1.59,1.59,0,0,0,1.59,1.59h6.07a1.59,1.59,0,0,0,1.59-1.59h0a1.59,1.59,0,0,0-1.59-1.59h-6.07a1.59,1.59,0,0,0-1.59,1.59Z"/><path class="cls-26" d="M134,327.58a3.33,3.33,0,0,1-3.33,3.33H118a3.33,3.33,0,0,1-3.33-3.33h0a3.33,3.33,0,0,1,3.33-3.33H130.7a3.33,3.33,0,0,1,3.33,3.33Z"/><path class="cls-31" d="M132.86,342.11H128a5,5,0,0,1-3.89-1.55,7.14,7.14,0,0,1-1.39-5v-4.6h1v4.66c0,.08-.28,2.72,1.13,4.3a4,4,0,0,0,3.12,1.2h4.89Z"/><path class="cls-31" d="M133.26,353.53h-1V338.7H136a2.56,2.56,0,0,0,2-.68,2.09,2.09,0,0,0,.45-1.47l1-.12a3.11,3.11,0,0,1-.7,2.27,3.51,3.51,0,0,1-2.77,1h-2.78Z"/><path class="cls-31" d="M131.73,334h-8.56v-1h8.56a2.67,2.67,0,0,0,2.13-.82,4.13,4.13,0,0,0,.65-2.9v-5.31h1v5.23a5,5,0,0,1-.89,3.65A3.64,3.64,0,0,1,131.73,334Z"/><path class="cls-26" d="M142.21,321.19a2.76,2.76,0,0,1-2.53,2.94l-9.49-.15a2.76,2.76,0,0,1-2.44-3h0a2.76,2.76,0,0,1,2.53-2.93l9.49.15a2.76,2.76,0,0,1,2.44,3Z"/><path class="cls-26" d="M143.92,334.14a2.5,2.5,0,0,1-2.5,2.5h-9.54a2.5,2.5,0,0,1-2.5-2.5h0a2.5,2.5,0,0,1,2.5-2.5h9.54a2.5,2.5,0,0,1,2.5,2.5Z"/><path class="cls-30" d="M142.17,333.25a1,1,0,0,1-1,1h-3.73a1,1,0,0,1-1-1h0a1,1,0,0,1,1-1h3.73a1,1,0,0,1,1,1Z"/><path class="cls-30" d="M137.4,319.69a1,1,0,0,1-1,1h-3.73a1,1,0,0,1-1-1h0a1,1,0,0,1,1-1h3.73a1,1,0,0,1,1,1Z"/><path class="cls-30" d="M122,326.28a1,1,0,0,1-1,1h-3.73a1,1,0,0,1-1-1h0a1,1,0,0,1,1-1H121a1,1,0,0,1,1,1Z"/><path class="cls-26" d="M92.63,331.34a2.85,2.85,0,0,1-2.85,2.85H78.9A2.85,2.85,0,0,1,76,331.34h0a2.85,2.85,0,0,1,2.85-2.85H89.78a2.85,2.85,0,0,1,2.85,2.85Z"/><path class="cls-31" d="M91.63,343.77H87.45a4.25,4.25,0,0,1-3.33-1.33,6.11,6.11,0,0,1-1.19-4.31v-3.93h.88v4a5.35,5.35,0,0,0,1,3.68,3.41,3.41,0,0,0,2.67,1h4.18Z"/><path class="cls-31" d="M92,353.53h-.88V340.84h3.26a2.19,2.19,0,0,0,1.7-.58,1.79,1.79,0,0,0,.39-1.26l.87-.11a2.66,2.66,0,0,1-.6,1.94,3,3,0,0,1-2.37.89H92Z"/><path class="cls-31" d="M90.66,336.84H83.34V336h7.32a2.28,2.28,0,0,0,1.82-.7,3.53,3.53,0,0,0,.56-2.48v-4.54h.88v4.47a4.31,4.31,0,0,1-.76,3.12A3.11,3.11,0,0,1,90.66,336.84Z"/><path class="cls-26" d="M99.62,325.87a2.36,2.36,0,0,1-2.17,2.51l-8.12-.13a2.36,2.36,0,0,1-2.09-2.58h0a2.36,2.36,0,0,1,2.17-2.51l8.11.13a2.36,2.36,0,0,1,2.09,2.58Z"/><path class="cls-26" d="M101.09,336.95a2.14,2.14,0,0,1-2.14,2.14H90.79a2.14,2.14,0,0,1-2.14-2.14h0a2.14,2.14,0,0,1,2.14-2.14h8.16a2.14,2.14,0,0,1,2.14,2.14Z"/><path class="cls-30" d="M99.59,336.19a.84.84,0,0,1-.84.83H95.56a.83.83,0,0,1-.83-.83h0a.83.83,0,0,1,.83-.83h3.19a.84.84,0,0,1,.84.83Z"/><path class="cls-30" d="M95.51,324.59a.83.83,0,0,1-.83.83H91.48a.83.83,0,0,1-.83-.83h0a.83.83,0,0,1,.83-.83h3.19a.83.83,0,0,1,.83.83Z"/><path class="cls-30" d="M82.36,330.23a.83.83,0,0,1-.83.83H78.33a.84.84,0,0,1-.84-.83h0a.84.84,0,0,1,.84-.83h3.19a.83.83,0,0,1,.83.83Z"/><path class="cls-26" d="M68.79,297.82a4.56,4.56,0,0,1-4.56,4.56H46.83a4.56,4.56,0,0,1-4.56-4.56h0a4.56,4.56,0,0,1,4.56-4.56h17.4a4.56,4.56,0,0,1,4.56,4.56Z"/><path class="cls-31" d="M67.19,317.69H60.5a6.79,6.79,0,0,1-5.32-2.12c-2.36-2.64-1.92-6.72-1.9-6.9v-6.29h1.41v6.37c0,.11-.38,3.72,1.55,5.88a5.46,5.46,0,0,0,4.27,1.65h6.68Z"/><path class="cls-31" d="M67.74,353.25l-1.41.28V313h5.21a3.5,3.5,0,0,0,2.72-.93,2.86,2.86,0,0,0,.62-2l1.4-.17a4.25,4.25,0,0,1-1,3.1,4.81,4.81,0,0,1-3.79,1.42h-3.8Z"/><path class="cls-31" d="M65.63,306.6H53.93v-1.41H65.63a3.65,3.65,0,0,0,2.92-1.12c1.26-1.47.9-3.95.89-4v-7.26h1.41V300a6.89,6.89,0,0,1-1.22,5A5,5,0,0,1,65.63,306.6Z"/><path class="cls-26" d="M80,289.07c0,2.25-1.59,4-3.46,4l-13-.2c-1.88,0-3.37-1.88-3.33-4.12h0c0-2.25,1.59-4,3.46-4l13,.21c1.88,0,3.37,1.87,3.33,4.12Z"/><path class="cls-26" d="M82.31,306.78a3.42,3.42,0,0,1-3.42,3.42H65.84a3.42,3.42,0,0,1-3.42-3.42h0a3.42,3.42,0,0,1,3.42-3.42H78.89a3.42,3.42,0,0,1,3.42,3.42Z"/><path class="cls-30" d="M79.91,305.57a1.34,1.34,0,0,1-1.34,1.33h-5.1a1.33,1.33,0,0,1-1.33-1.33h0a1.33,1.33,0,0,1,1.33-1.33h5.1a1.34,1.34,0,0,1,1.34,1.33Z"/><path class="cls-30" d="M73.39,287a1.34,1.34,0,0,1-1.34,1.33H67A1.34,1.34,0,0,1,65.62,287h0A1.34,1.34,0,0,1,67,285.69h5.1A1.34,1.34,0,0,1,73.39,287Z"/><path class="cls-30" d="M52.36,296A1.34,1.34,0,0,1,51,297.37h-5.1A1.34,1.34,0,0,1,44.59,296h0a1.33,1.33,0,0,1,1.33-1.33H51A1.33,1.33,0,0,1,52.36,296Z"/><path class="cls-26" d="M401.69,328.07a3.27,3.27,0,0,0,3.27,3.27h12.49a3.27,3.27,0,0,0,3.27-3.27h0a3.27,3.27,0,0,0-3.27-3.27H405a3.27,3.27,0,0,0-3.27,3.27Z"/><path class="cls-31" d="M402.84,342.33h4.8a4.88,4.88,0,0,0,3.82-1.52,7,7,0,0,0,1.37-4.95v-4.52h-1v4.57c0,.08.27,2.67-1.11,4.22a3.92,3.92,0,0,1-3.06,1.18h-4.8Z"/><path class="cls-31" d="M402.44,353.53h1V339h-3.74a2.51,2.51,0,0,1-2-.67,2,2,0,0,1-.45-1.44l-1-.12A3.05,3.05,0,0,0,397,339a3.45,3.45,0,0,0,2.72,1h2.73Z"/><path class="cls-31" d="M404,334.37h8.4v-1H404a2.62,2.62,0,0,1-2.09-.8,4.05,4.05,0,0,1-.64-2.85V324.5h-1v5.13a4.94,4.94,0,0,0,.88,3.58A3.57,3.57,0,0,0,404,334.37Z"/><path class="cls-26" d="M393.66,321.79a2.71,2.71,0,0,0,2.49,2.88l9.31-.15a2.71,2.71,0,0,0,2.39-3h0a2.71,2.71,0,0,0-2.48-2.88l-9.31.15a2.71,2.71,0,0,0-2.39,3Z"/><path class="cls-26" d="M392,334.5a2.45,2.45,0,0,0,2.45,2.45h9.37a2.45,2.45,0,0,0,2.45-2.45h0a2.45,2.45,0,0,0-2.45-2.45h-9.37A2.45,2.45,0,0,0,392,334.5Z"/><path class="cls-30" d="M393.7,333.63a1,1,0,0,0,1,1h3.66a1,1,0,0,0,1-1h0a1,1,0,0,0-1-1h-3.66a1,1,0,0,0-1,1Z"/><path class="cls-30" d="M398.39,320.32a1,1,0,0,0,1,1H403a1,1,0,0,0,1-1h0a1,1,0,0,0-1-1h-3.66a1,1,0,0,0-1,1Z"/><path class="cls-30" d="M413.48,326.79a1,1,0,0,0,1,1h3.66a1,1,0,0,0,1-1h0a1,1,0,0,0-1-1h-3.66a1,1,0,0,0-1,1Z"/><path class="cls-26" d="M435,319.3a4.4,4.4,0,0,0,4.4,4.4h16.79a4.4,4.4,0,0,0,4.4-4.4h0a4.4,4.4,0,0,0-4.4-4.4H439.38a4.4,4.4,0,0,0-4.4,4.4Z"/><path class="cls-31" d="M436.54,338.47H443a6.55,6.55,0,0,0,5.13-2c2.27-2.54,1.86-6.49,1.84-6.65V323.7H448.6v6.15c0,.11.37,3.59-1.5,5.68a5.26,5.26,0,0,1-4.12,1.59h-6.45Z"/><path class="cls-31" d="M436,353.53h1.36V334h-5a3.38,3.38,0,0,1-2.62-.9,2.76,2.76,0,0,1-.6-1.94l-1.35-.17a4.1,4.1,0,0,0,.92,3,4.64,4.64,0,0,0,3.65,1.37H436Z"/><path class="cls-31" d="M438,327.78h11.29v-1.36H438a3.52,3.52,0,0,1-2.81-1.08,5.44,5.44,0,0,1-.86-3.83v-7H433v6.89a6.65,6.65,0,0,0,1.18,4.81A4.8,4.8,0,0,0,438,327.78Z"/><path class="cls-26" d="M424.2,310.87c0,2.17,1.53,3.9,3.34,3.87l12.52-.2c1.81,0,3.25-1.81,3.22-4h0c0-2.17-1.53-3.9-3.34-3.87l-12.52.2c-1.81,0-3.25,1.81-3.22,4Z"/><path class="cls-26" d="M421.95,327.95a3.3,3.3,0,0,0,3.3,3.3h12.59a3.3,3.3,0,0,0,3.3-3.3h0a3.3,3.3,0,0,0-3.3-3.3H425.25a3.3,3.3,0,0,0-3.3,3.3Z"/><path class="cls-30" d="M424.26,326.78a1.29,1.29,0,0,0,1.29,1.29h4.92a1.29,1.29,0,0,0,1.29-1.29h0a1.29,1.29,0,0,0-1.29-1.29h-4.92a1.29,1.29,0,0,0-1.29,1.29Z"/><path class="cls-30" d="M430.55,308.89a1.29,1.29,0,0,0,1.29,1.29h4.92a1.29,1.29,0,0,0,1.29-1.29h0a1.29,1.29,0,0,0-1.29-1.29h-4.92a1.29,1.29,0,0,0-1.29,1.29Z"/><path class="cls-30" d="M450.84,317.59a1.29,1.29,0,0,0,1.29,1.29H457a1.29,1.29,0,0,0,1.29-1.29h0A1.29,1.29,0,0,0,457,316.3h-4.92a1.29,1.29,0,0,0-1.29,1.29Z"/></svg>